<?xml version="1.0" encoding="utf-8"?>
<!-- Generator: Adobe Illustrator 16.0.0, SVG Export Plug-In . SVG Version: 6.00 Build 0)  -->
<!DOCTYPE svg PUBLIC "-//W3C//DTD SVG 1.1//EN" "http://www.w3.org/Graphics/SVG/1.1/DTD/svg11.dtd">
<svg version="1.1" xmlns="http://www.w3.org/2000/svg" xmlns:xlink="http://www.w3.org/1999/xlink" x="0px" y="0px"
	 width="345.234px" height="345.234px" viewBox="0 0 345.234 345.234" enable-background="new 0 0 345.234 345.234"
	 xml:space="preserve">
<g id="Capa_1">
	<g>
		<rect x="983.52" y="-2919.501" fill="#001B3D" width="1127.681" height="351.459"/>
		<g>
			<g>
				<path fill="#FFFFFF" d="M1372.109-2731.491l-7.393,13.918v46.746h-23.917v-152.203h23.917v65.883h0.436l30.874-65.883h23.915
					l-33.262,67.837l33.262,84.366h-24.566L1372.109-2731.491z"/>
				<path fill="#FFFFFF" d="M1431.679-2786.503c0-24.353,12.828-38.271,36.318-38.271c23.48,0,36.307,13.919,36.307,38.271v79.148
					c0,24.349-12.826,38.266-36.307,38.266c-23.49,0-36.318-13.917-36.318-38.266V-2786.503z M1455.597-2705.835
					c0,10.876,4.785,15.006,12.4,15.006c7.602,0,12.389-4.13,12.389-15.006v-82.191c0-10.871-4.787-15.001-12.389-15.001
					c-7.615,0-12.4,4.13-12.4,15.001V-2705.835z"/>
				<path fill="#FFFFFF" d="M1574.095-2670.827c-1.303-3.914-2.17-6.305-2.17-18.699v-23.922c0-14.13-4.785-19.347-15.652-19.347
					h-8.264v61.968h-23.918v-152.203h36.092c24.785,0,35.439,11.522,35.439,35.004v11.959c0,15.657-4.998,25.662-15.652,30.658v0.44
					c11.957,4.997,15.867,16.304,15.867,32.177v23.485c0,7.39,0.221,12.827,2.613,18.479H1574.095z M1548.009-2801.288v46.747h9.346
					c8.918,0,14.35-3.909,14.35-16.089v-15c0-10.877-3.699-15.658-12.172-15.658H1548.009z"/>
				<path fill="#FFFFFF" d="M1615.845-2823.03h23.918v152.203h-23.918V-2823.03z"/>
				<path fill="#FFFFFF" d="M1683.246-2781.064h-0.436v110.237h-21.523v-152.203h29.998l24.139,91.104h0.438v-91.104h21.305v152.203
					h-24.57L1683.246-2781.064z"/>
				<path fill="#FFFFFF" d="M1794.564-2698.878h0.438l18.047-124.152h21.953l-23.479,152.203h-35.664l-23.482-152.203h24.141
					L1794.564-2698.878z"/>
				<path fill="#FFFFFF" d="M1874.355-2758.887h32.836v21.741h-32.836v44.576h41.318v21.742h-65.236v-152.203h65.236v21.742h-41.318
					V-2758.887z"/>
				<path fill="#FFFFFF" d="M1984.812-2670.827c-1.307-3.914-2.172-6.305-2.172-18.699v-23.922c0-14.13-4.789-19.347-15.66-19.347
					h-8.264v61.968h-23.918v-152.203h36.096c24.791,0,35.445,11.522,35.445,35.004v11.959c0,15.657-5.008,25.662-15.656,30.658v0.44
					c11.957,4.997,15.873,16.304,15.873,32.177v23.485c0,7.39,0.221,12.827,2.611,18.479H1984.812z M1958.716-2801.288v46.747h9.354
					c8.914,0,14.354-3.909,14.354-16.089v-15c0-10.877-3.701-15.658-12.18-15.658H1958.716z"/>
			</g>
			<linearGradient id="SVGID_1_" gradientUnits="userSpaceOnUse" x1="1226.5483" y1="-2628.8516" x2="1171.8882" y2="-2845.0347">
				<stop  offset="0" style="stop-color:#5D9D47"/>
				<stop  offset="1" style="stop-color:#8EBC3F"/>
			</linearGradient>
			<path fill="url(#SVGID_1_)" d="M1197.488-2855.208c-61.817,0-111.936,49.889-111.936,111.439
				c0,61.541,50.118,111.434,111.936,111.434c61.822,0,111.945-49.893,111.945-111.434
				C1309.433-2805.319,1259.31-2855.208,1197.488-2855.208z M1197.901-2675.422v-11.446c-0.724,0.029-1.439,0.051-2.161,0.051
				c-32.885,0-59.551-26.5-59.551-59.188c0-32.696,26.666-59.192,59.551-59.192c32.891,0,59.549,26.496,59.549,59.192
				c0,8.163-1.668,15.944-4.674,23.013l11.152,4.491C1251.356-2693.394,1226.716-2675.679,1197.901-2675.422z"/>
		</g>
	</g>
	<g>
		<g>
			<path fill="#FFFFFF" d="M2640.647-2731.285l-7.393,13.918v46.746h-23.917v-152.203h23.917v65.883h0.436l30.874-65.883h23.915
				l-33.262,67.837l33.262,84.366h-24.566L2640.647-2731.285z"/>
			<path fill="#FFFFFF" d="M2700.217-2786.297c0-24.353,12.828-38.271,36.318-38.271c23.48,0,36.307,13.919,36.307,38.271v79.148
				c0,24.349-12.826,38.266-36.307,38.266c-23.49,0-36.318-13.917-36.318-38.266V-2786.297z M2724.135-2705.629
				c0,10.876,4.785,15.006,12.4,15.006c7.602,0,12.389-4.13,12.389-15.006v-82.191c0-10.871-4.787-15.001-12.389-15.001
				c-7.615,0-12.4,4.13-12.4,15.001V-2705.629z"/>
			<path fill="#FFFFFF" d="M2842.633-2670.621c-1.303-3.914-2.17-6.305-2.17-18.699v-23.922c0-14.13-4.785-19.347-15.652-19.347
				h-8.264v61.968h-23.918v-152.203h36.092c24.785,0,35.439,11.522,35.439,35.004v11.959c0,15.657-4.998,25.662-15.652,30.658v0.44
				c11.957,4.997,15.867,16.304,15.867,32.177v23.485c0,7.39,0.221,12.827,2.613,18.479H2842.633z M2816.547-2801.082v46.747h9.346
				c8.918,0,14.35-3.909,14.35-16.089v-15c0-10.877-3.699-15.658-12.172-15.658H2816.547z"/>
			<path fill="#FFFFFF" d="M2884.383-2822.824h23.918v152.203h-23.918V-2822.824z"/>
			<path fill="#FFFFFF" d="M2951.784-2780.858h-0.436v110.237h-21.523v-152.203h29.998l24.139,91.104h0.438v-91.104h21.305v152.203
				h-24.57L2951.784-2780.858z"/>
			<path fill="#FFFFFF" d="M3063.102-2698.672h0.438l18.047-124.152h21.953l-23.479,152.203h-35.664l-23.482-152.203h24.141
				L3063.102-2698.672z"/>
			<path fill="#FFFFFF" d="M3142.893-2758.681h32.836v21.741h-32.836v44.576h41.318v21.742h-65.236v-152.203h65.236v21.742h-41.318
				V-2758.681z"/>
			<path fill="#FFFFFF" d="M3253.35-2670.621c-1.307-3.914-2.172-6.305-2.172-18.699v-23.922c0-14.13-4.789-19.347-15.66-19.347
				h-8.264v61.968h-23.918v-152.203h36.096c24.791,0,35.445,11.522,35.445,35.004v11.959c0,15.657-5.008,25.662-15.656,30.658v0.44
				c11.957,4.997,15.873,16.304,15.873,32.177v23.485c0,7.39,0.221,12.827,2.611,18.479H3253.35z M3227.254-2801.082v46.747h9.354
				c8.914,0,14.354-3.909,14.354-16.089v-15c0-10.877-3.701-15.658-12.18-15.658H3227.254z"/>
		</g>
		<linearGradient id="SVGID_2_" gradientUnits="userSpaceOnUse" x1="2495.0874" y1="-2628.6445" x2="2440.427" y2="-2844.8286">
			<stop  offset="0" style="stop-color:#5D9D47"/>
			<stop  offset="1" style="stop-color:#8EBC3F"/>
		</linearGradient>
		<path fill="url(#SVGID_2_)" d="M2466.026-2855.002c-61.817,0-111.936,49.889-111.936,111.439
			c0,61.541,50.118,111.434,111.936,111.434c61.822,0,111.945-49.893,111.945-111.434
			C2577.971-2805.113,2527.848-2855.002,2466.026-2855.002z M2466.439-2675.216v-11.446c-0.724,0.029-1.439,0.051-2.161,0.051
			c-32.885,0-59.551-26.5-59.551-59.188c0-32.696,26.666-59.192,59.551-59.192c32.891,0,59.549,26.496,59.549,59.192
			c0,8.163-1.668,15.944-4.674,23.013l11.152,4.491C2519.894-2693.188,2495.254-2675.473,2466.439-2675.216z"/>
	</g>
	<g>
		<rect x="235.534" y="-2859.339" fill="#001B3D" width="261.99" height="261.99"/>
		<g>
			<g>
				<g>
					<path fill="#FFFFFF" d="M298.801-2643.972c-0.314-0.012-0.603-0.061-0.867-0.147c-0.264-0.087-0.492-0.212-0.684-0.374
						c-0.191-0.164-0.342-0.365-0.449-0.605c-0.106-0.242-0.163-0.521-0.169-0.841h0.608c0.041,0.482,0.202,0.829,0.483,1.04
						c0.283,0.213,0.642,0.318,1.077,0.318c0.173,0,0.343-0.021,0.509-0.065c0.166-0.043,0.311-0.108,0.436-0.196
						c0.125-0.086,0.227-0.198,0.305-0.334c0.079-0.137,0.118-0.299,0.118-0.484c0-0.215-0.049-0.392-0.144-0.531
						c-0.097-0.139-0.223-0.258-0.379-0.353c-0.156-0.097-0.336-0.177-0.536-0.243c-0.2-0.067-0.403-0.135-0.609-0.206
						c-0.207-0.069-0.409-0.144-0.61-0.226c-0.2-0.082-0.379-0.186-0.535-0.311c-0.157-0.124-0.284-0.279-0.379-0.465
						c-0.097-0.186-0.145-0.416-0.145-0.688c0-0.279,0.054-0.529,0.161-0.75c0.108-0.221,0.25-0.408,0.428-0.562
						c0.177-0.153,0.381-0.272,0.613-0.353c0.233-0.082,0.474-0.123,0.723-0.123c0.232,0,0.459,0.038,0.676,0.113
						c0.219,0.076,0.411,0.181,0.579,0.313c0.169,0.134,0.304,0.298,0.405,0.492c0.102,0.196,0.152,0.409,0.152,0.642h-0.609
						c-0.012-0.162-0.054-0.305-0.127-0.424c-0.072-0.119-0.165-0.218-0.278-0.296s-0.239-0.136-0.379-0.173
						c-0.14-0.039-0.279-0.057-0.419-0.057c-0.179,0-0.35,0.026-0.509,0.082c-0.16,0.055-0.3,0.132-0.417,0.23
						c-0.12,0.099-0.215,0.223-0.284,0.371c-0.069,0.147-0.104,0.312-0.104,0.492c0,0.197,0.047,0.359,0.14,0.487
						c0.093,0.127,0.215,0.235,0.365,0.327c0.15,0.089,0.322,0.166,0.514,0.23c0.192,0.064,0.39,0.127,0.594,0.191
						c0.202,0.063,0.401,0.136,0.597,0.217c0.193,0.082,0.369,0.187,0.525,0.314c0.401,0.324,0.602,0.743,0.602,1.254
						c0,0.279-0.057,0.525-0.17,0.736c-0.113,0.212-0.265,0.387-0.453,0.527c-0.188,0.139-0.4,0.244-0.636,0.316
						C299.284-2644.008,299.045-2643.972,298.801-2643.972z"/>
					<path fill="#FFFFFF" d="M318.792-2643.972c-0.436,0-0.856-0.084-1.263-0.252c-0.396-0.163-0.741-0.395-1.037-0.697
						c-0.303-0.296-0.534-0.641-0.697-1.037c-0.168-0.406-0.252-0.826-0.252-1.262s0.084-0.856,0.252-1.264
						c0.163-0.389,0.395-0.734,0.697-1.037c0.296-0.295,0.641-0.528,1.037-0.695c0.406-0.17,0.827-0.254,1.263-0.254
						c0.435,0,0.855,0.084,1.263,0.254c0.39,0.167,0.733,0.4,1.036,0.695c0.297,0.303,0.529,0.648,0.697,1.037
						c0.169,0.407,0.253,0.828,0.253,1.264s-0.084,0.855-0.253,1.262c-0.168,0.396-0.4,0.741-0.697,1.037
						c-0.303,0.303-0.646,0.534-1.036,0.697C319.647-2644.056,319.226-2643.972,318.792-2643.972z M318.792-2649.858
						c-0.354,0-0.691,0.064-1.012,0.195c-0.318,0.131-0.604,0.323-0.853,0.578c-0.256,0.25-0.449,0.535-0.579,0.855
						c-0.131,0.318-0.196,0.656-0.196,1.01s0.065,0.691,0.196,1.01c0.13,0.319,0.323,0.604,0.579,0.854
						c0.249,0.256,0.534,0.449,0.853,0.58c0.32,0.13,0.657,0.195,1.012,0.195c0.353,0,0.689-0.065,1.01-0.195
						c0.32-0.131,0.604-0.324,0.854-0.58c0.256-0.25,0.448-0.534,0.579-0.854c0.132-0.318,0.196-0.656,0.196-1.01
						s-0.064-0.691-0.196-1.01c-0.131-0.32-0.323-0.605-0.579-0.855c-0.249-0.255-0.533-0.447-0.854-0.578
						S319.144-2649.858,318.792-2649.858z"/>
					<path fill="#FFFFFF" d="M337.414-2649.659v2.501h2.841v0.608h-2.841v2.379h-0.608v-6.098h4.058v0.609H337.414z"/>
					<path fill="#FFFFFF" d="M355.627-2649.659v-0.609h4.06v0.609h-1.726v5.488h-0.608v-5.488H355.627z"/>
					<path fill="#FFFFFF" d="M378.903-2644.171l-1.892-2.857l-1.89,2.857h-0.67v-6.098h0.609v5.087l1.95-2.954l1.952,2.954v-5.087
						h0.609v6.098H378.903z"/>
					<path fill="#FFFFFF" d="M396.193-2650.269h0.645l1.96,6.098h-0.645l-0.767-2.379h-1.742l-0.767,2.379h-0.645L396.193-2650.269z
						 M395.835-2647.158h1.358l-0.679-2.118L395.835-2647.158z"/>
					<path fill="#FFFFFF" d="M416.993-2645.426c0-0.325-0.102-0.589-0.305-0.792c-0.221-0.203-0.528-0.314-0.923-0.332h-1.595v2.379
						h-0.608v-6.098h2.124c0.262,0,0.506,0.037,0.732,0.109c0.226,0.072,0.427,0.178,0.602,0.316
						c0.173,0.141,0.316,0.32,0.426,0.541c0.047,0.104,0.084,0.223,0.113,0.357c0.029,0.133,0.044,0.313,0.044,0.539
						c0,0.238-0.015,0.42-0.044,0.545s-0.066,0.238-0.113,0.345c-0.109,0.22-0.253,0.4-0.426,0.54
						c-0.029,0.022-0.057,0.045-0.083,0.064c-0.026,0.021-0.055,0.039-0.083,0.057c0.047,0.029,0.09,0.061,0.131,0.092
						s0.08,0.065,0.121,0.1c0.268,0.262,0.428,0.581,0.479,0.959c0.006,0.047,0.011,0.092,0.013,0.139
						c0.004,0.047,0.005,0.094,0.005,0.14v1.255h-0.61V-2645.426z M416.636-2647.456c0.063-0.058,0.121-0.133,0.174-0.225
						c0.046-0.082,0.089-0.182,0.127-0.297c0.037-0.117,0.056-0.258,0.056-0.428c0-0.25-0.029-0.447-0.091-0.597
						c-0.062-0.147-0.15-0.269-0.266-0.362c-0.243-0.196-0.562-0.295-0.95-0.295h-1.516v2.501h1.516
						C416.075-2647.158,416.393-2647.257,416.636-2647.456z"/>
					<path fill="#FFFFFF" d="M432.978-2649.659v2.501h2.839v0.608h-2.839v1.769h3.448v0.61h-4.059v-6.098h4.059v0.609H432.978z"/>
				</g>
				<g>
					<g>
						<path fill="#FFFFFF" d="M303.571-2667.086l-1.54,2.899v9.738h-4.982v-31.707h4.982v13.725h0.091l6.432-13.725h4.983
							l-6.931,14.131l6.931,17.576h-5.119L303.571-2667.086z"/>
						<path fill="#FFFFFF" d="M315.981-2678.547c0-5.073,2.673-7.972,7.565-7.972c4.892,0,7.563,2.898,7.563,7.972v16.489
							c0,5.072-2.672,7.972-7.563,7.972c-4.893,0-7.565-2.899-7.565-7.972V-2678.547z M320.963-2661.741
							c0,2.264,0.998,3.125,2.583,3.125s2.581-0.861,2.581-3.125v-17.122c0-2.265-0.996-3.126-2.581-3.126s-2.583,0.861-2.583,3.126
							V-2661.741z"/>
						<path fill="#FFFFFF" d="M345.649-2654.448c-0.271-0.816-0.452-1.314-0.452-3.896v-4.983c0-2.943-0.997-4.031-3.261-4.031
							h-1.722v12.91h-4.982v-31.707h7.519c5.164,0,7.383,2.4,7.383,7.292v2.491c0,3.262-1.041,5.345-3.26,6.387v0.092
							c2.49,1.041,3.306,3.396,3.306,6.703v4.893c0,1.539,0.045,2.672,0.543,3.85H345.649z M340.214-2681.626v9.738h1.947
							c1.858,0,2.989-0.816,2.989-3.352v-3.127c0-2.264-0.77-3.26-2.535-3.26H340.214z"/>
						<path fill="#FFFFFF" d="M354.346-2686.155h4.982v31.707h-4.982V-2686.155z"/>
						<path fill="#FFFFFF" d="M368.387-2677.413h-0.091v22.965h-4.484v-31.707h6.251l5.027,18.979h0.091v-18.979h4.438v31.707
							h-5.118L368.387-2677.413z"/>
						<path fill="#FFFFFF" d="M391.577-2660.292h0.091l3.76-25.863h4.574l-4.892,31.707h-7.429l-4.892-31.707h5.027
							L391.577-2660.292z"/>
						<path fill="#FFFFFF" d="M408.2-2672.794h6.84v4.529h-6.84v9.286h8.606v4.53h-13.589v-31.707h13.589v4.529H408.2V-2672.794z"/>
						<path fill="#FFFFFF" d="M431.209-2654.448c-0.272-0.816-0.452-1.314-0.452-3.896v-4.983c0-2.943-0.997-4.031-3.263-4.031
							h-1.721v12.91h-4.982v-31.707h7.52c5.163,0,7.383,2.4,7.383,7.292v2.491c0,3.262-1.042,5.345-3.262,6.387v0.092
							c2.492,1.041,3.307,3.396,3.307,6.703v4.893c0,1.539,0.046,2.672,0.544,3.85H431.209z M425.774-2681.626v9.738h1.947
							c1.857,0,2.99-0.816,2.99-3.352v-3.127c0-2.264-0.77-3.26-2.537-3.26H425.774z"/>
					</g>
				</g>
			</g>
			<linearGradient id="SVGID_3_" gradientUnits="userSpaceOnUse" x1="382.3623" y1="-2692.9072" x2="352.5771" y2="-2810.709">
				<stop  offset="0" style="stop-color:#5D9D47"/>
				<stop  offset="1" style="stop-color:#8EBC3F"/>
			</linearGradient>
			<path fill="url(#SVGID_3_)" d="M366.528-2816.253c-33.687,0-60.997,27.188-60.997,60.725c0,33.535,27.311,60.723,60.997,60.723
				c33.69,0,61-27.188,61-60.723C427.528-2789.065,400.218-2816.253,366.528-2816.253z M366.751-2718.285v-6.237
				c-0.393,0.016-0.783,0.029-1.176,0.029c-17.923,0-32.451-14.441-32.451-32.254c0-17.814,14.528-32.256,32.451-32.256
				c17.92,0,32.447,14.441,32.447,32.256c0,4.448-0.904,8.688-2.544,12.541l6.074,2.446
				C395.881-2728.079,382.456-2718.425,366.751-2718.285z"/>
		</g>
	</g>
	<g>
		<g>
			<g>
				<g>
					<path fill="#FFFFFF" d="M645.768-3051.367l-1.54,2.898v9.738h-4.982v-31.707h4.982v13.725h0.091l6.432-13.725h4.982
						l-6.93,14.132l6.93,17.575h-5.119L645.768-3051.367z"/>
					<path fill="#FFFFFF" d="M658.178-3062.828c0-5.073,2.672-7.973,7.564-7.973c4.892,0,7.564,2.899,7.564,7.973v16.488
						c0,5.073-2.672,7.972-7.564,7.972c-4.893,0-7.564-2.898-7.564-7.972V-3062.828z M663.16-3046.023
						c0,2.265,0.996,3.126,2.582,3.126c1.585,0,2.582-0.861,2.582-3.126v-17.121c0-2.265-0.997-3.126-2.582-3.126
						c-1.586,0-2.582,0.861-2.582,3.126V-3046.023z"/>
					<path fill="#FFFFFF" d="M687.845-3038.73c-0.271-0.815-0.453-1.313-0.453-3.895v-4.984c0-2.942-0.996-4.03-3.26-4.03h-1.723
						v12.909h-4.982v-31.707h7.52c5.164,0,7.383,2.401,7.383,7.293v2.49c0,3.262-1.041,5.346-3.26,6.388v0.091
						c2.49,1.041,3.305,3.396,3.305,6.703v4.893c0,1.539,0.047,2.672,0.545,3.85H687.845z M682.41-3065.907v9.737h1.947
						c1.859,0,2.99-0.814,2.99-3.352v-3.125c0-2.266-0.77-3.261-2.535-3.261H682.41z"/>
					<path fill="#FFFFFF" d="M696.542-3070.438h4.982v31.707h-4.982V-3070.438z"/>
					<path fill="#FFFFFF" d="M710.583-3061.695h-0.092v22.965h-4.484v-31.707h6.252l5.027,18.979h0.09v-18.979h4.439v31.707h-5.119
						L710.583-3061.695z"/>
					<path fill="#FFFFFF" d="M733.773-3044.573h0.09l3.76-25.864h4.574l-4.891,31.707h-7.43l-4.891-31.707h5.027L733.773-3044.573z"
						/>
					<path fill="#FFFFFF" d="M750.396-3057.074h6.841v4.528h-6.841v9.285h8.608v4.53h-13.591v-31.707h13.591v4.53h-8.608V-3057.074z
						"/>
					<path fill="#FFFFFF" d="M773.407-3038.73c-0.273-0.815-0.453-1.313-0.453-3.895v-4.984c0-2.942-0.996-4.03-3.262-4.03h-1.721
						v12.909h-4.982v-31.707h7.52c5.164,0,7.383,2.401,7.383,7.293v2.49c0,3.262-1.043,5.346-3.262,6.388v0.091
						c2.492,1.041,3.307,3.396,3.307,6.703v4.893c0,1.539,0.045,2.672,0.543,3.85H773.407z M767.971-3065.907v9.737h1.947
						c1.857,0,2.99-0.814,2.99-3.352v-3.125c0-2.266-0.77-3.261-2.537-3.261H767.971z"/>
				</g>
			</g>
		</g>
		<linearGradient id="SVGID_4_" gradientUnits="userSpaceOnUse" x1="724.5591" y1="-3077.1885" x2="694.7736" y2="-3194.991">
			<stop  offset="0" style="stop-color:#5D9D47"/>
			<stop  offset="1" style="stop-color:#8EBC3F"/>
		</linearGradient>
		<path fill="url(#SVGID_4_)" d="M708.724-3200.535c-33.688,0-60.997,27.188-60.997,60.726c0,33.535,27.309,60.723,60.997,60.723
			c33.689,0,61.001-27.188,61.001-60.723C769.725-3173.348,742.414-3200.535,708.724-3200.535z M708.949-3102.566v-6.237
			c-0.393,0.015-0.785,0.029-1.178,0.029c-17.922,0-32.451-14.441-32.451-32.253c0-17.816,14.529-32.256,32.451-32.256
			c17.92,0,32.449,14.439,32.449,32.256c0,4.447-0.906,8.687-2.547,12.54l6.076,2.446
			C738.078-3112.36,724.652-3102.707,708.949-3102.566z"/>
	</g>
	<g>
		<rect x="235.534" y="-3250.447" fill="#001B3D" width="261.991" height="261.991"/>
		<g>
			<g>
				<g>
					<g>
						<path fill="#FFFFFF" d="M303.571-3058.194l-1.54,2.9v9.738h-4.982v-31.707h4.982v13.725h0.091l6.432-13.725h4.982
							l-6.93,14.131l6.93,17.576h-5.118L303.571-3058.194z"/>
						<path fill="#FFFFFF" d="M315.981-3069.655c0-5.072,2.672-7.971,7.565-7.971c4.892,0,7.563,2.898,7.563,7.971v16.49
							c0,5.072-2.671,7.971-7.563,7.971c-4.894,0-7.565-2.898-7.565-7.971V-3069.655z M320.963-3052.849
							c0,2.264,0.997,3.125,2.583,3.125c1.584,0,2.581-0.861,2.581-3.125v-17.123c0-2.264-0.997-3.125-2.581-3.125
							c-1.586,0-2.583,0.861-2.583,3.125V-3052.849z"/>
						<path fill="#FFFFFF" d="M345.649-3045.556c-0.27-0.816-0.451-1.314-0.451-3.896v-4.982c0-2.943-0.998-4.031-3.262-4.031
							h-1.722v12.91h-4.981v-31.707h7.518c5.164,0,7.382,2.4,7.382,7.291v2.492c0,3.262-1.04,5.344-3.259,6.387v0.092
							c2.49,1.041,3.306,3.396,3.306,6.703v4.893c0,1.539,0.045,2.672,0.543,3.85H345.649z M340.214-3072.733v9.738h1.948
							c1.857,0,2.988-0.816,2.988-3.352v-3.127c0-2.264-0.77-3.26-2.535-3.26H340.214z"/>
						<path fill="#FFFFFF" d="M354.346-3077.263h4.982v31.707h-4.982V-3077.263z"/>
						<path fill="#FFFFFF" d="M368.387-3068.521h-0.09v22.965h-4.484v-31.707h6.249l5.028,18.979h0.09v-18.979h4.439v31.707h-5.118
							L368.387-3068.521z"/>
						<path fill="#FFFFFF" d="M391.577-3051.399h0.092l3.76-25.863h4.575l-4.894,31.707h-7.431l-4.89-31.707h5.026L391.577-3051.399
							z"/>
						<path fill="#FFFFFF" d="M408.2-3063.901h6.841v4.529H408.2v9.285h8.608v4.531h-13.593v-31.707h13.593v4.529H408.2V-3063.901z"
							/>
						<path fill="#FFFFFF" d="M431.21-3045.556c-0.271-0.816-0.453-1.314-0.453-3.896v-4.982c0-2.943-0.996-4.031-3.262-4.031
							h-1.721v12.91h-4.982v-31.707h7.52c5.164,0,7.383,2.4,7.383,7.291v2.492c0,3.262-1.041,5.344-3.262,6.387v0.092
							c2.492,1.041,3.307,3.396,3.307,6.703v4.893c0,1.539,0.047,2.672,0.545,3.85H431.21z M425.775-3072.733v9.738h1.947
							c1.857,0,2.99-0.816,2.99-3.352v-3.127c0-2.264-0.77-3.26-2.537-3.26H425.775z"/>
					</g>
				</g>
			</g>
			<linearGradient id="SVGID_5_" gradientUnits="userSpaceOnUse" x1="382.3633" y1="-3084.0146" x2="352.5781" y2="-3201.8164">
				<stop  offset="0" style="stop-color:#5D9D47"/>
				<stop  offset="1" style="stop-color:#8EBC3F"/>
			</linearGradient>
			<path fill="url(#SVGID_5_)" d="M366.528-3207.36c-33.688,0-60.997,27.188-60.997,60.724c0,33.535,27.309,60.723,60.997,60.723
				c33.692,0,61.001-27.188,61.001-60.723C427.529-3180.172,400.22-3207.36,366.528-3207.36z M366.752-3109.394v-6.236
				c-0.393,0.016-0.783,0.029-1.176,0.029c-17.924,0-32.452-14.441-32.452-32.254c0-17.814,14.528-32.255,32.452-32.255
				c17.92,0,32.446,14.441,32.446,32.255c0,4.447-0.906,8.688-2.544,12.541l6.074,2.445
				C395.88-3119.187,382.456-3109.532,366.752-3109.394z"/>
		</g>
	</g>
	<g>
		<rect x="983.52" y="-3599.501" fill="#001B3D" width="1127.681" height="351.459"/>
		<g>
			<g>
				<path fill="#FFFFFF" d="M1364.026-3323.964c-1.497-0.054-2.873-0.289-4.138-0.707c-1.26-0.416-2.351-1.016-3.266-1.788
					c-0.918-0.776-1.632-1.741-2.144-2.894c-0.511-1.151-0.78-2.487-0.808-4.014h2.905c0.195,2.303,0.966,3.961,2.309,4.971
					c1.353,1.014,3.061,1.518,5.141,1.518c0.831,0,1.644-0.102,2.435-0.309c0.794-0.211,1.482-0.521,2.081-0.939
					c0.596-0.414,1.081-0.945,1.456-1.599c0.372-0.653,0.563-1.423,0.563-2.311c0-1.024-0.232-1.873-0.686-2.538
					c-0.463-0.664-1.063-1.227-1.811-1.687c-0.745-0.457-1.604-0.844-2.561-1.163c-0.955-0.318-1.925-0.645-2.909-0.979
					c-0.989-0.333-1.955-0.689-2.916-1.082c-0.952-0.387-1.811-0.879-2.556-1.474c-0.752-0.597-1.358-1.339-1.811-2.228
					c-0.461-0.889-0.689-1.984-0.689-3.285c0-1.334,0.256-2.525,0.769-3.578c0.519-1.055,1.194-1.949,2.043-2.684
					c0.844-0.735,1.82-1.301,2.93-1.687c1.114-0.39,2.264-0.581,3.452-0.581c1.11,0,2.188,0.18,3.232,0.539
					c1.036,0.363,1.96,0.86,2.762,1.498c0.808,0.638,1.45,1.422,1.935,2.35c0.486,0.929,0.729,1.95,0.729,3.061h-2.917
					c-0.056-0.777-0.25-1.451-0.601-2.021c-0.346-0.568-0.788-1.04-1.328-1.413c-0.542-0.373-1.147-0.652-1.81-0.832
					c-0.668-0.18-1.335-0.271-2.002-0.271c-0.854,0-1.666,0.133-2.43,0.396c-0.767,0.262-1.433,0.63-1.996,1.102
					c-0.569,0.474-1.022,1.063-1.354,1.77c-0.33,0.707-0.498,1.491-0.498,2.352c0,0.942,0.224,1.721,0.667,2.329
					s1.026,1.13,1.745,1.561c0.717,0.43,1.539,0.796,2.453,1.101c0.914,0.309,1.855,0.611,2.835,0.917
					c0.966,0.304,1.918,0.651,2.847,1.04c0.928,0.387,1.767,0.887,2.514,1.498c1.917,1.553,2.872,3.547,2.872,5.989
					c0,1.331-0.271,2.507-0.815,3.517c-0.532,1.012-1.259,1.852-2.159,2.517c-0.902,0.663-1.913,1.169-3.038,1.519
					C1366.334-3324.137,1365.191-3323.964,1364.026-3323.964z"/>
				<path fill="#FFFFFF" d="M1459.505-3323.964c-2.078,0-4.086-0.4-6.026-1.206c-1.893-0.776-3.539-1.884-4.955-3.327
					c-1.442-1.414-2.551-3.066-3.329-4.953c-0.802-1.939-1.201-3.952-1.201-6.033c0-2.078,0.399-4.088,1.201-6.03
					c0.778-1.858,1.887-3.508,3.329-4.952c1.416-1.412,3.063-2.524,4.955-3.327c1.94-0.804,3.948-1.206,6.026-1.206
					c2.08,0,4.092,0.402,6.036,1.206c1.857,0.803,3.505,1.915,4.954,3.327c1.413,1.444,2.525,3.094,3.32,4.952
					c0.812,1.942,1.212,3.952,1.212,6.03c0,2.081-0.4,4.094-1.212,6.033c-0.795,1.887-1.907,3.539-3.32,4.953
					c-1.449,1.443-3.097,2.551-4.954,3.327C1463.597-3324.364,1461.585-3323.964,1459.505-3323.964z M1459.505-3352.089
					c-1.689,0-3.299,0.314-4.824,0.938c-1.523,0.622-2.881,1.544-4.075,2.765c-1.223,1.192-2.146,2.552-2.77,4.077
					c-0.62,1.528-0.934,3.138-0.934,4.825c0,1.693,0.313,3.302,0.934,4.828c0.624,1.525,1.547,2.885,2.77,4.076
					c1.194,1.223,2.552,2.142,4.075,2.768c1.525,0.625,3.135,0.934,4.824,0.934c1.688,0,3.304-0.309,4.826-0.934
					c1.531-0.626,2.893-1.545,4.084-2.768c1.212-1.191,2.136-2.551,2.762-4.076c0.623-1.526,0.937-3.135,0.937-4.828
					c0-1.688-0.313-3.297-0.937-4.825c-0.626-1.525-1.55-2.885-2.762-4.077c-1.191-1.221-2.553-2.143-4.084-2.765
					C1462.809-3351.774,1461.194-3352.089,1459.505-3352.089z"/>
				<path fill="#FFFFFF" d="M1548.457-3351.132v11.943h13.564v2.91h-13.564v11.357h-2.907v-29.121h19.383v2.91H1548.457z"/>
				<path fill="#FFFFFF" d="M1635.453-3351.132v-2.91h19.389v2.91h-8.242v26.211h-2.905v-26.211H1635.453z"/>
				<path fill="#FFFFFF" d="M1746.617-3324.921l-9.031-13.646l-9.021,13.646h-3.199v-29.121h2.907v24.294l9.313-14.103l9.326,14.103
					v-24.294h2.91v29.121H1746.617z"/>
				<path fill="#FFFFFF" d="M1829.207-3354.042h3.078l9.355,29.121h-3.071l-3.665-11.357h-8.319l-3.665,11.357h-3.076
					L1829.207-3354.042z M1827.5-3339.188h6.486l-3.241-10.112L1827.5-3339.188z"/>
				<path fill="#FFFFFF" d="M1928.55-3330.911c0-1.552-0.478-2.814-1.451-3.788c-1.057-0.968-2.523-1.498-4.408-1.579h-7.619v11.357
					h-2.903v-29.121h10.144c1.25,0,2.418,0.172,3.497,0.52c1.08,0.346,2.039,0.854,2.868,1.518c0.833,0.666,1.518,1.525,2.041,2.58
					c0.225,0.499,0.398,1.065,0.538,1.705c0.136,0.639,0.212,1.499,0.212,2.579c0,1.138-0.076,2.006-0.212,2.6
					c-0.14,0.595-0.313,1.144-0.538,1.646c-0.523,1.054-1.208,1.912-2.041,2.579c-0.137,0.112-0.269,0.217-0.39,0.31
					c-0.126,0.098-0.262,0.186-0.397,0.273c0.225,0.137,0.43,0.283,0.625,0.434c0.191,0.156,0.385,0.314,0.58,0.48
					c1.279,1.248,2.041,2.772,2.287,4.578c0.031,0.222,0.053,0.443,0.063,0.662c0.014,0.221,0.023,0.445,0.023,0.668v5.99h-2.918
					V-3330.911z M1926.851-3340.607c0.302-0.274,0.578-0.637,0.83-1.079c0.219-0.387,0.42-0.858,0.606-1.416
					c0.177-0.555,0.263-1.234,0.263-2.038c0-1.191-0.142-2.144-0.432-2.851c-0.294-0.706-0.717-1.281-1.268-1.729
					c-1.166-0.941-2.685-1.412-4.539-1.412h-7.24v11.943h7.24C1924.167-3339.188,1925.685-3339.659,1926.851-3340.607z"/>
				<path fill="#FFFFFF" d="M2004.908-3351.132v11.943h13.553v2.91h-13.553v8.447h16.469v2.91h-19.387v-29.121h19.387v2.91H2004.908
					z"/>
			</g>
			<g>
				<g>
					<path fill="#FFFFFF" d="M1386.812-3434.37l-7.356,13.846v46.516h-23.797v-151.443h23.797v65.554h0.434l30.718-65.554h23.806
						l-33.104,67.498l33.104,83.945h-24.452L1386.812-3434.37z"/>
					<path fill="#FFFFFF" d="M1446.091-3489.106c0-24.232,12.763-38.078,36.131-38.078c23.364,0,36.123,13.846,36.123,38.078v78.75
						c0,24.232-12.759,38.078-36.123,38.078c-23.368,0-36.131-13.846-36.131-38.078V-3489.106z M1469.886-3408.843
						c0,10.819,4.761,14.932,12.336,14.932c7.565,0,12.325-4.112,12.325-14.932v-81.78c0-10.814-4.76-14.926-12.325-14.926
						c-7.575,0-12.336,4.111-12.336,14.926V-3408.843z"/>
					<path fill="#FFFFFF" d="M1587.791-3374.009c-1.29-3.895-2.159-6.273-2.159-18.605v-23.801c0-14.061-4.764-19.252-15.578-19.252
						h-8.22v61.658h-23.798v-151.443h35.906c24.669,0,35.27,11.465,35.27,34.829v11.898c0,15.581-4.976,25.532-15.575,30.508v0.434
						c11.898,4.974,15.795,16.225,15.795,32.019v23.367c0,7.353,0.214,12.764,2.593,18.389H1587.791z M1561.833-3503.819v46.514
						h9.301c8.871,0,14.278-3.895,14.278-16.008v-14.928c0-10.82-3.675-15.578-12.113-15.578H1561.833z"/>
					<path fill="#FFFFFF" d="M1629.332-3525.452h23.798v151.443h-23.798V-3525.452z"/>
					<path fill="#FFFFFF" d="M1696.395-3483.698h-0.431v109.689h-21.42v-151.443h29.853l24.017,90.647h0.435v-90.647h21.198v151.443
						h-24.442L1696.395-3483.698z"/>
					<path fill="#FFFFFF" d="M1807.158-3401.917h0.434l17.96-123.535h21.847l-23.365,151.443h-35.48l-23.369-151.443h24.015
						L1807.158-3401.917z"/>
					<path fill="#FFFFFF" d="M1886.549-3461.63h32.674v21.634h-32.674v44.353h41.11v21.635h-64.906v-151.443h64.906v21.633h-41.11
						V-3461.63z"/>
					<path fill="#FFFFFF" d="M1996.458-3374.009c-1.303-3.895-2.16-6.273-2.16-18.605v-23.801c0-14.061-4.766-19.252-15.584-19.252
						h-8.225v61.658h-23.797v-151.443h35.917c24.666,0,35.269,11.465,35.269,34.829v11.898c0,15.581-4.98,25.532-15.58,30.508v0.434
						c11.898,4.974,15.795,16.225,15.795,32.019v23.367c0,7.353,0.217,12.764,2.6,18.389H1996.458z M1970.49-3503.819v46.514h9.311
						c8.868,0,14.278-3.895,14.278-16.008v-14.928c0-10.82-3.681-15.578-12.115-15.578H1970.49z"/>
				</g>
				<linearGradient id="SVGID_6_" gradientUnits="userSpaceOnUse" x1="1233.2349" y1="-3293.4512" x2="1171.2505" y2="-3538.6016">
					<stop  offset="0" style="stop-color:#5D9D47"/>
					<stop  offset="1" style="stop-color:#8EBC3F"/>
				</linearGradient>
				<path fill="url(#SVGID_6_)" d="M1200.281-3550.139c-70.104,0-126.937,56.576-126.937,126.37
					c0,69.787,56.832,126.365,126.937,126.365c70.112,0,126.944-56.578,126.944-126.365
					C1327.225-3493.563,1270.393-3550.139,1200.281-3550.139z M1200.749-3346.265v-12.979c-0.82,0.029-1.634,0.058-2.45,0.058
					c-37.295,0-67.53-30.05-67.53-67.118c0-37.074,30.235-67.125,67.53-67.125c37.292,0,67.522,30.051,67.522,67.125
					c0,9.256-1.879,18.077-5.293,26.098l12.646,5.089C1261.367-3366.646,1233.423-3346.556,1200.749-3346.265z"/>
			</g>
		</g>
	</g>
	<g>
		<g>
			<path fill="#FFFFFF" d="M2600.519-3323.967c-1.497-0.054-2.873-0.289-4.138-0.707c-1.26-0.416-2.351-1.016-3.266-1.788
				c-0.918-0.776-1.632-1.741-2.144-2.894c-0.511-1.151-0.78-2.487-0.808-4.014h2.905c0.195,2.303,0.966,3.961,2.309,4.971
				c1.353,1.014,3.061,1.518,5.141,1.518c0.831,0,1.644-0.102,2.435-0.309c0.794-0.211,1.482-0.521,2.081-0.939
				c0.596-0.414,1.081-0.945,1.456-1.599c0.372-0.653,0.563-1.423,0.563-2.311c0-1.024-0.232-1.873-0.686-2.538
				c-0.463-0.664-1.063-1.227-1.811-1.687c-0.745-0.457-1.604-0.844-2.561-1.163c-0.955-0.318-1.925-0.645-2.909-0.979
				c-0.989-0.333-1.955-0.689-2.916-1.082c-0.952-0.387-1.811-0.879-2.556-1.474c-0.752-0.597-1.358-1.339-1.811-2.228
				c-0.461-0.889-0.689-1.984-0.689-3.285c0-1.334,0.256-2.525,0.769-3.578c0.519-1.055,1.194-1.949,2.043-2.684
				c0.844-0.735,1.82-1.301,2.93-1.687c1.114-0.39,2.264-0.581,3.452-0.581c1.11,0,2.188,0.18,3.232,0.539
				c1.036,0.363,1.96,0.86,2.762,1.498c0.808,0.638,1.45,1.422,1.935,2.35c0.486,0.929,0.729,1.95,0.729,3.061h-2.917
				c-0.056-0.777-0.25-1.451-0.601-2.021c-0.346-0.568-0.788-1.04-1.328-1.413c-0.542-0.373-1.147-0.652-1.81-0.832
				c-0.668-0.18-1.335-0.271-2.002-0.271c-0.854,0-1.666,0.133-2.43,0.396c-0.767,0.262-1.433,0.63-1.996,1.102
				c-0.569,0.474-1.022,1.063-1.354,1.77c-0.33,0.707-0.498,1.491-0.498,2.352c0,0.942,0.224,1.721,0.667,2.329
				s1.026,1.13,1.745,1.561c0.717,0.43,1.539,0.796,2.453,1.101c0.914,0.309,1.855,0.611,2.835,0.917
				c0.966,0.304,1.918,0.651,2.847,1.04c0.928,0.387,1.767,0.887,2.514,1.498c1.917,1.553,2.872,3.547,2.872,5.989
				c0,1.331-0.271,2.507-0.815,3.517c-0.532,1.012-1.259,1.852-2.159,2.517c-0.902,0.663-1.913,1.169-3.038,1.519
				C2602.828-3324.14,2601.684-3323.967,2600.519-3323.967z"/>
			<path fill="#FFFFFF" d="M2695.999-3323.967c-2.078,0-4.086-0.4-6.026-1.206c-1.893-0.776-3.539-1.884-4.955-3.327
				c-1.442-1.414-2.551-3.066-3.329-4.953c-0.802-1.939-1.201-3.952-1.201-6.033c0-2.078,0.399-4.088,1.201-6.03
				c0.778-1.858,1.887-3.508,3.329-4.952c1.416-1.412,3.063-2.524,4.955-3.327c1.94-0.804,3.948-1.206,6.026-1.206
				c2.08,0,4.092,0.402,6.036,1.206c1.857,0.803,3.505,1.915,4.954,3.327c1.413,1.444,2.525,3.094,3.32,4.952
				c0.812,1.942,1.212,3.952,1.212,6.03c0,2.081-0.4,4.094-1.212,6.033c-0.795,1.887-1.907,3.539-3.32,4.953
				c-1.449,1.443-3.097,2.551-4.954,3.327C2700.09-3324.368,2698.079-3323.967,2695.999-3323.967z M2695.999-3352.092
				c-1.689,0-3.299,0.314-4.824,0.938c-1.523,0.622-2.881,1.544-4.075,2.765c-1.223,1.192-2.146,2.552-2.77,4.077
				c-0.62,1.528-0.934,3.138-0.934,4.825c0,1.693,0.313,3.302,0.934,4.828c0.624,1.525,1.547,2.885,2.77,4.076
				c1.194,1.223,2.552,2.142,4.075,2.768c1.525,0.625,3.135,0.934,4.824,0.934c1.688,0,3.304-0.309,4.826-0.934
				c1.531-0.626,2.893-1.545,4.084-2.768c1.212-1.191,2.136-2.551,2.762-4.076c0.623-1.526,0.937-3.135,0.937-4.828
				c0-1.688-0.313-3.297-0.937-4.825c-0.626-1.525-1.55-2.885-2.762-4.077c-1.191-1.221-2.553-2.143-4.084-2.765
				C2699.302-3351.778,2697.687-3352.092,2695.999-3352.092z"/>
			<path fill="#FFFFFF" d="M2784.95-3351.135v11.943h13.564v2.91h-13.564v11.357h-2.907v-29.121h19.383v2.91H2784.95z"/>
			<path fill="#FFFFFF" d="M2871.946-3351.135v-2.91h19.389v2.91h-8.242v26.211h-2.905v-26.211H2871.946z"/>
			<path fill="#FFFFFF" d="M2983.11-3324.924l-9.031-13.646l-9.021,13.646h-3.199v-29.121h2.907v24.294l9.313-14.103l9.326,14.103
				v-24.294h2.91v29.121H2983.11z"/>
			<path fill="#FFFFFF" d="M3065.7-3354.045h3.078l9.355,29.121h-3.071l-3.665-11.357h-8.319l-3.665,11.357h-3.076L3065.7-3354.045z
				 M3063.994-3339.192h6.486l-3.241-10.112L3063.994-3339.192z"/>
			<path fill="#FFFFFF" d="M3165.043-3330.915c0-1.552-0.478-2.814-1.451-3.788c-1.057-0.968-2.523-1.498-4.408-1.579h-7.619v11.357
				h-2.903v-29.121h10.144c1.25,0,2.418,0.172,3.497,0.52c1.08,0.346,2.039,0.854,2.868,1.518c0.833,0.666,1.518,1.525,2.041,2.58
				c0.225,0.499,0.398,1.065,0.538,1.705c0.136,0.639,0.212,1.499,0.212,2.579c0,1.138-0.076,2.006-0.212,2.6
				c-0.14,0.595-0.313,1.144-0.538,1.646c-0.523,1.054-1.208,1.912-2.041,2.579c-0.137,0.112-0.269,0.217-0.39,0.31
				c-0.126,0.098-0.262,0.186-0.397,0.273c0.225,0.137,0.43,0.283,0.625,0.434c0.191,0.156,0.385,0.314,0.58,0.48
				c1.279,1.248,2.041,2.772,2.287,4.578c0.031,0.222,0.053,0.443,0.063,0.662c0.014,0.221,0.023,0.445,0.023,0.668v5.99h-2.918
				V-3330.915z M3163.344-3340.611c0.302-0.274,0.578-0.637,0.83-1.079c0.219-0.387,0.42-0.858,0.606-1.416
				c0.177-0.555,0.263-1.234,0.263-2.038c0-1.191-0.142-2.144-0.432-2.851c-0.294-0.706-0.717-1.281-1.268-1.729
				c-1.166-0.941-2.685-1.412-4.539-1.412h-7.24v11.943h7.24C3160.66-3339.192,3162.178-3339.663,3163.344-3340.611z"/>
			<path fill="#FFFFFF" d="M3241.401-3351.135v11.943h13.553v2.91h-13.553v8.447h16.469v2.91h-19.387v-29.121h19.387v2.91H3241.401z
				"/>
		</g>
		<g>
			<g>
				<path fill="#FFFFFF" d="M2623.305-3434.374l-7.356,13.846v46.516h-23.797v-151.443h23.797v65.554h0.434l30.718-65.554h23.806
					l-33.104,67.498l33.104,83.945h-24.452L2623.305-3434.374z"/>
				<path fill="#FFFFFF" d="M2682.584-3489.11c0-24.232,12.763-38.078,36.131-38.078c23.364,0,36.123,13.846,36.123,38.078v78.75
					c0,24.232-12.759,38.078-36.123,38.078c-23.368,0-36.131-13.846-36.131-38.078V-3489.11z M2706.379-3408.846
					c0,10.819,4.761,14.932,12.336,14.932c7.565,0,12.325-4.112,12.325-14.932v-81.78c0-10.814-4.76-14.926-12.325-14.926
					c-7.575,0-12.336,4.111-12.336,14.926V-3408.846z"/>
				<path fill="#FFFFFF" d="M2824.284-3374.012c-1.29-3.895-2.159-6.273-2.159-18.605v-23.801c0-14.061-4.764-19.252-15.578-19.252
					h-8.22v61.658h-23.798v-151.443h35.906c24.669,0,35.27,11.465,35.27,34.829v11.898c0,15.581-4.976,25.532-15.575,30.508v0.434
					c11.898,4.974,15.795,16.225,15.795,32.019v23.367c0,7.353,0.214,12.764,2.593,18.389H2824.284z M2798.327-3503.823v46.514
					h9.301c8.871,0,14.278-3.895,14.278-16.008v-14.928c0-10.82-3.675-15.578-12.113-15.578H2798.327z"/>
				<path fill="#FFFFFF" d="M2865.825-3525.456h23.798v151.443h-23.798V-3525.456z"/>
				<path fill="#FFFFFF" d="M2932.888-3483.702h-0.431v109.689h-21.42v-151.443h29.853l24.017,90.647h0.435v-90.647h21.198v151.443
					h-24.442L2932.888-3483.702z"/>
				<path fill="#FFFFFF" d="M3043.651-3401.92h0.434l17.96-123.535h21.847l-23.365,151.443h-35.48l-23.369-151.443h24.015
					L3043.651-3401.92z"/>
				<path fill="#FFFFFF" d="M3123.042-3461.633h32.674V-3440h-32.674v44.353h41.11v21.635h-64.906v-151.443h64.906v21.633h-41.11
					V-3461.633z"/>
				<path fill="#FFFFFF" d="M3232.952-3374.012c-1.303-3.895-2.16-6.273-2.16-18.605v-23.801c0-14.061-4.766-19.252-15.584-19.252
					h-8.225v61.658h-23.797v-151.443h35.917c24.666,0,35.269,11.465,35.269,34.829v11.898c0,15.581-4.98,25.532-15.58,30.508v0.434
					c11.898,4.974,15.795,16.225,15.795,32.019v23.367c0,7.353,0.217,12.764,2.6,18.389H3232.952z M3206.983-3503.823v46.514h9.311
					c8.868,0,14.278-3.895,14.278-16.008v-14.928c0-10.82-3.681-15.578-12.115-15.578H3206.983z"/>
			</g>
			<linearGradient id="SVGID_7_" gradientUnits="userSpaceOnUse" x1="2469.728" y1="-3293.4531" x2="2407.7434" y2="-3538.6045">
				<stop  offset="0" style="stop-color:#5D9D47"/>
				<stop  offset="1" style="stop-color:#8EBC3F"/>
			</linearGradient>
			<path fill="url(#SVGID_7_)" d="M2436.774-3550.142c-70.104,0-126.937,56.576-126.937,126.37
				c0,69.787,56.832,126.365,126.937,126.365c70.112,0,126.944-56.578,126.944-126.365
				C2563.718-3493.566,2506.886-3550.142,2436.774-3550.142z M2437.242-3346.268v-12.979c-0.82,0.029-1.634,0.058-2.45,0.058
				c-37.295,0-67.53-30.05-67.53-67.118c0-37.074,30.235-67.125,67.53-67.125c37.292,0,67.522,30.051,67.522,67.125
				c0,9.256-1.879,18.077-5.293,26.098l12.646,5.089C2497.86-3366.65,2469.917-3346.559,2437.242-3346.268z"/>
		</g>
	</g>
	<rect x="554.864" y="-1767.258" fill="none" width="285.083" height="192"/>
	<text transform="matrix(1 0 0 1 554.8643 -1758.3545)"><tspan x="0" y="0" fill="#FFFFFF" font-family="'Montserrat-Regular'" font-size="12">- Salvadoran Citizen </tspan><tspan x="0" y="14.4" fill="#FFFFFF" font-family="'Montserrat-Regular'" font-size="12">-GPA: 7.0 (Minimum)  or higher </tspan><tspan x="0" y="28.801" fill="#FFFFFF" font-family="'Montserrat-Regular'" font-size="12">-Command of HTML, CSS, JavaScript </tspan><tspan x="0" y="43.2" fill="#FFFFFF" font-family="'Montserrat-Regular'" font-size="12">-Knowledge of C#/.NET, React/ Redux, and </tspan><tspan x="0" y="57.601" fill="#FFFFFF" font-family="'Montserrat-Regular'" font-size="12">Node.js </tspan><tspan x="0" y="72.001" fill="#FFFFFF" font-family="'Montserrat-Regular'" font-size="12">-Understanding of API design (REST) and </tspan><tspan x="0" y="86.4" fill="#FFFFFF" font-family="'Montserrat-Regular'" font-size="12">software </tspan><tspan x="0" y="100.801" fill="#FFFFFF" font-family="'Montserrat-Regular'" font-size="12">design patterns (MS-MVC) </tspan><tspan x="0" y="115.2" fill="#FFFFFF" font-family="'Montserrat-Regular'" font-size="12">-Knowledge of relational and non relational </tspan><tspan x="0" y="129.601" fill="#FFFFFF" font-family="'Montserrat-Regular'" font-size="12">Databases </tspan><tspan x="0" y="144.001" fill="#FFFFFF" font-family="'Montserrat-Regular'" font-size="12">(MS SQL, Posgres) </tspan></text>
	<rect x="1083.282" y="-1699.258" fill="none" width="302.576" height="316.713"/>
	<text transform="matrix(1 0 0 1 1083.2827 -1682.9277)"><tspan x="0" y="0" fill="#FFFFFF" font-family="'MyriadPro-Semibold'" font-size="23">REQUIREMENTS: </tspan><tspan x="0" y="14.4" fill="#FFFFFF" font-family="'MyriadPro-Semibold'" font-size="12"> </tspan><tspan x="0" y="28.8" fill="#FFFFFF" font-family="'MyriadPro-Semibold'" font-size="12">- Salvadoran Citizen </tspan><tspan x="0" y="43.2" fill="#FFFFFF" font-family="'MyriadPro-Semibold'" font-size="12">-GPA: 7.0 (Minimum)  or higher </tspan><tspan x="0" y="57.601" fill="#FFFFFF" font-family="'MyriadPro-Semibold'" font-size="12">- For Junior Intern: Currently enrolled in 4th or 5th year of: </tspan><tspan x="0" y="72" fill="#FFFFFF" font-family="'MyriadPro-Semibold'" font-size="12">B.S. in Computer Sciences </tspan><tspan x="0" y="86.4" fill="#FFFFFF" font-family="'MyriadPro-Semibold'" font-size="12">-For Senior Intern: Currently enrolled in a Master´s </tspan><tspan x="0" y="100.8" fill="#FFFFFF" font-family="'MyriadPro-Semibold'" font-size="12">Program in Computer Sciences (applicants with a </tspan><tspan x="0" y="115.2" fill="#FFFFFF" font-family="'MyriadPro-Semibold'" font-size="12">Bachelors Degree in CS wanting to outgrow their </tspan><tspan x="0" y="129.601" fill="#FFFFFF" font-family="'MyriadPro-Semibold'" font-size="12">first opportunity are also welcome to apply). </tspan><tspan x="0" y="144" fill="#FFFFFF" font-family="'MyriadPro-Semibold'" font-size="12">-Command of HTML, CSS, JavaScript </tspan><tspan x="0" y="158.4" fill="#FFFFFF" font-family="'MyriadPro-Semibold'" font-size="12">-Knowledge of C#/.NET, React/ Redux, and Node.js </tspan><tspan x="0" y="172.8" fill="#FFFFFF" font-family="'MyriadPro-Semibold'" font-size="12">-Understanding of API design (REST) and software </tspan><tspan x="0" y="187.2" fill="#FFFFFF" font-family="'MyriadPro-Semibold'" font-size="12">design patterns (MS-MVC) </tspan><tspan x="0" y="201.601" fill="#FFFFFF" font-family="'MyriadPro-Semibold'" font-size="12">-Knowledge of relational and non relational Databases </tspan><tspan x="0" y="216" fill="#FFFFFF" font-family="'MyriadPro-Semibold'" font-size="12">(MS SQL, Posgres) </tspan><tspan x="0" y="230.4" fill="#FFFFFF" font-family="'MyriadPro-Semibold'" font-size="12"> </tspan><tspan x="0" y="244.8" fill="#FFFFFF" font-family="'MyriadPro-Semibold'" font-size="12">Other Skills </tspan><tspan x="0" y="259.2" fill="#FFFFFF" font-family="'MyriadPro-Semibold'" font-size="12">-Command of Git. </tspan><tspan x="0" y="273.601" fill="#FFFFFF" font-family="'MyriadPro-Semibold'" font-size="12">-Excellent research and learning skills </tspan><tspan x="0" y="288" fill="#FFFFFF" font-family="'MyriadPro-Semibold'" font-size="12">-Advanced level of English - TOEFL ITP score 550</tspan></text>
	<rect x="935.24" y="-1514.631" fill="none" width="296.084" height="119.796"/>
	<text transform="matrix(1 0 0 1 935.2397 -1505.7275)"><tspan x="0" y="0" fill="#FFFFFF" font-family="'Montserrat-Regular'" font-size="12">Other Skills </tspan><tspan x="0" y="14.4" fill="#FFFFFF" font-family="'Montserrat-Regular'" font-size="12">-Command of Git. </tspan><tspan x="0" y="28.801" fill="#FFFFFF" font-family="'Montserrat-Regular'" font-size="12">-Excellent research and learning skills </tspan><tspan x="0" y="43.2" fill="#FFFFFF" font-family="'Montserrat-Regular'" font-size="12">-Advanced level of English - TOEFL ITP score 550</tspan></text>
	<rect x="760.344" y="-1633.258" fill="none" width="285.083" height="116"/>
	<text transform="matrix(1 0 0 1 760.3433 -1624.3545)"><tspan x="0" y="0" fill="#FFFFFF" font-family="'Montserrat-Regular'" font-size="12">-For Senior Intern: Currently enrolled in a </tspan><tspan x="0" y="14.4" fill="#FFFFFF" font-family="'Montserrat-Regular'" font-size="12">Master´s </tspan><tspan x="0" y="28.801" fill="#FFFFFF" font-family="'Montserrat-Regular'" font-size="12">Program in Computer Sciences (applicants </tspan><tspan x="0" y="43.2" fill="#FFFFFF" font-family="'Montserrat-Regular'" font-size="12">with a </tspan><tspan x="0" y="57.601" fill="#FFFFFF" font-family="'Montserrat-Regular'" font-size="12">Bachelors Degree in CS wanting to outgrow </tspan><tspan x="0" y="72.001" fill="#FFFFFF" font-family="'Montserrat-Regular'" font-size="12">their </tspan><tspan x="0" y="86.4" fill="#FFFFFF" font-family="'Montserrat-Regular'" font-size="12">first opportunity are also welcome to apply).</tspan></text>
	<rect x="985.32" y="-1596.009" fill="none" width="302.576" height="41.502"/>
	<text transform="matrix(1 0 0 1 985.3198 -1587.1045)"><tspan x="0" y="0" fill="#FFFFFF" font-family="'Montserrat-Regular'" font-size="12">- For Junior Intern: Currently enrolled in 4th or 5th </tspan><tspan x="0" y="14.399" fill="#FFFFFF" font-family="'Montserrat-Regular'" font-size="12">year of: </tspan><tspan x="0" y="28.8" fill="#FFFFFF" font-family="'Montserrat-Regular'" font-size="12">B.S. in Computer Sciences</tspan></text>
	<circle fill="#59C8DC" cx="1990.66" cy="-1996.145" r="102.994"/>
	<circle fill="#59C8DC" cx="1986.049" cy="-1740.755" r="102.994"/>
	<circle fill="#59C8DC" cx="1999.919" cy="-1471.907" r="102.994"/>
	<circle fill="#59C8DC" cx="1990.66" cy="-1227.54" r="102.994"/>
	<path fill-rule="evenodd" clip-rule="evenodd" fill="#FFFFFF" d="M1982.654-1214.53c-12.276,9.135-24.553,18.268-37.122,27.619
		c-4.218-7.336-8.229-14.314-12.495-21.734c14.596-6.334,28.757-12.477,43.473-18.861c-14.74-6.391-28.906-12.533-43.478-18.854
		c4.226-7.35,8.245-14.338,12.5-21.736c12.546,9.334,24.816,18.463,38.045,28.305c-1.879-16.232-3.634-31.398-5.423-46.855
		c8.271,0,16.322,0,24.975,0c-1.764,15.338-3.521,30.615-5.389,46.857c13.024-9.693,25.303-18.834,38.023-28.303
		c4.215,7.314,8.274,14.361,12.524,21.734c-14.523,6.295-28.604,12.396-43.478,18.842c14.722,6.391,28.813,12.508,43.456,18.863
		c-4.195,7.311-8.24,14.357-12.487,21.756c-12.634-9.41-24.917-18.561-38.046-28.342c1.862,16.141,3.614,31.313,5.404,46.807
		c-8.384,0-16.519,0-24.976,0c1.783-15.352,3.537-30.461,5.292-45.57C1983.187-1214.179,1982.92-1214.354,1982.654-1214.53z"/>
	<g>
		<path d="M1923.624-1740.755c2.993,0.908,4.329,2.887,4.329,7.163v5.078c0,2.352,1.283,3.688,3.795,3.688h0.535v9.086h-3.955
			c-8.285,0-12.455-4.169-12.455-11.385v-6.734c0-1.604-0.963-2.353-2.299-2.353h-1.764v-9.087h1.764
			c1.336,0,2.299-0.748,2.299-2.353v-6.734c0-7.217,4.17-11.386,12.455-11.386h3.955v9.087h-0.535c-2.512,0-3.795,1.336-3.795,3.688
			v5.078C1927.953-1743.642,1926.617-1741.663,1923.624-1740.755z"/>
		<path d="M1967.826-1765.771v39.662h-11.492v-2.405c-1.764,1.978-4.383,2.939-8.018,2.939c-7.645,0-14.111-5.772-14.111-15.181
			c0-9.407,6.467-15.127,14.111-15.127c3.207,0,5.666,0.802,7.43,2.512v-12.4H1967.826z M1955.959-1740.755
			c0-3.795-2.085-5.719-4.757-5.719c-2.673,0-4.758,1.924-4.758,5.719s2.085,5.773,4.758,5.773
			C1953.875-1734.981,1955.959-1736.96,1955.959-1740.755z"/>
		<path d="M1995.779-1736.639l6.307,6.361c-2.887,3.1-7.002,4.703-12.775,4.703c-10.744,0-17.692-6.468-17.692-15.181
			c0-8.873,7.163-15.127,16.784-15.127c8.499,0,15.875,5.238,15.875,14.967l-19.991,3.849c0.962,1.817,2.779,2.565,5.399,2.565
			C1992.357-1734.501,1993.854-1735.195,1995.779-1736.639z M1983.484-1742.786l9.354-1.816c-0.642-1.818-2.192-3.048-4.384-3.048
			C1985.729-1747.65,1983.858-1746.101,1983.484-1742.786z"/>
		<path d="M2040.087-1755.348l-11.76,29.239h-12.508l-11.76-29.239h12.402l5.879,15.662l6.308-15.662H2040.087z"/>
		<path d="M2060.29-1745.298v9.087h-1.764c-1.337,0-2.298,0.748-2.298,2.353v6.734c0,7.216-4.17,11.385-12.455,11.385h-3.955v-9.086
			h0.533c2.513,0,3.796-1.337,3.796-3.688v-5.078c0-4.276,1.337-6.255,4.329-7.163c-2.992-0.908-4.329-2.887-4.329-7.162v-5.078
			c0-2.353-1.283-3.688-3.796-3.688h-0.533v-9.087h3.955c8.285,0,12.455,4.169,12.455,11.386v6.734c0,1.604,0.961,2.353,2.298,2.353
			H2060.29z"/>
	</g>
	<g>
		<path d="M1919.013-1993.145c2.994,0.908,4.33,2.886,4.33,7.162v5.078c0,2.352,1.283,3.688,3.795,3.688h0.535v9.087h-3.956
			c-8.286,0-12.454-4.17-12.454-11.386v-6.734c0-1.604-0.963-2.353-2.299-2.353h-1.764v-9.087h1.764
			c1.336,0,2.299-0.748,2.299-2.352v-6.735c0-7.217,4.168-11.386,12.454-11.386h3.956v9.087h-0.535
			c-2.512,0-3.795,1.337-3.795,3.689v5.077C1923.343-1996.031,1922.007-1994.054,1919.013-1993.145z"/>
		<path d="M1931.251-2015.916h18.441c12.508,0,21.113,7.109,21.113,18.709c0,11.599-8.605,18.708-21.113,18.708h-18.441V-2015.916z
			 M1949.158-1988.334c5.292,0,8.927-3.153,8.927-8.873s-3.635-8.873-8.927-8.873h-5.291v17.746H1949.158z"/>
		<path d="M2009.181-1980.958c-3.955,2.031-9.942,3.314-15.822,3.314c-12.936,0-19.617-4.864-19.617-11.652
			c0-3.742,2.084-6.896,5.88-8.553c-2.887-1.604-4.329-4.276-4.329-7.27c0-6.094,5.826-11.653,18.814-11.653
			c5.186,0,10.264,0.963,14.006,2.459l-3.422,9.194c-3.581-1.443-6.842-2.031-10.103-2.031c-4.597,0-6.575,1.122-6.575,2.833
			c0,1.39,0.855,2.299,3.475,2.299h10.959v9.301h-11.814c-2.886,0-4.168,1.016-4.168,2.565c0,1.71,2.031,2.887,7.375,2.887
			c3.689,0,8.34-1.069,11.654-2.833L2009.181-1980.958z"/>
		<path d="M2052.528-2015.916l-15.821,37.417h-12.402l-15.822-37.417h13.578l8.926,21.862l9.141-21.862H2052.528z"/>
		<path d="M2074.119-1997.688v9.087h-1.764c-1.336,0-2.299,0.748-2.299,2.353v6.734c0,7.216-4.169,11.386-12.454,11.386h-3.956
			v-9.087h0.535c2.512,0,3.795-1.337,3.795-3.688v-5.078c0-4.276,1.336-6.254,4.33-7.162c-2.994-0.909-4.33-2.887-4.33-7.163v-5.077
			c0-2.353-1.283-3.689-3.795-3.689h-0.535v-9.087h3.956c8.285,0,12.454,4.169,12.454,11.386v6.735c0,1.604,0.963,2.352,2.299,2.352
			H2074.119z"/>
	</g>
	<g>
		<g>
			<g>
				<path fill="#FFFFFF" d="M1075.443,158.305h-7.623v25.563h7.623c7.623,0,12.858-4.542,12.858-12.781
					C1088.301,162.848,1083.066,158.305,1075.443,158.305z"/>
			</g>
			<g>
				<g>
					<path fill="#FFFFFF" d="M1135.223,24.258c-81.938,0-148.359,66.423-148.359,148.359c0,81.938,66.422,148.358,148.359,148.358
						s148.358-66.421,148.358-148.358C1283.582,90.681,1217.161,24.258,1135.223,24.258z M1044.494,153.992h-0.771
						c-3.618,0-5.467,1.926-5.467,5.314v7.313c0,6.159-1.924,9.009-6.237,10.317c4.313,1.309,6.237,4.157,6.237,10.317v7.314
						c0,3.388,1.849,5.313,5.467,5.313h0.771v13.09h-5.697c-11.936,0-17.94-6.008-17.94-16.401v-9.7
						c0-2.312-1.387-3.389-3.312-3.389h-2.54v-13.09h2.54c1.925,0,3.312-1.078,3.312-3.387v-9.703c0-10.395,6.005-16.4,17.94-16.4
						h5.697V153.992z M1076.212,198.034h-26.564v-53.897h26.564c18.017,0,30.414,10.24,30.414,26.949
						C1106.626,187.793,1094.229,198.034,1076.212,198.034z M1139.111,199.267c-18.633,0-28.258-7.007-28.258-16.784
						c0-5.391,3.004-9.934,8.472-12.32c-4.158-2.311-6.237-6.16-6.237-10.472c0-8.778,8.393-16.786,27.103-16.786
						c7.468,0,14.783,1.387,20.174,3.542l-4.928,13.244c-5.158-2.079-9.856-2.926-14.553-2.926c-6.622,0-9.471,1.616-9.471,4.081
						c0,2.002,1.231,3.311,5.005,3.311h15.784v13.398h-17.017c-4.157,0-6.005,1.463-6.005,3.695c0,2.463,2.926,4.158,10.624,4.158
						c5.313,0,12.012-1.541,16.786-4.081l5.313,13.165C1156.206,197.418,1147.583,199.267,1139.111,199.267z M1201.551,198.034
						h-17.863l-22.791-53.897h19.557l12.859,31.492l13.166-31.492h17.864L1201.551,198.034z M1252.902,183.482
						c-1.925,0-3.311,1.077-3.311,3.389v9.7c0,10.394-6.005,16.401-17.939,16.401h-5.698v-13.09h0.77
						c3.619,0,5.466-1.926,5.466-5.313v-7.314c0-6.16,1.926-9.009,6.238-10.317c-4.313-1.309-6.238-4.158-6.238-10.317v-7.313
						c0-3.389-1.847-5.314-5.466-5.314h-0.77v-13.09h5.698c11.935,0,17.939,6.006,17.939,16.4v9.703
						c0,2.309,1.386,3.387,3.311,3.387h2.54v13.09H1252.902z"/>
				</g>
			</g>
		</g>
	</g>
	<g>
		<path fill-rule="evenodd" clip-rule="evenodd" fill="#231F20" d="M1988.301-1411.335c-14.174,0-28.347,0.006-42.521-0.004
			c-4.664-0.004-6.451-1.828-6.451-6.541c-0.003-35.934-0.004-71.867,0-107.801c0-4.914,1.863-6.799,6.778-6.801
			c28.188-0.01,56.377-0.014,84.564-0.008c5.014,0.002,7.127,2.473,6.879,7.432c-0.227,4.52-0.08,9.059-0.125,13.59
			c-0.013,1.182,0.65,1.762,1.596,2.295c7.94,4.48,14.143,10.697,17.813,19.072c6.497,14.82,4.273,28.563-5.768,41.119
			c-3.062,3.828-6.776,6.963-11.05,9.32c-1.961,1.082-2.634,2.463-2.613,4.549c0.055,5.215,0.018,10.432,0.016,15.648
			c-0.001,0.896,0.013,1.791-0.016,2.688c-0.109,3.387-2.068,5.402-5.479,5.422c-9.168,0.049-18.335,0.025-27.503,0.029
			c-5.374,0.002-10.749,0-16.122,0C1988.301-1411.329,1988.301-1411.333,1988.301-1411.335z M1950.085-1471.87
			c0,15.705,0,31.41,0,47.117c0,2.496,0.12,2.633,2.555,2.637c6.693,0.01,13.387,0.01,20.08,0.01
			c17.181,0.002,34.362,0.006,51.543,0.002c2.131,0,2.372-0.246,2.38-2.361c0.011-2.584,0.016-5.166-0.014-7.748
			c-0.023-2.123-0.448-2.469-2.593-2.143c-2.1,0.32-4.229,0.35-6.307,0.107c-11.235-1.305-20.689-6.137-27.76-15.018
			c-9.419-11.83-12.094-24.92-6.309-39.242c6.028-14.93,22.291-27.436,41.269-25.137c1.164,0.141,1.676-0.383,1.687-1.502
			c0.013-1.264,0.036-2.529,0.03-3.795c-0.01-2.641-0.143-2.779-2.768-2.779c-23.611-0.004-47.223-0.004-70.833,0.002
			c-2.904,0-2.962,0.059-2.963,2.891C1950.08-1503.177,1950.082-1487.524,1950.085-1471.87z M2020.584-1503.118
			c-16.246-0.193-28.403,11.633-29.061,27.582c-0.705,17.104,11.324,30.709,29.339,30.512c16.208-0.176,28.623-11.379,28.799-28.832
			C2049.835-1490.95,2037.667-1503.083,2020.584-1503.118z"/>
		<path fill-rule="evenodd" clip-rule="evenodd" fill="#231F20" d="M1999.858-1478.728c1.558-0.018,2.857,0.545,3.958,1.658
			c2.593,2.619,5.202,5.223,7.82,7.818c1.438,1.426,1.608,1.428,3.045-0.006c6.747-6.734,13.493-13.467,20.216-20.225
			c1.211-1.219,2.533-1.928,4.314-1.936c2.124-0.008,3.671,0.834,4.67,2.65c0.995,1.813,0.939,3.656-0.183,5.396
			c-0.451,0.701-1.031,1.332-1.623,1.926c-8.108,8.127-16.226,16.246-24.349,24.357c-3.139,3.133-6.006,3.143-9.152,0.008
			c-4.178-4.162-8.36-8.32-12.477-12.545c-1.577-1.619-2.191-3.553-1.184-5.787
			C1995.848-1477.481,1997.635-1478.716,1999.858-1478.728z"/>
	</g>
	<path fill="#59C8DC" d="M2319.166-1997.207c0-5.72-3.635-8.873-8.926-8.873h-5.292v17.746h5.292
		C2315.531-1988.334,2319.166-1991.487,2319.166-1997.207z"/>
	<path fill="#59C8DC" d="M2351.741-1890.15c56.882,0,102.995-46.111,102.995-102.994c0-56.882-46.113-102.994-102.995-102.994
		s-102.994,46.112-102.994,102.994C2248.747-1936.262,2294.859-1890.15,2351.741-1890.15z M2414.728-1977.216h0.534
		c2.513,0,3.796-1.337,3.796-3.688v-5.078c0-4.276,1.336-6.254,4.33-7.162c-2.994-0.909-4.33-2.887-4.33-7.163v-5.077
		c0-2.353-1.283-3.689-3.796-3.689h-0.534v-9.087h3.955c8.285,0,12.455,4.169,12.455,11.386v6.735c0,1.604,0.962,2.352,2.299,2.352
		h1.764v9.087h-1.764c-1.337,0-2.299,0.748-2.299,2.353v6.734c0,7.216-4.17,11.386-12.455,11.386h-3.955V-1977.216z
		 M2383.141-2015.916l8.927,21.862l9.141-21.862h12.4l-15.821,37.417h-12.401l-15.822-37.417H2383.141z M2336.374-2005.118
		c0-6.094,5.827-11.653,18.815-11.653c5.185,0,10.264,0.963,14.005,2.459l-3.421,9.194c-3.582-1.443-6.842-2.031-10.104-2.031
		c-4.596,0-6.574,1.122-6.574,2.833c0,1.39,0.855,2.299,3.475,2.299h10.958v9.301h-11.813c-2.887,0-4.169,1.016-4.169,2.565
		c0,1.71,2.031,2.887,7.376,2.887c3.688,0,8.339-1.069,11.653-2.833l3.688,9.14c-3.956,2.031-9.943,3.314-15.822,3.314
		c-12.936,0-19.617-4.864-19.617-11.652c0-3.742,2.084-6.896,5.879-8.553C2337.816-1999.452,2336.374-2002.125,2336.374-2005.118z
		 M2292.333-2015.916h18.44c12.509,0,21.114,7.109,21.114,18.709c0,11.599-8.605,18.708-21.114,18.708h-18.44V-2015.916z
		 M2272.344-1979.515v-6.734c0-1.604-0.962-2.353-2.298-2.353h-1.765v-9.087h1.765c1.336,0,2.298-0.748,2.298-2.352v-6.735
		c0-7.217,4.169-11.386,12.454-11.386h3.956v9.087h-0.534c-2.513,0-3.795,1.337-3.795,3.689v5.077c0,4.276-1.337,6.254-4.33,7.163
		c2.993,0.908,4.33,2.886,4.33,7.162v5.078c0,2.352,1.282,3.688,3.795,3.688h0.534v9.087h-3.956
		C2276.513-1968.129,2272.344-1972.299,2272.344-1979.515z"/>
	<path fill="#59C8DC" d="M2347.13-1637.761c56.883,0,102.995-46.111,102.995-102.994c0-56.882-46.112-102.994-102.995-102.994
		c-56.882,0-102.994,46.112-102.994,102.994C2244.136-1683.872,2290.249-1637.761,2347.13-1637.761z M2400.899-1765.771h3.955
		c8.286,0,12.455,4.169,12.455,11.386v6.734c0,1.604,0.962,2.353,2.298,2.353h1.764v9.087h-1.764c-1.336,0-2.298,0.748-2.298,2.353
		v6.734c0,7.216-4.169,11.385-12.455,11.385h-3.955v-9.086h0.534c2.512,0,3.795-1.337,3.795-3.688v-5.078
		c0-4.276,1.337-6.255,4.33-7.163c-2.993-0.908-4.33-2.887-4.33-7.162v-5.078c0-2.353-1.283-3.688-3.795-3.688h-0.534V-1765.771z
		 M2377.543-1755.348l5.88,15.662l6.307-15.662h11.439l-11.76,29.239h-12.508l-11.76-29.239H2377.543z M2349.483-1755.882
		c8.499,0,15.876,5.238,15.876,14.967l-19.992,3.849c0.963,1.817,2.779,2.565,5.399,2.565c2.673,0,4.169-0.694,6.094-2.138
		l6.308,6.361c-2.887,3.1-7.002,4.703-12.775,4.703c-10.744,0-17.693-6.468-17.693-15.181
		C2332.699-1749.628,2339.862-1755.882,2349.483-1755.882z M2309.398-1755.882c3.207,0,5.666,0.802,7.43,2.512v-12.4h12.08v39.662
		h-11.492v-2.405c-1.764,1.978-4.383,2.939-8.018,2.939c-7.645,0-14.112-5.772-14.112-15.181
		C2295.286-1750.162,2301.753-1755.882,2309.398-1755.882z M2272.892-1745.298h1.764c1.336,0,2.299-0.748,2.299-2.353v-6.734
		c0-7.217,4.169-11.386,12.454-11.386h3.956v9.087h-0.535c-2.512,0-3.795,1.336-3.795,3.688v5.078c0,4.275-1.336,6.254-4.33,7.162
		c2.994,0.908,4.33,2.887,4.33,7.163v5.078c0,2.352,1.283,3.688,3.795,3.688h0.535v9.086h-3.956
		c-8.285,0-12.454-4.169-12.454-11.385v-6.734c0-1.604-0.963-2.353-2.299-2.353h-1.764V-1745.298z"/>
	<path fill="#59C8DC" d="M2312.284-1734.981c2.673,0,4.757-1.979,4.757-5.773s-2.084-5.719-4.757-5.719s-4.757,1.924-4.757,5.719
		S2309.611-1734.981,2312.284-1734.981z"/>
	<path fill="#59C8DC" d="M2349.537-1747.65c-2.727,0-4.598,1.55-4.971,4.864l9.354-1.816
		C2353.279-1746.421,2351.728-1747.65,2349.537-1747.65z"/>
	<g>
		<path fill="#FFFFFF" d="M1604.397,320.976c81.936,0,148.358-66.422,148.358-148.359c0-81.936-66.423-148.358-148.358-148.358
			c-81.938,0-148.359,66.423-148.359,148.358C1456.038,254.554,1522.459,320.976,1604.397,320.976z M1681.846,136.583h5.697
			c11.935,0,17.941,6.005,17.941,16.4v9.701c0,2.311,1.386,3.389,3.312,3.389h2.54v13.089h-2.54c-1.926,0-3.312,1.077-3.312,3.389
			v9.7c0,10.395-6.007,16.399-17.941,16.399h-5.697v-13.088h0.77c3.62,0,5.468-1.926,5.468-5.313v-7.314
			c0-6.16,1.925-9.01,6.236-10.318c-4.312-1.308-6.236-4.158-6.236-10.316v-7.314c0-3.389-1.848-5.313-5.468-5.313h-0.77V136.583z
			 M1648.204,151.597l8.469,22.561l9.087-22.561h16.477l-16.939,42.117h-18.017l-16.939-42.117H1648.204z M1607.784,150.827
			c12.244,0,22.867,7.545,22.867,21.559l-28.795,5.544c1.384,2.618,4.004,3.695,7.776,3.695c3.85,0,6.007-1,8.777-3.079l9.085,9.163
			c-4.157,4.465-10.086,6.774-18.401,6.774c-15.477,0-25.484-9.316-25.484-21.867
			C1583.609,159.835,1593.925,150.827,1607.784,150.827z M1550.042,150.827c4.62,0,8.162,1.154,10.702,3.617v-17.861h17.402v57.131
			h-16.556v-3.465c-2.54,2.85-6.313,4.234-11.549,4.234c-11.01,0-20.326-8.314-20.326-21.867
			C1529.715,159.065,1539.032,150.827,1550.042,150.827z M1497.457,166.073h2.542c1.925,0,3.31-1.078,3.31-3.389v-9.701
			c0-10.396,6.007-16.4,17.941-16.4h5.697v13.089h-0.77c-3.619,0-5.467,1.925-5.467,5.313v7.314c0,6.158-1.926,9.009-6.235,10.316
			c4.31,1.309,6.235,4.158,6.235,10.318v7.314c0,3.388,1.848,5.313,5.467,5.313h0.77v13.088h-5.697
			c-11.935,0-17.941-6.005-17.941-16.399v-9.7c0-2.312-1.385-3.389-3.31-3.389h-2.542V166.073z"/>
		<path fill="#FFFFFF" d="M1554.2,180.933c3.851,0,6.854-2.85,6.854-8.316c0-5.466-3.003-8.237-6.854-8.237
			c-3.849,0-6.852,2.771-6.852,8.237C1547.348,178.083,1550.351,180.933,1554.2,180.933z"/>
		<path fill="#FFFFFF" d="M1607.861,162.685c-3.926,0-6.621,2.232-7.161,7.006l13.477-2.616
			C1613.25,164.455,1611.018,162.685,1607.861,162.685z"/>
	</g>
	<path fill="#59C8DC" d="M2361.001-1574.901c-56.883,0-102.994,46.112-102.994,102.994c0,56.883,46.111,102.994,102.994,102.994
		s102.994-46.111,102.994-102.994C2463.996-1528.789,2417.884-1574.901,2361.001-1574.901z M2412.15-1448.981
		c-3.063,3.828-6.777,6.963-11.051,9.32c-1.961,1.082-2.633,2.463-2.613,4.549c0.055,5.215,0.018,10.432,0.016,15.648
		c0,0.896,0.014,1.791-0.016,2.688c-0.109,3.387-2.068,5.402-5.479,5.422c-9.168,0.049-18.334,0.025-27.502,0.029
		c-5.375,0.002-10.75,0-16.123,0c0-0.004,0-0.008,0-0.01c-14.174,0-28.347,0.006-42.52-0.004c-4.665-0.004-6.451-1.828-6.452-6.541
		c-0.003-35.934-0.003-71.867,0-107.801c0.001-4.914,1.864-6.799,6.778-6.801c28.188-0.01,56.377-0.014,84.564-0.008
		c5.014,0.002,7.127,2.473,6.879,7.432c-0.227,4.52-0.08,9.059-0.125,13.59c-0.012,1.182,0.65,1.762,1.596,2.295
		c7.941,4.48,14.143,10.697,17.814,19.072C2424.414-1475.28,2422.191-1461.538,2412.15-1448.981z"/>
	<path fill="#59C8DC" d="M2381.666-1503.118c-16.246-0.193-28.402,11.633-29.061,27.582c-0.705,17.104,11.324,30.709,29.34,30.512
		c16.207-0.176,28.623-11.379,28.799-28.832C2410.917-1490.95,2398.748-1503.083,2381.666-1503.118z M2404.962-1488.767
		c0.996,1.813,0.939,3.656-0.182,5.396c-0.451,0.701-1.031,1.332-1.623,1.926c-8.109,8.127-16.227,16.246-24.35,24.357
		c-3.139,3.133-6.006,3.143-9.152,0.008c-4.178-4.162-8.359-8.32-12.477-12.545c-1.576-1.619-2.191-3.553-1.184-5.787
		c0.934-2.07,2.721-3.305,4.943-3.316c1.559-0.018,2.857,0.545,3.959,1.658c2.592,2.619,5.201,5.223,7.82,7.818
		c1.438,1.426,1.607,1.428,3.045-0.006c6.746-6.734,13.492-13.467,20.215-20.225c1.211-1.219,2.533-1.928,4.314-1.936
		C2402.417-1491.425,2403.964-1490.583,2404.962-1488.767z"/>
	<path fill="#59C8DC" d="M2385.119-1434.356c-2.1,0.32-4.229,0.35-6.307,0.107c-11.236-1.305-20.689-6.137-27.76-15.018
		c-9.42-11.83-12.094-24.92-6.31-39.242c6.028-14.93,22.292-27.436,41.269-25.137c1.164,0.141,1.676-0.383,1.688-1.502
		c0.012-1.264,0.035-2.529,0.029-3.795c-0.01-2.641-0.143-2.779-2.768-2.779c-23.611-0.004-47.223-0.004-70.833,0.002
		c-2.903,0-2.962,0.059-2.962,2.891c-0.005,15.652-0.002,31.305,0.002,46.959c0,15.705,0,31.41,0,47.117
		c0,2.496,0.119,2.633,2.555,2.637c6.693,0.01,13.386,0.01,20.079,0.01c17.181,0.002,34.362,0.006,51.544,0.002
		c2.131,0,2.371-0.246,2.379-2.361c0.012-2.584,0.016-5.166-0.014-7.748C2387.687-1434.337,2387.263-1434.683,2385.119-1434.356z"/>
	<g>
		<path fill="#FFFFFF" d="M2073.571,24.259c-81.938,0-148.359,66.422-148.359,148.358c0,81.938,66.422,148.358,148.359,148.358
			c81.937,0,148.358-66.421,148.358-148.358C2221.929,90.681,2155.507,24.259,2073.571,24.259z M2147.248,205.641
			c-4.411,5.515-9.763,10.03-15.918,13.426c-2.825,1.559-3.793,3.548-3.765,6.552c0.079,7.512,0.025,15.027,0.022,22.541
			c0,1.292,0.02,2.58-0.022,3.871c-0.157,4.879-2.979,7.783-7.892,7.811c-13.206,0.07-26.409,0.037-39.615,0.043
			c-7.742,0.002-15.485,0-23.225,0c0-0.006,0-0.012,0-0.015c-20.417,0-40.832,0.009-61.248-0.006
			c-6.72-0.005-9.292-2.634-9.294-9.422c-0.004-51.761-0.004-103.522,0-155.282c0.002-7.078,2.686-9.794,9.765-9.797
			c40.604-0.014,81.208-0.02,121.812-0.011c7.222,0.003,10.266,3.562,9.908,10.704c-0.326,6.511-0.115,13.049-0.18,19.576
			c-0.017,1.702,0.937,2.537,2.299,3.306c11.438,6.454,20.371,15.409,25.66,27.474
			C2164.913,167.759,2161.711,187.554,2147.248,205.641z"/>
		<path fill="#FFFFFF" d="M2103.336,127.659c-23.402-0.278-40.913,16.756-41.86,39.73c-1.016,24.637,16.312,44.235,42.263,43.951
			c23.346-0.254,41.229-16.391,41.483-41.531C2145.472,145.187,2127.942,127.71,2103.336,127.659z M2136.894,148.332
			c1.436,2.61,1.354,5.267-0.262,7.773c-0.649,1.01-1.485,1.919-2.338,2.774c-11.681,11.706-23.373,23.401-35.074,35.086
			c-4.521,4.512-8.651,4.526-13.184,0.011c-6.018-5.995-12.041-11.985-17.972-18.07c-2.271-2.333-3.157-5.118-1.705-8.337
			c1.345-2.981,3.919-4.76,7.12-4.776c2.245-0.025,4.116,0.784,5.703,2.389c3.733,3.772,7.492,7.522,11.265,11.262
			c2.071,2.054,2.315,2.057,4.387-0.009c9.717-9.7,19.435-19.398,29.118-29.133c1.744-1.755,3.649-2.776,6.215-2.787
			C2133.228,144.503,2135.457,145.716,2136.894,148.332z"/>
		<path fill="#FFFFFF" d="M2108.31,226.708c-3.024,0.461-6.091,0.503-9.084,0.154c-16.186-1.879-29.803-8.84-39.987-21.633
			c-13.568-17.04-17.42-35.896-9.089-56.526c8.684-21.505,32.111-39.52,59.446-36.208c1.677,0.203,2.414-0.552,2.431-2.164
			c0.017-1.82,0.051-3.643,0.042-5.466c-0.014-3.804-0.205-4.003-3.986-4.003c-34.012-0.006-68.022-0.006-102.032,0.002
			c-4.182,0-4.267,0.084-4.267,4.164c-0.007,22.547-0.003,45.093,0.003,67.643c0,22.622,0,45.244,0,67.87
			c0,3.596,0.172,3.792,3.68,3.798c9.642,0.014,19.282,0.014,28.924,0.014c24.748,0.004,49.497,0.01,74.246,0.004
			c3.069,0,3.416-0.355,3.427-3.402c0.018-3.722,0.022-7.441-0.02-11.16C2112.01,226.735,2111.399,226.237,2108.31,226.708z"/>
	</g>
	<path fill="#FFFFFF" d="M666.048,24.258c-81.936,0-148.358,66.423-148.358,148.358c0,81.938,66.423,148.359,148.358,148.359
		c81.938,0,148.36-66.422,148.36-148.359C814.408,90.681,747.986,24.258,666.048,24.258z M749.029,199.821
		c-6.043,10.531-11.869,20.682-17.986,31.339c-18.199-13.555-35.893-26.735-54.805-40.825c2.684,23.25,5.207,45.104,7.785,67.424
		c-12.076,0-23.794,0-35.976,0c2.568-22.113,5.095-43.879,7.623-65.643c-0.385-0.254-0.769-0.506-1.152-0.76
		c-17.684,13.158-35.367,26.313-53.473,39.784c-6.076-10.567-11.854-20.619-17.999-31.308c21.024-9.123,41.423-17.972,62.621-27.169
		c-21.233-9.205-41.639-18.054-62.628-27.157c6.087-10.587,11.877-20.653,18.006-31.311c18.071,13.445,35.747,26.596,54.802,40.771
		c-2.706-23.382-5.234-45.229-7.812-67.493c11.913,0,23.511,0,35.976,0c-2.541,22.094-5.072,44.101-7.764,67.496
		c18.762-13.963,36.447-27.13,54.771-40.769c6.072,10.536,11.92,20.687,18.041,31.307c-20.92,9.068-41.201,17.857-62.627,27.142
		C707.638,181.855,727.935,190.667,749.029,199.821z"/>
	<path fill="#FFFFFF" d="M2396.845-1268.093c-12.721,9.469-25,18.609-38.023,28.303c1.867-16.242,3.625-31.52,5.389-46.857
		c-8.652,0-16.705,0-24.975,0c1.789,15.457,3.543,30.623,5.422,46.855c-13.229-9.842-25.498-18.971-38.045-28.305
		c-4.254,7.398-8.273,14.387-12.5,21.736c14.572,6.32,28.738,12.463,43.479,18.854c-14.717,6.385-28.877,12.527-43.473,18.861
		c4.266,7.42,8.277,14.398,12.494,21.734c12.57-9.352,24.846-18.484,37.123-27.619c0.266,0.176,0.533,0.352,0.799,0.527
		c-1.754,15.109-3.508,30.219-5.291,45.57c8.457,0,16.592,0,24.975,0c-1.789-15.494-3.541-30.666-5.404-46.807
		c13.129,9.781,25.412,18.932,38.047,28.342c4.246-7.398,8.291-14.445,12.486-21.756c-14.643-6.355-28.734-12.473-43.455-18.863
		c14.873-6.445,28.953-12.547,43.477-18.842C2405.119-1253.731,2401.06-1260.778,2396.845-1268.093z"/>
	<path d="M2276.955-1733.858v6.734c0,7.216,4.169,11.385,12.454,11.385h3.956v-9.086h-0.535c-2.512,0-3.795-1.337-3.795-3.688
		v-5.078c0-4.276-1.336-6.255-4.33-7.163c2.994-0.908,4.33-2.887,4.33-7.162v-5.078c0-2.353,1.283-3.688,3.795-3.688h0.535v-9.087
		h-3.956c-8.285,0-12.454,4.169-12.454,11.386v6.734c0,1.604-0.963,2.353-2.299,2.353h-1.764v9.087h1.764
		C2275.992-1736.211,2276.955-1735.463,2276.955-1733.858z"/>
	<path d="M2309.398-1725.574c3.635,0,6.254-0.962,8.018-2.939v2.405h11.492v-39.662h-12.08v12.4c-1.764-1.71-4.223-2.512-7.43-2.512
		c-7.645,0-14.112,5.72-14.112,15.127C2295.286-1731.347,2301.753-1725.574,2309.398-1725.574z M2312.284-1746.474
		c2.673,0,4.757,1.924,4.757,5.719s-2.084,5.773-4.757,5.773s-4.757-1.979-4.757-5.773S2309.611-1746.474,2312.284-1746.474z"/>
	<path d="M2350.392-1725.574c5.773,0,9.889-1.604,12.775-4.703l-6.308-6.361c-1.925,1.443-3.421,2.138-6.094,2.138
		c-2.62,0-4.437-0.748-5.399-2.565l19.992-3.849c0-9.729-7.377-14.967-15.876-14.967c-9.621,0-16.784,6.254-16.784,15.127
		C2332.699-1732.042,2339.648-1725.574,2350.392-1725.574z M2349.537-1747.65c2.191,0,3.742,1.229,4.383,3.048l-9.354,1.816
		C2344.939-1746.101,2346.81-1747.65,2349.537-1747.65z"/>
	<polygon points="2389.41,-1726.108 2401.169,-1755.348 2389.73,-1755.348 2383.423,-1739.686 2377.543,-1755.348 
		2365.142,-1755.348 2376.902,-1726.108 	"/>
	<path d="M2405.228-1752.995v5.078c0,4.275,1.337,6.254,4.33,7.162c-2.993,0.908-4.33,2.887-4.33,7.163v5.078
		c0,2.352-1.283,3.688-3.795,3.688h-0.534v9.086h3.955c8.286,0,12.455-4.169,12.455-11.385v-6.734c0-1.604,0.962-2.353,2.298-2.353
		h1.764v-9.087h-1.764c-1.336,0-2.298-0.748-2.298-2.353v-6.734c0-7.217-4.169-11.386-12.455-11.386h-3.955v9.087h0.534
		C2403.945-1756.684,2405.228-1755.348,2405.228-1752.995z"/>
	<path d="M2288.754-1968.129v-9.087h-0.534c-2.513,0-3.795-1.337-3.795-3.688v-5.078c0-4.276-1.337-6.254-4.33-7.162
		c2.993-0.909,4.33-2.887,4.33-7.163v-5.077c0-2.353,1.282-3.689,3.795-3.689h0.534v-9.087h-3.956
		c-8.285,0-12.454,4.169-12.454,11.386v6.735c0,1.604-0.962,2.352-2.298,2.352h-1.765v9.087h1.765c1.336,0,2.298,0.748,2.298,2.353
		v6.734c0,7.216,4.169,11.386,12.454,11.386H2288.754z"/>
	<path d="M2331.888-1997.207c0-11.6-8.605-18.709-21.114-18.709h-18.44v37.417h18.44
		C2323.283-1978.499,2331.888-1985.608,2331.888-1997.207z M2304.948-1988.334v-17.746h5.292c5.291,0,8.926,3.153,8.926,8.873
		s-3.635,8.873-8.926,8.873H2304.948z"/>
	<path d="M2334.824-1989.296c0,6.788,6.682,11.652,19.617,11.652c5.879,0,11.866-1.283,15.822-3.314l-3.688-9.14
		c-3.314,1.764-7.965,2.833-11.653,2.833c-5.345,0-7.376-1.177-7.376-2.887c0-1.55,1.282-2.565,4.169-2.565h11.813v-9.301h-10.958
		c-2.619,0-3.475-0.909-3.475-2.299c0-1.711,1.979-2.833,6.574-2.833c3.262,0,6.521,0.588,10.104,2.031l3.421-9.194
		c-3.741-1.496-8.82-2.459-14.005-2.459c-12.988,0-18.815,5.56-18.815,11.653c0,2.993,1.442,5.666,4.329,7.27
		C2336.908-1996.191,2334.824-1993.038,2334.824-1989.296z"/>
	<polygon points="2397.788,-1978.499 2413.609,-2015.916 2401.208,-2015.916 2392.068,-1994.054 2383.141,-2015.916 
		2369.564,-2015.916 2385.386,-1978.499 	"/>
	<path fill="#231F20" d="M2400.103-1509.173c-0.945-0.533-1.607-1.113-1.596-2.295c0.045-4.531-0.102-9.07,0.125-13.59
		c0.248-4.959-1.865-7.43-6.879-7.432c-28.188-0.006-56.376-0.002-84.564,0.008c-4.914,0.002-6.777,1.887-6.778,6.801
		c-0.003,35.934-0.003,71.867,0,107.801c0.001,4.713,1.787,6.537,6.452,6.541c14.173,0.01,28.346,0.004,42.52,0.004
		c0,0.002,0,0.006,0,0.01c5.373,0,10.748,0.002,16.123,0c9.168-0.004,18.334,0.02,27.502-0.029c3.41-0.02,5.369-2.035,5.479-5.422
		c0.029-0.896,0.016-1.791,0.016-2.688c0.002-5.217,0.039-10.434-0.016-15.648c-0.02-2.086,0.652-3.467,2.613-4.549
		c4.273-2.357,7.988-5.492,11.051-9.32c10.041-12.557,12.264-26.299,5.768-41.119
		C2414.246-1498.476,2408.044-1504.692,2400.103-1509.173z M2385.345-1422.104c-17.182,0.004-34.363,0-51.544-0.002
		c-6.693,0-13.386,0-20.079-0.01c-2.436-0.004-2.555-0.141-2.555-2.637c0-15.707,0-31.412,0-47.117
		c-0.004-15.654-0.007-31.307-0.002-46.959c0-2.832,0.059-2.891,2.962-2.891c23.61-0.006,47.222-0.006,70.833-0.002
		c2.625,0,2.758,0.139,2.768,2.779c0.006,1.266-0.018,2.531-0.029,3.795c-0.012,1.119-0.523,1.643-1.688,1.502
		c-18.977-2.299-35.24,10.207-41.269,25.137c-5.784,14.322-3.11,27.412,6.31,39.242c7.07,8.881,16.523,13.713,27.76,15.018
		c2.078,0.242,4.207,0.213,6.307-0.107c2.145-0.326,2.568,0.02,2.592,2.143c0.029,2.582,0.025,5.164,0.014,7.748
		C2387.716-1422.351,2387.476-1422.104,2385.345-1422.104z M2381.945-1445.024c-18.016,0.197-30.045-13.408-29.34-30.512
		c0.658-15.949,12.814-27.775,29.061-27.582c17.082,0.035,29.252,12.168,29.078,29.262
		C2410.568-1456.403,2398.152-1445.2,2381.945-1445.024z"/>
	<path fill="#231F20" d="M2395.978-1489.481c-6.723,6.758-13.469,13.49-20.215,20.225c-1.438,1.434-1.607,1.432-3.045,0.006
		c-2.619-2.596-5.229-5.199-7.82-7.818c-1.102-1.113-2.4-1.676-3.959-1.658c-2.223,0.012-4.01,1.246-4.943,3.316
		c-1.008,2.234-0.393,4.168,1.184,5.787c4.117,4.225,8.299,8.383,12.477,12.545c3.146,3.135,6.014,3.125,9.152-0.008
		c8.123-8.111,16.24-16.23,24.35-24.357c0.592-0.594,1.172-1.225,1.623-1.926c1.121-1.74,1.178-3.584,0.182-5.396
		c-0.998-1.816-2.545-2.658-4.67-2.65C2398.511-1491.409,2397.189-1490.7,2395.978-1489.481z"/>
	<path fill="#003464" d="M-296.556,0c-95.334,0-172.617,77.283-172.617,172.617s77.283,172.617,172.617,172.617
		c95.333,0,172.617-77.283,172.617-172.617S-201.223,0-296.556,0z M-275.714,111.929c5.569-4.931,14.081-4.384,19.073,1.224
		c4.982,5.599,4.5,14.045-1.09,19.062c-5.622,5.044-14.171,4.565-19.197-1.076C-281.91,125.547-281.365,116.932-275.714,111.929z
		 M-318.133,125.108c19.276,0,34.903,15.627,34.903,34.902c0,19.276-15.626,34.902-34.903,34.902
		c-19.276,0-34.903-15.626-34.903-34.902C-353.036,140.735-337.409,125.108-318.133,125.108z M-405.038,266.491
		c13.993-31.979,47.628-54.515,86.905-54.515c39.277,0,72.913,22.536,86.906,54.515H-405.038z M-228.553,128.396
		c-0.195,3.028-1.958,5.197-4.671,5.923c-2.653,0.709-5.508-0.188-6.865-2.665c-0.758-1.386-1.056-3.208-1.008-4.816
		c0.243-8.291-2.291-15.551-7.954-21.574c-5.164-5.492-11.626-8.511-19.176-9.072c-2.666-0.197-4.644-1.399-5.722-3.852
		c-1.899-4.319,1.325-9.04,6.101-8.791c9.044,0.473,17.089,3.654,24.095,9.389c1.672,1.368,3.184,2.934,4.205,3.882
		C-231.346,106.319-227.793,116.633-228.553,128.396z M-208.596,128.933c-0.208,2.902-1.459,5.049-4.273,6.079
		c-2.43,0.89-5.057,0.187-7-1.981c-1.236-1.32-1.498-3.183-1.375-5.223c0.627-10.453-1.711-20.207-7.422-28.997
		c-8.844-13.61-21.464-21.046-37.638-22.525c-1.464-0.134-3.071-0.564-4.267-1.369c-2.425-1.63-3.132-4.538-2.151-7.183
		c0.938-2.526,3.372-4.266,6.179-4.076c2.896,0.195,5.808,0.496,8.656,1.047C-227.674,70.542-206.406,98.295-208.596,128.933z
		 M-188.212,129.41c-0.146,2.695-1.24,4.821-3.78,5.941c-2.384,1.051-4.682,0.705-6.693-0.95c-1.821-1.5-2.346-3.528-2.192-5.833
		c0.618-9.252-0.651-18.254-3.694-27.005c-8.969-25.785-32.678-43.807-59.946-45.533c-2.583-0.164-4.808-0.862-6.15-3.226
		c-1.219-2.146-1.208-4.362,0.074-6.487c1.329-2.203,3.371-3.12,5.897-2.994c7.875,0.392,15.521,1.934,22.94,4.6
		c12.889,4.634,23.893,12.077,34.468,23.738C-193.922,87.162-186.989,106.877-188.212,129.41z"/>
	<g>
		<path fill="#003464" d="M180.936,157.407c-6.71-2.623-14.216,0.673-16.834,7.391c-2.611,6.695,0.707,14.227,7.413,16.832
			c6.701,2.602,14.242-0.714,16.839-7.402C190.96,167.521,187.658,160.033,180.936,157.407z"/>
		<path fill="#003464" d="M172.617,0C77.283,0,0,77.283,0,172.617s77.283,172.617,172.617,172.617
			c95.333,0,172.617-77.283,172.617-172.617S267.95,0,172.617,0z M109.388,208.131c-5.631-0.563-11.233-0.472-16.743,1.05
			c-5.126,1.418-9.571,4.016-13.418,7.67c-3.264,3.098-5.874,6.703-8.192,10.53c-1.327,2.192-3.207,2.895-5.476,1.925
			c-2.047-0.875-2.859-2.935-2.216-5.298c0.182-0.671-0.043-1.44,0.024-2.155c0.749-7.921,2.697-15.557,4.838-21.128
			c4.682-11.918,10.229-21.04,17.519-29.04c6.585-7.229,14.162-13.158,23.32-16.861c0.713-0.29,1.442-0.547,2.172-0.795
			c2.995-1.014,6.093,1.593,5.584,4.713c-1.785,10.973-2.492,22.034-2.53,33.139c-0.014,3.729,0.057,7.469,0.36,11.182
			C114.916,206.537,112.421,208.435,109.388,208.131z M168.529,269.939c-3.986,4.146-8.221,8.019-12.902,11.379
			c-0.497,0.356-1.043,0.649-1.592,0.919c-1.385,0.678-2.492,0.244-2.602-1.285c-0.119-1.655,0.098-3.353,0.34-5.008
			c0.16-1.096,0.624-2.149,1-3.379c-1.33,0.094-1.943,0.756-2.481,1.51c-2.647,3.711-4.281,7.924-6.003,12.096
			c-1.589,3.85-3.059,7.775-5.721,11.063c-3.159,3.904-6.997,7.049-11.286,9.629c-0.654,0.395-1.567,0.354-2.361,0.517
			c0.027-0.798-0.095-1.635,0.107-2.384c0.725-2.69,0.522-5.395-0.021-8.028c-1.148-5.583-2.282-11.185-3.824-16.665
			c-1.593-5.659-1.555-11.074,0.802-16.48c0.492-1.127,0.697-2.381,1.033-3.576c-0.132-0.069-0.265-0.137-0.397-0.206
			c-0.786,0.966-1.571,1.934-2.358,2.899c-1.595,1.956-1.989,1.928-2.991-0.438c-1.792-4.231-2.463-8.727-3.124-13.241
			c-0.854-5.847,0.654-11.081,3.657-15.995c1.5-2.455,3.744-4.226,6.073-5.782c2.315-1.548,4.816-2.848,7.333-4.055
			c1.302-0.624,1.754-0.321,1.872,1.063c0.255,2.981,0.312,5.979,0.507,8.966c0.11,1.684,0.239,3.376,0.545,5.028
			c0.246,1.329,0.975,1.596,2.341,1.248c0.457-0.115,0.958-0.054,1.438-0.074c-0.026,0.475-0.04,0.951-0.079,1.425
			c-0.16,1.907-0.579,3.832-0.444,5.717c0.317,4.489,0.888,8.962,1.376,13.438c0.049,0.456,0.204,0.902,0.351,1.341
			c0.591,1.771,1.378,2.195,2.887,1.062c2.109-1.584,4.141-3.329,5.929-5.263c2.527-2.729,4.802-5.693,7.299-8.693
			c-0.325,2.172-0.647,4.21-0.926,6.255c-0.103,0.759-0.143,1.533-0.137,2.3c0.007,0.947,0.549,1.205,1.399,0.924
			c1.93-0.635,3.449-1.896,4.766-3.365c3.098-3.455,5.279-7.402,5.943-12.056c0.178-1.246,0.05-2.532,0.091-3.8
			c0.042-1.273-0.061-2.762,1.361-3.302c1.279-0.484,2.015,0.755,2.681,1.581c3.306,4.105,5.165,8.83,5.541,14.078
			C176.482,258.685,173.527,264.741,168.529,269.939z M239.083,251.165c-2.836,12.438-8.064,23.771-15.783,33.939
			c-0.199,0.261-0.487,0.455-0.733,0.68c-1.539,3.263-4.569,3.642-6.933,1.916c-1.227-0.896-1.683-2.219-1.391-3.682
			c0.901-4.497,1.487-9.015,1.249-13.614c-0.007-0.139,0.094-0.282,0.146-0.425c-0.495-2.412-0.851-4.862-1.512-7.228
			c-1.642-5.884-5.066-10.7-9.438-14.854c-1.865-1.772-3.904-3.369-5.909-4.988c-2.089-1.688-2.314-4.575-0.426-6.481
			c2.735-2.763,5.624-5.389,8.186-8.304c4.292-4.885,8.476-9.871,12.512-14.968c2.915-3.68,5.53-7.599,8.25-11.43
			c1.711-2.41,5.689-2.305,7.132,0.285c3.055,5.489,4.835,11.423,5.855,17.589C242.04,230.2,241.465,240.723,239.083,251.165z
			 M244.286,135.783c-0.857,5.162-2.035,10.279-3.272,15.366c-2.072,8.531-5.162,16.713-8.821,24.686
			c-3.562,7.76-7.677,15.21-12.305,22.384c-4.728,7.329-9.891,14.345-15.629,20.897c-4.18,4.774-8.706,9.252-13.09,13.847
			c-0.874,0.917-1.849,1.738-2.705,2.667c-1.266,1.373-2.805,1.566-4.443,1.03c-1.903-0.621-3.764-1.373-5.631-2.101
			c-7.988-3.109-15.968-6.232-23.952-9.35c-9.529-3.722-19.047-7.477-28.599-11.14c-2.263-0.868-3.446-2.295-3.506-4.722
			c-0.144-5.885-0.475-11.77-0.462-17.653c0.018-7.864,0.643-15.7,1.701-23.497c1.339-9.874,3.407-19.581,6.324-29.121
			c2.763-9.031,6.255-17.761,10.568-26.146c4.953-9.628,10.952-18.57,18.004-26.806c7.363-8.6,15.672-16.151,24.905-22.673
			c10.194-7.2,21.166-12.97,32.831-17.413c2.09-0.797,4.182-1.592,6.301-2.297c2.293-0.762,3.786-0.185,4.944,1.95
			c5.186,9.554,9.422,19.507,12.543,29.931c2.697,9.008,4.504,18.184,5.348,27.547C246.325,114.082,246.079,124.975,244.286,135.783
			z"/>
		<path fill="#003464" d="M205.728,94.179c-12.167-4.81-25.871,1.154-30.705,13.371c-4.709,11.896,0.969,25.717,13.279,30.635
			c12.061,4.816,25.958-1.142,30.672-13.072C223.861,112.744,217.987,99.025,205.728,94.179z"/>
	</g>
	<g>
		<path fill="#003464" d="M-765.73,0c-95.334,0-172.617,77.283-172.617,172.617s77.283,172.617,172.617,172.617
			c95.333,0,172.617-77.283,172.617-172.617S-670.396,0-765.73,0z M-765.733,307.491c-73.277,0-132.685-59.141-132.685-132.088
			c0-72.951,59.408-132.092,132.685-132.092c73.286,0,132.691,59.141,132.691,132.092
			C-633.042,248.351-692.448,307.491-765.733,307.491z"/>
		<path fill="#003464" d="M-697.223,172.753c0-38.751-31.601-70.166-70.582-70.166c-38.986,0-70.59,31.415-70.59,70.166
			c0,38.747,31.604,70.16,70.59,70.16c0.854,0,1.704-0.03,2.559-0.063v13.565c34.16-0.303,63.365-21.304,75.703-51.062
			l-13.213-5.321C-699.19,191.651-697.223,182.429-697.223,172.753z"/>
	</g>
</g>
<g id="Capa_2">
	<g>
		<g>
			<g>
				<g>
					<path fill="#FFFFFF" d="M640.805-2632.651c-0.314-0.011-0.603-0.06-0.866-0.147c-0.265-0.088-0.492-0.212-0.685-0.375
						c-0.191-0.162-0.341-0.364-0.448-0.605s-0.164-0.521-0.17-0.84h0.609c0.041,0.482,0.202,0.829,0.483,1.04
						c0.282,0.212,0.641,0.319,1.076,0.319c0.173,0,0.344-0.021,0.509-0.066c0.166-0.043,0.312-0.109,0.436-0.196
						c0.125-0.087,0.228-0.198,0.306-0.335s0.118-0.298,0.118-0.484c0-0.214-0.049-0.391-0.145-0.53
						c-0.097-0.14-0.223-0.257-0.379-0.353c-0.156-0.097-0.336-0.177-0.535-0.244c-0.201-0.066-0.403-0.135-0.61-0.205
						c-0.206-0.069-0.409-0.145-0.61-0.226c-0.199-0.082-0.379-0.185-0.535-0.31s-0.283-0.28-0.379-0.467
						c-0.096-0.186-0.144-0.414-0.144-0.688c0-0.278,0.053-0.527,0.161-0.749c0.107-0.22,0.249-0.409,0.428-0.562
						c0.177-0.154,0.381-0.272,0.613-0.353c0.232-0.082,0.473-0.122,0.723-0.122c0.232,0,0.458,0.037,0.676,0.113
						s0.41,0.18,0.578,0.313c0.169,0.134,0.304,0.299,0.406,0.492c0.102,0.195,0.152,0.408,0.152,0.641h-0.61
						c-0.012-0.162-0.054-0.304-0.126-0.423c-0.072-0.118-0.166-0.218-0.279-0.296s-0.239-0.136-0.379-0.174
						c-0.139-0.039-0.279-0.057-0.418-0.057c-0.18,0-0.35,0.027-0.51,0.083c-0.16,0.055-0.299,0.132-0.417,0.23
						c-0.119,0.099-0.215,0.222-0.284,0.37c-0.068,0.148-0.104,0.313-0.104,0.492c0,0.197,0.046,0.359,0.139,0.488
						c0.094,0.127,0.215,0.236,0.365,0.326c0.151,0.09,0.322,0.167,0.514,0.23c0.192,0.064,0.39,0.129,0.594,0.191
						c0.203,0.064,0.401,0.137,0.597,0.219c0.194,0.082,0.37,0.186,0.526,0.313c0.401,0.325,0.601,0.743,0.601,1.253
						c0,0.279-0.057,0.525-0.17,0.736c-0.112,0.213-0.265,0.389-0.452,0.527c-0.188,0.14-0.4,0.246-0.637,0.318
						C641.289-2632.688,641.049-2632.651,640.805-2632.651z"/>
					<path fill="#FFFFFF" d="M660.795-2632.651c-0.436,0-0.856-0.083-1.263-0.251c-0.396-0.164-0.74-0.395-1.036-0.698
						c-0.304-0.296-0.534-0.642-0.698-1.036c-0.168-0.406-0.251-0.827-0.251-1.263s0.083-0.856,0.251-1.264
						c0.164-0.39,0.395-0.733,0.698-1.036c0.296-0.297,0.641-0.529,1.036-0.697c0.406-0.168,0.827-0.252,1.263-0.252
						s0.856,0.084,1.263,0.252c0.39,0.168,0.734,0.4,1.037,0.697c0.296,0.303,0.528,0.646,0.696,1.036
						c0.169,0.407,0.253,0.828,0.253,1.264s-0.084,0.856-0.253,1.263c-0.168,0.395-0.4,0.74-0.696,1.036
						c-0.303,0.304-0.647,0.534-1.037,0.698C661.652-2632.734,661.231-2632.651,660.795-2632.651z M660.795-2638.539
						c-0.354,0-0.691,0.064-1.011,0.197c-0.318,0.129-0.604,0.322-0.853,0.578c-0.257,0.249-0.449,0.533-0.58,0.854
						c-0.13,0.32-0.196,0.656-0.196,1.011c0,0.354,0.066,0.69,0.196,1.011c0.131,0.318,0.323,0.604,0.58,0.853
						c0.249,0.257,0.534,0.449,0.853,0.579c0.319,0.131,0.656,0.197,1.011,0.197c0.354,0,0.69-0.066,1.01-0.197
						c0.32-0.13,0.605-0.322,0.854-0.579c0.255-0.249,0.448-0.534,0.578-0.853c0.132-0.32,0.196-0.657,0.196-1.011
						c0-0.354-0.064-0.69-0.196-1.011c-0.13-0.32-0.323-0.604-0.578-0.854c-0.249-0.256-0.534-0.449-0.854-0.578
						C661.486-2638.475,661.149-2638.539,660.795-2638.539z"/>
					<path fill="#FFFFFF" d="M679.418-2638.34v2.502h2.84v0.608h-2.84v2.378h-0.609v-6.097h4.058v0.608H679.418z"/>
					<path fill="#FFFFFF" d="M697.632-2638.34v-0.608h4.059v0.608h-1.725v5.488h-0.609v-5.488H697.632z"/>
					<path fill="#FFFFFF" d="M720.907-2632.852l-1.891-2.856l-1.89,2.856h-0.67v-6.097h0.608v5.087l1.951-2.953l1.952,2.953v-5.087
						h0.608v6.097H720.907z"/>
					<path fill="#FFFFFF" d="M738.197-2638.948h0.645l1.96,6.097h-0.645l-0.767-2.378h-1.742l-0.767,2.378h-0.644L738.197-2638.948z
						 M737.84-2635.838h1.358l-0.68-2.117L737.84-2635.838z"/>
					<path fill="#FFFFFF" d="M758.997-2634.105c0-0.326-0.101-0.59-0.304-0.793c-0.221-0.203-0.528-0.314-0.924-0.331h-1.594v2.378
						h-0.609v-6.097h2.124c0.263,0,0.506,0.036,0.733,0.108c0.226,0.072,0.426,0.179,0.601,0.318
						c0.174,0.139,0.316,0.319,0.427,0.539c0.046,0.105,0.084,0.225,0.113,0.357c0.028,0.135,0.043,0.314,0.043,0.541
						c0,0.237-0.015,0.419-0.043,0.543c-0.029,0.125-0.067,0.24-0.113,0.346c-0.11,0.22-0.253,0.4-0.427,0.539
						c-0.029,0.023-0.057,0.046-0.083,0.064c-0.025,0.021-0.054,0.04-0.082,0.058c0.046,0.029,0.089,0.06,0.13,0.092
						s0.081,0.065,0.121,0.101c0.269,0.262,0.428,0.58,0.48,0.957c0.005,0.047,0.01,0.094,0.012,0.14
						c0.004,0.047,0.005,0.093,0.005,0.14v1.254h-0.61V-2634.105z M758.64-2636.135c0.064-0.059,0.122-0.133,0.174-0.227
						c0.047-0.082,0.089-0.18,0.127-0.297c0.038-0.115,0.056-0.258,0.056-0.426c0-0.25-0.029-0.449-0.091-0.598
						c-0.061-0.146-0.149-0.268-0.266-0.361c-0.243-0.197-0.561-0.297-0.95-0.297h-1.515v2.502h1.515
						C758.08-2635.838,758.397-2635.938,758.64-2636.135z"/>
					<path fill="#FFFFFF" d="M774.982-2638.34v2.502h2.839v0.608h-2.839v1.769h3.449v0.609h-4.06v-6.097h4.06v0.608H774.982z"/>
				</g>
				<g>
					<g>
						<path fill="#FFFFFF" d="M645.576-2655.766l-1.54,2.898v9.738h-4.982v-31.707h4.982v13.725h0.091l6.432-13.725h4.982
							l-6.93,14.132l6.93,17.575h-5.119L645.576-2655.766z"/>
						<path fill="#FFFFFF" d="M657.986-2667.227c0-5.073,2.672-7.973,7.565-7.973c4.892,0,7.563,2.899,7.563,7.973v16.488
							c0,5.073-2.672,7.973-7.563,7.973c-4.894,0-7.565-2.899-7.565-7.973V-2667.227z M662.968-2650.422
							c0,2.266,0.997,3.126,2.583,3.126c1.584,0,2.581-0.86,2.581-3.126v-17.121c0-2.266-0.997-3.127-2.581-3.127
							c-1.586,0-2.583,0.861-2.583,3.127V-2650.422z"/>
						<path fill="#FFFFFF" d="M687.654-2643.129c-0.271-0.815-0.453-1.313-0.453-3.895v-4.984c0-2.942-0.997-4.03-3.261-4.03h-1.722
							v12.909h-4.982v-31.707h7.519c5.164,0,7.384,2.4,7.384,7.293v2.49c0,3.262-1.041,5.346-3.261,6.389v0.09
							c2.491,1.041,3.306,3.396,3.306,6.703v4.893c0,1.539,0.046,2.672,0.544,3.85H687.654z M682.218-2670.307v9.738h1.948
							c1.857,0,2.989-0.814,2.989-3.352v-3.125c0-2.266-0.771-3.262-2.536-3.262H682.218z"/>
						<path fill="#FFFFFF" d="M696.35-2674.836h4.983v31.707h-4.983V-2674.836z"/>
						<path fill="#FFFFFF" d="M710.391-2666.094h-0.09v22.965h-4.485v-31.707h6.251l5.027,18.979h0.091v-18.979h4.439v31.707h-5.118
							L710.391-2666.094z"/>
						<path fill="#FFFFFF" d="M733.581-2648.973h0.091l3.76-25.863h4.574l-4.892,31.707h-7.429l-4.892-31.707h5.028
							L733.581-2648.973z"/>
						<path fill="#FFFFFF" d="M750.204-2661.473h6.84v4.528h-6.84v9.286h8.606v4.529h-13.589v-31.707h13.589v4.529h-8.606V-2661.473
							z"/>
						<path fill="#FFFFFF" d="M773.214-2643.129c-0.272-0.815-0.453-1.313-0.453-3.895v-4.984c0-2.942-0.997-4.03-3.262-4.03h-1.722
							v12.909h-4.982v-31.707h7.52c5.164,0,7.384,2.4,7.384,7.293v2.49c0,3.262-1.043,5.346-3.263,6.389v0.09
							c2.492,1.041,3.308,3.396,3.308,6.703v4.893c0,1.539,0.045,2.672,0.543,3.85H773.214z M767.778-2670.307v9.738h1.948
							c1.857,0,2.989-0.814,2.989-3.352v-3.125c0-2.266-0.77-3.262-2.536-3.262H767.778z"/>
					</g>
				</g>
			</g>
			<linearGradient id="SVGID_8_" gradientUnits="userSpaceOnUse" x1="724.3677" y1="-2681.5869" x2="694.5817" y2="-2799.3914">
				<stop  offset="0" style="stop-color:#5D9D47"/>
				<stop  offset="1" style="stop-color:#8EBC3F"/>
			</linearGradient>
			<path fill="url(#SVGID_8_)" d="M708.533-2804.934c-33.688,0-60.997,27.188-60.997,60.726c0,33.535,27.31,60.723,60.997,60.723
				c33.689,0,61-27.188,61-60.723C769.533-2777.746,742.222-2804.934,708.533-2804.934z M708.756-2706.965v-6.236
				c-0.393,0.014-0.784,0.028-1.177,0.028c-17.922,0-32.451-14.44-32.451-32.253c0-17.816,14.529-32.256,32.451-32.256
				c17.92,0,32.448,14.439,32.448,32.256c0,4.447-0.905,8.686-2.545,12.541l6.074,2.445
				C737.885-2716.76,724.46-2707.105,708.756-2706.965z"/>
		</g>
	</g>
</g>
</svg>
