<?xml version="1.0" encoding="utf-8"?>
<!-- Generator: Adobe Illustrator 16.0.0, SVG Export Plug-In . SVG Version: 6.00 Build 0)  -->
<!DOCTYPE svg PUBLIC "-//W3C//DTD SVG 1.1//EN" "http://www.w3.org/Graphics/SVG/1.1/DTD/svg11.dtd">
<svg version="1.1" xmlns="http://www.w3.org/2000/svg" xmlns:xlink="http://www.w3.org/1999/xlink" x="0px" y="0px"
	 width="296.718px" height="296.717px" viewBox="0 0 296.718 296.717" enable-background="new 0 0 296.718 296.717"
	 xml:space="preserve">
<g id="Capa_1">
	<g>
		<rect x="465.831" y="-2943.76" fill="#001B3D" width="1127.681" height="351.459"/>
		<g>
			<g>
				<path fill="#FFFFFF" d="M854.419-2755.75l-7.393,13.918v46.746H823.11v-152.203h23.917v65.883h0.436l30.874-65.883h23.915
					l-33.262,67.837l33.262,84.366h-24.566L854.419-2755.75z"/>
				<path fill="#FFFFFF" d="M913.99-2810.762c0-24.353,12.828-38.271,36.318-38.271c23.48,0,36.307,13.919,36.307,38.271v79.148
					c0,24.349-12.826,38.266-36.307,38.266c-23.49,0-36.318-13.917-36.318-38.266V-2810.762z M937.908-2730.094
					c0,10.876,4.785,15.006,12.4,15.006c7.602,0,12.389-4.13,12.389-15.006v-82.191c0-10.871-4.787-15.001-12.389-15.001
					c-7.615,0-12.4,4.13-12.4,15.001V-2730.094z"/>
				<path fill="#FFFFFF" d="M1056.406-2695.086c-1.303-3.914-2.17-6.305-2.17-18.699v-23.922c0-14.13-4.785-19.347-15.652-19.347
					h-8.264v61.968h-23.918v-152.203h36.092c24.785,0,35.439,11.522,35.439,35.004v11.959c0,15.657-4.998,25.662-15.652,30.658v0.44
					c11.957,4.997,15.867,16.304,15.867,32.177v23.485c0,7.39,0.221,12.827,2.613,18.479H1056.406z M1030.32-2825.547v46.747h9.346
					c8.918,0,14.35-3.909,14.35-16.089v-15c0-10.877-3.699-15.658-12.172-15.658H1030.32z"/>
				<path fill="#FFFFFF" d="M1098.156-2847.289h23.918v152.203h-23.918V-2847.289z"/>
				<path fill="#FFFFFF" d="M1165.556-2805.323h-0.436v110.237h-21.523v-152.203h29.998l24.139,91.104h0.438v-91.104h21.305v152.203
					h-24.57L1165.556-2805.323z"/>
				<path fill="#FFFFFF" d="M1276.875-2723.137h0.438l18.047-124.152h21.953l-23.479,152.203h-35.664l-23.482-152.203h24.141
					L1276.875-2723.137z"/>
				<path fill="#FFFFFF" d="M1356.666-2783.146h32.836v21.741h-32.836v44.576h41.318v21.742h-65.236v-152.203h65.236v21.742h-41.318
					V-2783.146z"/>
				<path fill="#FFFFFF" d="M1467.123-2695.086c-1.307-3.914-2.172-6.305-2.172-18.699v-23.922c0-14.13-4.789-19.347-15.66-19.347
					h-8.264v61.968h-23.918v-152.203h36.096c24.791,0,35.445,11.522,35.445,35.004v11.959c0,15.657-5.008,25.662-15.656,30.658v0.44
					c11.957,4.997,15.873,16.304,15.873,32.177v23.485c0,7.39,0.221,12.827,2.611,18.479H1467.123z M1441.027-2825.547v46.747h9.354
					c8.914,0,14.354-3.909,14.354-16.089v-15c0-10.877-3.701-15.658-12.18-15.658H1441.027z"/>
			</g>
			<linearGradient id="SVGID_1_" gradientUnits="userSpaceOnUse" x1="708.8589" y1="-2653.1104" x2="654.1987" y2="-2869.2935">
				<stop  offset="0" style="stop-color:#5D9D47"/>
				<stop  offset="1" style="stop-color:#8EBC3F"/>
			</linearGradient>
			<path fill="url(#SVGID_1_)" d="M679.798-2879.467c-61.817,0-111.936,49.889-111.936,111.439
				c0,61.541,50.118,111.434,111.936,111.434c61.822,0,111.945-49.893,111.945-111.434
				C791.744-2829.578,741.621-2879.467,679.798-2879.467z M680.211-2699.681v-11.446c-0.724,0.029-1.439,0.051-2.161,0.051
				c-32.885,0-59.551-26.5-59.551-59.188c0-32.696,26.666-59.192,59.551-59.192c32.891,0,59.549,26.496,59.549,59.192
				c0,8.163-1.668,15.944-4.674,23.013l11.152,4.491C733.667-2717.652,709.027-2699.938,680.211-2699.681z"/>
		</g>
	</g>
	<g>
		<g>
			<path fill="#FFFFFF" d="M2122.958-2755.544l-7.393,13.918v46.746h-23.917v-152.203h23.917v65.883H2116l30.874-65.883h23.915
				l-33.262,67.837l33.262,84.366h-24.566L2122.958-2755.544z"/>
			<path fill="#FFFFFF" d="M2182.528-2810.556c0-24.353,12.828-38.271,36.318-38.271c23.48,0,36.307,13.919,36.307,38.271v79.148
				c0,24.349-12.826,38.266-36.307,38.266c-23.49,0-36.318-13.917-36.318-38.266V-2810.556z M2206.446-2729.888
				c0,10.876,4.785,15.006,12.4,15.006c7.602,0,12.389-4.13,12.389-15.006v-82.191c0-10.871-4.787-15.001-12.389-15.001
				c-7.615,0-12.4,4.13-12.4,15.001V-2729.888z"/>
			<path fill="#FFFFFF" d="M2324.944-2694.88c-1.303-3.914-2.17-6.305-2.17-18.699v-23.922c0-14.13-4.785-19.347-15.652-19.347
				h-8.264v61.968h-23.918v-152.203h36.092c24.785,0,35.439,11.522,35.439,35.004v11.959c0,15.657-4.998,25.662-15.652,30.658v0.44
				c11.957,4.997,15.867,16.304,15.867,32.177v23.485c0,7.39,0.221,12.827,2.613,18.479H2324.944z M2298.858-2825.341v46.747h9.346
				c8.918,0,14.35-3.909,14.35-16.089v-15c0-10.877-3.699-15.658-12.172-15.658H2298.858z"/>
			<path fill="#FFFFFF" d="M2366.694-2847.083h23.918v152.203h-23.918V-2847.083z"/>
			<path fill="#FFFFFF" d="M2434.094-2805.117h-0.436v110.237h-21.523v-152.203h29.998l24.139,91.104h0.438v-91.104h21.305v152.203
				h-24.57L2434.094-2805.117z"/>
			<path fill="#FFFFFF" d="M2545.413-2722.931h0.438l18.047-124.152h21.953l-23.479,152.203h-35.664l-23.482-152.203h24.141
				L2545.413-2722.931z"/>
			<path fill="#FFFFFF" d="M2625.204-2782.939h32.836v21.741h-32.836v44.576h41.318v21.742h-65.236v-152.203h65.236v21.742h-41.318
				V-2782.939z"/>
			<path fill="#FFFFFF" d="M2735.661-2694.88c-1.307-3.914-2.172-6.305-2.172-18.699v-23.922c0-14.13-4.789-19.347-15.66-19.347
				h-8.264v61.968h-23.918v-152.203h36.096c24.791,0,35.445,11.522,35.445,35.004v11.959c0,15.657-5.008,25.662-15.656,30.658v0.44
				c11.957,4.997,15.873,16.304,15.873,32.177v23.485c0,7.39,0.221,12.827,2.611,18.479H2735.661z M2709.565-2825.341v46.747h9.354
				c8.914,0,14.354-3.909,14.354-16.089v-15c0-10.877-3.701-15.658-12.18-15.658H2709.565z"/>
		</g>
		<linearGradient id="SVGID_2_" gradientUnits="userSpaceOnUse" x1="1977.3979" y1="-2652.9033" x2="1922.7375" y2="-2869.0874">
			<stop  offset="0" style="stop-color:#5D9D47"/>
			<stop  offset="1" style="stop-color:#8EBC3F"/>
		</linearGradient>
		<path fill="url(#SVGID_2_)" d="M1948.336-2879.261c-61.817,0-111.936,49.889-111.936,111.439
			c0,61.541,50.118,111.434,111.936,111.434c61.822,0,111.945-49.893,111.945-111.434
			C2060.282-2829.372,2010.159-2879.261,1948.336-2879.261z M1948.75-2699.475v-11.446c-0.724,0.029-1.439,0.051-2.161,0.051
			c-32.885,0-59.551-26.5-59.551-59.188c0-32.696,26.666-59.192,59.551-59.192c32.891,0,59.549,26.496,59.549,59.192
			c0,8.163-1.668,15.944-4.674,23.013l11.152,4.491C2002.205-2717.446,1977.565-2699.731,1948.75-2699.475z"/>
	</g>
	<g>
		<rect x="-282.156" y="-2883.598" fill="#001B3D" width="261.99" height="261.99"/>
		<g>
			<g>
				<g>
					<path fill="#FFFFFF" d="M-218.888-2668.23c-0.314-0.012-0.603-0.061-0.867-0.147c-0.264-0.087-0.492-0.212-0.684-0.374
						c-0.191-0.164-0.342-0.365-0.449-0.605c-0.106-0.242-0.163-0.521-0.169-0.841h0.608c0.041,0.482,0.202,0.829,0.483,1.04
						c0.283,0.213,0.642,0.318,1.077,0.318c0.173,0,0.343-0.021,0.509-0.065c0.166-0.043,0.311-0.108,0.436-0.196
						c0.125-0.086,0.227-0.198,0.305-0.334c0.079-0.137,0.118-0.299,0.118-0.484c0-0.215-0.049-0.392-0.144-0.531
						c-0.097-0.139-0.223-0.258-0.379-0.353c-0.156-0.097-0.336-0.177-0.536-0.243c-0.2-0.067-0.403-0.135-0.609-0.206
						c-0.207-0.069-0.409-0.144-0.61-0.226c-0.2-0.082-0.379-0.186-0.535-0.311c-0.157-0.124-0.284-0.279-0.379-0.465
						c-0.097-0.186-0.145-0.416-0.145-0.688c0-0.279,0.054-0.529,0.161-0.75c0.108-0.221,0.25-0.408,0.428-0.562
						c0.177-0.153,0.381-0.272,0.613-0.353c0.233-0.082,0.474-0.123,0.723-0.123c0.232,0,0.459,0.038,0.676,0.113
						c0.219,0.076,0.411,0.181,0.579,0.313c0.169,0.134,0.304,0.298,0.405,0.492c0.102,0.196,0.152,0.409,0.152,0.642h-0.609
						c-0.012-0.162-0.054-0.305-0.127-0.424c-0.072-0.119-0.165-0.218-0.278-0.296s-0.239-0.136-0.379-0.173
						c-0.14-0.039-0.279-0.057-0.419-0.057c-0.179,0-0.35,0.026-0.509,0.082c-0.16,0.055-0.3,0.132-0.417,0.23
						c-0.12,0.099-0.215,0.223-0.284,0.371c-0.069,0.147-0.104,0.312-0.104,0.492c0,0.197,0.047,0.359,0.14,0.487
						c0.093,0.127,0.215,0.235,0.365,0.327c0.15,0.089,0.322,0.166,0.514,0.23c0.192,0.064,0.39,0.127,0.594,0.191
						c0.202,0.063,0.401,0.136,0.597,0.217c0.193,0.082,0.369,0.187,0.525,0.314c0.401,0.324,0.602,0.743,0.602,1.254
						c0,0.279-0.057,0.525-0.17,0.736c-0.113,0.212-0.265,0.387-0.453,0.527c-0.188,0.139-0.4,0.244-0.636,0.316
						C-218.406-2668.267-218.644-2668.23-218.888-2668.23z"/>
					<path fill="#FFFFFF" d="M-198.898-2668.23c-0.436,0-0.856-0.084-1.263-0.252c-0.396-0.163-0.741-0.395-1.037-0.697
						c-0.303-0.296-0.534-0.641-0.697-1.037c-0.168-0.406-0.252-0.826-0.252-1.262s0.084-0.856,0.252-1.264
						c0.163-0.389,0.395-0.734,0.697-1.037c0.296-0.295,0.641-0.528,1.037-0.695c0.406-0.17,0.827-0.254,1.263-0.254
						c0.435,0,0.855,0.084,1.263,0.254c0.39,0.167,0.733,0.4,1.036,0.695c0.297,0.303,0.529,0.648,0.697,1.037
						c0.169,0.407,0.253,0.828,0.253,1.264s-0.084,0.855-0.253,1.262c-0.168,0.396-0.4,0.741-0.697,1.037
						c-0.303,0.303-0.646,0.534-1.036,0.697C-198.042-2668.314-198.463-2668.23-198.898-2668.23z M-198.898-2674.117
						c-0.354,0-0.691,0.064-1.012,0.195c-0.318,0.131-0.604,0.323-0.853,0.578c-0.256,0.25-0.449,0.535-0.579,0.855
						c-0.131,0.318-0.196,0.656-0.196,1.01s0.065,0.691,0.196,1.01c0.13,0.319,0.323,0.604,0.579,0.854
						c0.249,0.256,0.534,0.449,0.853,0.58c0.32,0.13,0.657,0.195,1.012,0.195c0.353,0,0.689-0.065,1.01-0.195
						c0.32-0.131,0.604-0.324,0.854-0.58c0.256-0.25,0.448-0.534,0.579-0.854c0.132-0.318,0.196-0.656,0.196-1.01
						s-0.064-0.691-0.196-1.01c-0.131-0.32-0.323-0.605-0.579-0.855c-0.249-0.255-0.533-0.447-0.854-0.578
						S-198.545-2674.117-198.898-2674.117z"/>
					<path fill="#FFFFFF" d="M-180.276-2673.918v2.501h2.841v0.608h-2.841v2.379h-0.608v-6.098h4.058v0.609H-180.276z"/>
					<path fill="#FFFFFF" d="M-162.062-2673.918v-0.609h4.06v0.609h-1.726v5.488h-0.608v-5.488H-162.062z"/>
					<path fill="#FFFFFF" d="M-138.787-2668.43l-1.892-2.857l-1.89,2.857h-0.67v-6.098h0.609v5.087l1.95-2.954l1.952,2.954v-5.087
						h0.609v6.098H-138.787z"/>
					<path fill="#FFFFFF" d="M-121.497-2674.527h0.645l1.96,6.098h-0.645l-0.767-2.379h-1.742l-0.767,2.379h-0.645
						L-121.497-2674.527z M-121.854-2671.417h1.358l-0.679-2.118L-121.854-2671.417z"/>
					<path fill="#FFFFFF" d="M-100.697-2669.685c0-0.325-0.102-0.589-0.305-0.792c-0.221-0.203-0.528-0.314-0.923-0.332h-1.595
						v2.379h-0.608v-6.098h2.124c0.262,0,0.506,0.037,0.732,0.109c0.226,0.072,0.427,0.178,0.602,0.316
						c0.173,0.141,0.316,0.32,0.426,0.541c0.047,0.104,0.084,0.223,0.113,0.357c0.029,0.133,0.044,0.313,0.044,0.539
						c0,0.238-0.015,0.42-0.044,0.545s-0.066,0.238-0.113,0.345c-0.109,0.22-0.253,0.4-0.426,0.54
						c-0.029,0.022-0.057,0.045-0.083,0.064c-0.026,0.021-0.055,0.039-0.083,0.057c0.047,0.029,0.09,0.061,0.131,0.092
						s0.08,0.065,0.121,0.1c0.268,0.262,0.428,0.581,0.479,0.959c0.006,0.047,0.011,0.092,0.013,0.139
						c0.004,0.047,0.005,0.094,0.005,0.14v1.255h-0.61V-2669.685z M-101.053-2671.715c0.063-0.058,0.121-0.133,0.174-0.225
						c0.046-0.082,0.089-0.182,0.127-0.297c0.037-0.117,0.056-0.258,0.056-0.428c0-0.25-0.029-0.447-0.091-0.597
						c-0.062-0.147-0.15-0.269-0.266-0.362c-0.243-0.196-0.562-0.295-0.95-0.295h-1.516v2.501h1.516
						C-101.615-2671.417-101.296-2671.516-101.053-2671.715z"/>
					<path fill="#FFFFFF" d="M-84.711-2673.918v2.501h2.839v0.608h-2.839v1.769h3.448v0.61h-4.059v-6.098h4.059v0.609H-84.711z"/>
				</g>
				<g>
					<g>
						<path fill="#FFFFFF" d="M-214.119-2691.345l-1.54,2.899v9.738h-4.982v-31.707h4.982v13.725h0.091l6.432-13.725h4.983
							l-6.931,14.131l6.931,17.576h-5.119L-214.119-2691.345z"/>
						<path fill="#FFFFFF" d="M-201.708-2702.806c0-5.073,2.673-7.972,7.565-7.972c4.892,0,7.563,2.898,7.563,7.972v16.489
							c0,5.072-2.672,7.972-7.563,7.972c-4.893,0-7.565-2.899-7.565-7.972V-2702.806z M-196.726-2686
							c0,2.264,0.998,3.125,2.583,3.125s2.581-0.861,2.581-3.125v-17.122c0-2.265-0.996-3.126-2.581-3.126s-2.583,0.861-2.583,3.126
							V-2686z"/>
						<path fill="#FFFFFF" d="M-172.041-2678.707c-0.271-0.816-0.452-1.314-0.452-3.896v-4.983c0-2.943-0.997-4.031-3.261-4.031
							h-1.722v12.91h-4.982v-31.707h7.519c5.164,0,7.383,2.4,7.383,7.292v2.491c0,3.262-1.041,5.345-3.26,6.387v0.092
							c2.49,1.041,3.306,3.396,3.306,6.703v4.893c0,1.539,0.045,2.672,0.543,3.85H-172.041z M-177.475-2705.885v9.738h1.947
							c1.858,0,2.989-0.816,2.989-3.352v-3.127c0-2.264-0.77-3.26-2.535-3.26H-177.475z"/>
						<path fill="#FFFFFF" d="M-163.343-2710.414h4.982v31.707h-4.982V-2710.414z"/>
						<path fill="#FFFFFF" d="M-149.302-2701.672h-0.091v22.965h-4.484v-31.707h6.251l5.027,18.979h0.091v-18.979h4.438v31.707
							h-5.118L-149.302-2701.672z"/>
						<path fill="#FFFFFF" d="M-126.113-2684.551h0.091l3.76-25.863h4.574l-4.892,31.707h-7.429l-4.892-31.707h5.027
							L-126.113-2684.551z"/>
						<path fill="#FFFFFF" d="M-109.49-2697.053h6.84v4.529h-6.84v9.286h8.606v4.53h-13.589v-31.707h13.589v4.529h-8.606V-2697.053z
							"/>
						<path fill="#FFFFFF" d="M-86.48-2678.707c-0.272-0.816-0.452-1.314-0.452-3.896v-4.983c0-2.943-0.997-4.031-3.263-4.031
							h-1.721v12.91h-4.982v-31.707h7.52c5.163,0,7.383,2.4,7.383,7.292v2.491c0,3.262-1.042,5.345-3.262,6.387v0.092
							c2.492,1.041,3.307,3.396,3.307,6.703v4.893c0,1.539,0.046,2.672,0.544,3.85H-86.48z M-91.916-2705.885v9.738h1.947
							c1.857,0,2.99-0.816,2.99-3.352v-3.127c0-2.264-0.77-3.26-2.537-3.26H-91.916z"/>
					</g>
				</g>
			</g>
			<linearGradient id="SVGID_3_" gradientUnits="userSpaceOnUse" x1="-135.3271" y1="-2717.166" x2="-165.1124" y2="-2834.9678">
				<stop  offset="0" style="stop-color:#5D9D47"/>
				<stop  offset="1" style="stop-color:#8EBC3F"/>
			</linearGradient>
			<path fill="url(#SVGID_3_)" d="M-151.162-2840.512c-33.687,0-60.997,27.188-60.997,60.725c0,33.535,27.311,60.723,60.997,60.723
				c33.69,0,61-27.188,61-60.723C-90.162-2813.324-117.471-2840.512-151.162-2840.512z M-150.938-2742.544v-6.237
				c-0.393,0.016-0.783,0.029-1.176,0.029c-17.923,0-32.451-14.441-32.451-32.254c0-17.814,14.528-32.256,32.451-32.256
				c17.92,0,32.447,14.441,32.447,32.256c0,4.448-0.904,8.688-2.544,12.541l6.074,2.446
				C-121.808-2752.338-135.234-2742.684-150.938-2742.544z"/>
		</g>
	</g>
	<g>
		<g>
			<g>
				<g>
					<path fill="#FFFFFF" d="M128.078-3075.626l-1.54,2.898v9.738h-4.982v-31.707h4.982v13.725h0.091l6.432-13.725h4.982
						l-6.93,14.132l6.93,17.575h-5.119L128.078-3075.626z"/>
					<path fill="#FFFFFF" d="M140.488-3087.087c0-5.073,2.672-7.973,7.564-7.973c4.892,0,7.564,2.899,7.564,7.973v16.488
						c0,5.073-2.672,7.972-7.564,7.972c-4.893,0-7.564-2.898-7.564-7.972V-3087.087z M145.471-3070.282
						c0,2.265,0.996,3.126,2.582,3.126c1.585,0,2.582-0.861,2.582-3.126v-17.121c0-2.265-0.997-3.126-2.582-3.126
						c-1.586,0-2.582,0.861-2.582,3.126V-3070.282z"/>
					<path fill="#FFFFFF" d="M170.156-3062.989c-0.271-0.815-0.453-1.313-0.453-3.895v-4.984c0-2.942-0.996-4.03-3.26-4.03h-1.723
						v12.909h-4.982v-31.707h7.52c5.164,0,7.383,2.401,7.383,7.293v2.49c0,3.262-1.041,5.346-3.26,6.388v0.091
						c2.49,1.041,3.305,3.396,3.305,6.703v4.893c0,1.539,0.047,2.672,0.545,3.85H170.156z M164.72-3090.166v9.737h1.947
						c1.859,0,2.99-0.814,2.99-3.352v-3.125c0-2.266-0.77-3.261-2.535-3.261H164.72z"/>
					<path fill="#FFFFFF" d="M178.853-3094.696h4.982v31.707h-4.982V-3094.696z"/>
					<path fill="#FFFFFF" d="M192.894-3085.954h-0.092v22.965h-4.484v-31.707h6.252l5.027,18.979h0.09v-18.979h4.439v31.707h-5.119
						L192.894-3085.954z"/>
					<path fill="#FFFFFF" d="M216.083-3068.832h0.09l3.76-25.864h4.574l-4.891,31.707h-7.43l-4.891-31.707h5.027L216.083-3068.832z"
						/>
					<path fill="#FFFFFF" d="M232.707-3081.333h6.841v4.528h-6.841v9.285h8.608v4.53h-13.591v-31.707h13.591v4.53h-8.608V-3081.333z
						"/>
					<path fill="#FFFFFF" d="M255.717-3062.989c-0.273-0.815-0.453-1.313-0.453-3.895v-4.984c0-2.942-0.996-4.03-3.262-4.03h-1.721
						v12.909h-4.982v-31.707h7.52c5.164,0,7.383,2.401,7.383,7.293v2.49c0,3.262-1.043,5.346-3.262,6.388v0.091
						c2.492,1.041,3.307,3.396,3.307,6.703v4.893c0,1.539,0.045,2.672,0.543,3.85H255.717z M250.282-3090.166v9.737h1.947
						c1.857,0,2.99-0.814,2.99-3.352v-3.125c0-2.266-0.77-3.261-2.537-3.261H250.282z"/>
				</g>
			</g>
		</g>
		<linearGradient id="SVGID_4_" gradientUnits="userSpaceOnUse" x1="206.8696" y1="-3101.4473" x2="177.0842" y2="-3219.2498">
			<stop  offset="0" style="stop-color:#5D9D47"/>
			<stop  offset="1" style="stop-color:#8EBC3F"/>
		</linearGradient>
		<path fill="url(#SVGID_4_)" d="M191.035-3224.794c-33.688,0-60.997,27.188-60.997,60.726c0,33.535,27.309,60.723,60.997,60.723
			c33.689,0,61.001-27.188,61.001-60.723C252.036-3197.606,224.724-3224.794,191.035-3224.794z M191.259-3126.825v-6.237
			c-0.393,0.015-0.785,0.029-1.178,0.029c-17.922,0-32.451-14.441-32.451-32.253c0-17.816,14.529-32.256,32.451-32.256
			c17.92,0,32.449,14.439,32.449,32.256c0,4.447-0.906,8.687-2.547,12.54l6.076,2.446
			C220.388-3136.619,206.962-3126.966,191.259-3126.825z"/>
	</g>
	<g>
		<rect x="-282.156" y="-3274.706" fill="#001B3D" width="261.991" height="261.991"/>
		<g>
			<g>
				<g>
					<g>
						<path fill="#FFFFFF" d="M-214.119-3082.453l-1.54,2.9v9.738h-4.982v-31.707h4.982v13.725h0.091l6.432-13.725h4.982
							l-6.93,14.131l6.93,17.576h-5.118L-214.119-3082.453z"/>
						<path fill="#FFFFFF" d="M-201.708-3093.914c0-5.072,2.672-7.971,7.565-7.971c4.892,0,7.563,2.898,7.563,7.971v16.49
							c0,5.072-2.671,7.971-7.563,7.971c-4.894,0-7.565-2.898-7.565-7.971V-3093.914z M-196.726-3077.107
							c0,2.264,0.997,3.125,2.583,3.125c1.584,0,2.581-0.861,2.581-3.125v-17.123c0-2.264-0.997-3.125-2.581-3.125
							c-1.586,0-2.583,0.861-2.583,3.125V-3077.107z"/>
						<path fill="#FFFFFF" d="M-172.041-3069.814c-0.27-0.816-0.451-1.314-0.451-3.896v-4.982c0-2.943-0.998-4.031-3.262-4.031
							h-1.722v12.91h-4.981v-31.707h7.518c5.164,0,7.382,2.4,7.382,7.291v2.492c0,3.262-1.04,5.344-3.259,6.387v0.092
							c2.49,1.041,3.306,3.396,3.306,6.703v4.893c0,1.539,0.045,2.672,0.543,3.85H-172.041z M-177.475-3096.992v9.738h1.948
							c1.857,0,2.988-0.816,2.988-3.352v-3.127c0-2.264-0.77-3.26-2.535-3.26H-177.475z"/>
						<path fill="#FFFFFF" d="M-163.343-3101.521h4.982v31.707h-4.982V-3101.521z"/>
						<path fill="#FFFFFF" d="M-149.302-3092.779h-0.09v22.965h-4.484v-31.707h6.249l5.028,18.979h0.09v-18.979h4.439v31.707h-5.118
							L-149.302-3092.779z"/>
						<path fill="#FFFFFF" d="M-126.113-3075.658h0.092l3.76-25.863h4.575l-4.894,31.707h-7.431l-4.89-31.707h5.026
							L-126.113-3075.658z"/>
						<path fill="#FFFFFF" d="M-109.49-3088.16h6.841v4.529h-6.841v9.285h8.608v4.531h-13.593v-31.707h13.593v4.529h-8.608V-3088.16
							z"/>
						<path fill="#FFFFFF" d="M-86.479-3069.814c-0.271-0.816-0.453-1.314-0.453-3.896v-4.982c0-2.943-0.996-4.031-3.262-4.031
							h-1.721v12.91h-4.982v-31.707h7.52c5.164,0,7.383,2.4,7.383,7.291v2.492c0,3.262-1.041,5.344-3.262,6.387v0.092
							c2.492,1.041,3.307,3.396,3.307,6.703v4.893c0,1.539,0.047,2.672,0.545,3.85H-86.479z M-91.915-3096.992v9.738h1.947
							c1.857,0,2.99-0.816,2.99-3.352v-3.127c0-2.264-0.77-3.26-2.537-3.26H-91.915z"/>
					</g>
				</g>
			</g>
			<linearGradient id="SVGID_5_" gradientUnits="userSpaceOnUse" x1="-135.3262" y1="-3108.2734" x2="-165.1114" y2="-3226.0752">
				<stop  offset="0" style="stop-color:#5D9D47"/>
				<stop  offset="1" style="stop-color:#8EBC3F"/>
			</linearGradient>
			<path fill="url(#SVGID_5_)" d="M-151.162-3231.619c-33.688,0-60.997,27.188-60.997,60.724c0,33.535,27.309,60.723,60.997,60.723
				c33.692,0,61.001-27.188,61.001-60.723C-90.161-3204.431-117.469-3231.619-151.162-3231.619z M-150.937-3133.652v-6.236
				c-0.393,0.016-0.783,0.029-1.176,0.029c-17.924,0-32.452-14.441-32.452-32.254c0-17.814,14.528-32.255,32.452-32.255
				c17.92,0,32.446,14.441,32.446,32.255c0,4.447-0.906,8.688-2.544,12.541l6.074,2.445
				C-121.809-3143.445-135.234-3133.791-150.937-3133.652z"/>
		</g>
	</g>
	<g>
		<rect x="465.831" y="-3623.76" fill="#001B3D" width="1127.681" height="351.459"/>
		<g>
			<g>
				<path fill="#FFFFFF" d="M846.336-3348.223c-1.497-0.054-2.873-0.289-4.138-0.707c-1.26-0.416-2.351-1.016-3.266-1.788
					c-0.918-0.776-1.632-1.741-2.144-2.894c-0.511-1.151-0.78-2.487-0.808-4.014h2.905c0.195,2.303,0.966,3.961,2.309,4.971
					c1.353,1.014,3.061,1.518,5.141,1.518c0.831,0,1.644-0.102,2.435-0.309c0.794-0.211,1.482-0.521,2.081-0.939
					c0.596-0.414,1.081-0.945,1.456-1.599c0.372-0.653,0.563-1.423,0.563-2.311c0-1.024-0.232-1.873-0.686-2.538
					c-0.463-0.664-1.063-1.227-1.811-1.687c-0.745-0.457-1.604-0.844-2.561-1.163c-0.955-0.318-1.925-0.645-2.909-0.979
					c-0.989-0.333-1.955-0.689-2.916-1.082c-0.952-0.387-1.811-0.879-2.556-1.474c-0.752-0.597-1.358-1.339-1.811-2.228
					c-0.461-0.889-0.689-1.984-0.689-3.285c0-1.334,0.256-2.525,0.769-3.578c0.519-1.055,1.194-1.949,2.043-2.684
					c0.844-0.735,1.82-1.301,2.93-1.687c1.114-0.39,2.264-0.581,3.452-0.581c1.11,0,2.188,0.18,3.232,0.539
					c1.036,0.363,1.96,0.86,2.762,1.498c0.808,0.638,1.45,1.422,1.935,2.35c0.486,0.929,0.729,1.95,0.729,3.061h-2.917
					c-0.056-0.777-0.25-1.451-0.601-2.021c-0.346-0.568-0.788-1.04-1.328-1.413c-0.542-0.373-1.147-0.652-1.81-0.832
					c-0.668-0.18-1.335-0.271-2.002-0.271c-0.854,0-1.666,0.133-2.43,0.396c-0.767,0.262-1.433,0.63-1.996,1.102
					c-0.569,0.474-1.022,1.063-1.354,1.77c-0.33,0.707-0.498,1.491-0.498,2.352c0,0.942,0.224,1.721,0.667,2.329
					s1.026,1.13,1.745,1.561c0.717,0.43,1.539,0.796,2.453,1.101c0.914,0.309,1.855,0.611,2.835,0.917
					c0.966,0.304,1.918,0.651,2.847,1.04c0.928,0.387,1.767,0.887,2.514,1.498c1.917,1.553,2.872,3.547,2.872,5.989
					c0,1.331-0.271,2.507-0.815,3.517c-0.532,1.012-1.259,1.852-2.159,2.517c-0.902,0.663-1.913,1.169-3.038,1.519
					C848.645-3348.396,847.501-3348.223,846.336-3348.223z"/>
				<path fill="#FFFFFF" d="M941.816-3348.223c-2.078,0-4.086-0.4-6.026-1.206c-1.893-0.776-3.539-1.884-4.955-3.327
					c-1.442-1.414-2.551-3.066-3.329-4.953c-0.802-1.939-1.201-3.952-1.201-6.033c0-2.078,0.399-4.088,1.201-6.03
					c0.778-1.858,1.887-3.508,3.329-4.952c1.416-1.412,3.063-2.524,4.955-3.327c1.94-0.804,3.948-1.206,6.026-1.206
					c2.08,0,4.092,0.402,6.036,1.206c1.857,0.803,3.505,1.915,4.954,3.327c1.413,1.444,2.525,3.094,3.32,4.952
					c0.812,1.942,1.212,3.952,1.212,6.03c0,2.081-0.4,4.094-1.212,6.033c-0.795,1.887-1.907,3.539-3.32,4.953
					c-1.449,1.443-3.097,2.551-4.954,3.327C945.908-3348.623,943.896-3348.223,941.816-3348.223z M941.816-3376.348
					c-1.689,0-3.299,0.314-4.824,0.938c-1.523,0.622-2.881,1.544-4.075,2.765c-1.223,1.192-2.146,2.552-2.77,4.077
					c-0.62,1.528-0.934,3.138-0.934,4.825c0,1.693,0.313,3.302,0.934,4.828c0.624,1.525,1.547,2.885,2.77,4.076
					c1.194,1.223,2.552,2.142,4.075,2.768c1.525,0.625,3.135,0.934,4.824,0.934c1.688,0,3.304-0.309,4.826-0.934
					c1.531-0.626,2.893-1.545,4.084-2.768c1.212-1.191,2.136-2.551,2.762-4.076c0.623-1.526,0.937-3.135,0.937-4.828
					c0-1.688-0.313-3.297-0.937-4.825c-0.626-1.525-1.55-2.885-2.762-4.077c-1.191-1.221-2.553-2.143-4.084-2.765
					C945.12-3376.033,943.504-3376.348,941.816-3376.348z"/>
				<path fill="#FFFFFF" d="M1030.767-3375.391v11.943h13.564v2.91h-13.564v11.357h-2.907v-29.121h19.383v2.91H1030.767z"/>
				<path fill="#FFFFFF" d="M1117.763-3375.391v-2.91h19.389v2.91h-8.242v26.211h-2.905v-26.211H1117.763z"/>
				<path fill="#FFFFFF" d="M1228.927-3349.18l-9.031-13.646l-9.021,13.646h-3.199v-29.121h2.907v24.294l9.313-14.103l9.326,14.103
					v-24.294h2.91v29.121H1228.927z"/>
				<path fill="#FFFFFF" d="M1311.517-3378.301h3.078l9.355,29.121h-3.071l-3.665-11.357h-8.319l-3.665,11.357h-3.076
					L1311.517-3378.301z M1309.811-3363.447h6.486l-3.241-10.112L1309.811-3363.447z"/>
				<path fill="#FFFFFF" d="M1410.861-3355.17c0-1.552-0.478-2.814-1.451-3.788c-1.057-0.968-2.523-1.498-4.408-1.579h-7.619v11.357
					h-2.903v-29.121h10.144c1.25,0,2.418,0.172,3.497,0.52c1.08,0.346,2.039,0.854,2.868,1.518c0.833,0.666,1.518,1.525,2.041,2.58
					c0.225,0.499,0.398,1.065,0.538,1.705c0.136,0.639,0.212,1.499,0.212,2.579c0,1.138-0.076,2.006-0.212,2.6
					c-0.14,0.595-0.313,1.144-0.538,1.646c-0.523,1.054-1.208,1.912-2.041,2.579c-0.137,0.112-0.269,0.217-0.39,0.31
					c-0.126,0.098-0.262,0.186-0.397,0.273c0.225,0.137,0.43,0.283,0.625,0.434c0.191,0.156,0.385,0.314,0.58,0.48
					c1.279,1.248,2.041,2.772,2.287,4.578c0.031,0.222,0.053,0.443,0.063,0.662c0.014,0.221,0.023,0.445,0.023,0.668v5.99h-2.918
					V-3355.17z M1409.162-3364.866c0.302-0.274,0.578-0.637,0.83-1.079c0.219-0.387,0.42-0.858,0.606-1.416
					c0.177-0.555,0.263-1.234,0.263-2.038c0-1.191-0.142-2.144-0.432-2.851c-0.294-0.706-0.717-1.281-1.268-1.729
					c-1.166-0.941-2.685-1.412-4.539-1.412h-7.24v11.943h7.24C1406.477-3363.447,1407.996-3363.918,1409.162-3364.866z"/>
				<path fill="#FFFFFF" d="M1487.218-3375.391v11.943h13.553v2.91h-13.553v8.447h16.469v2.91H1484.3v-29.121h19.387v2.91H1487.218z
					"/>
			</g>
			<g>
				<g>
					<path fill="#FFFFFF" d="M869.123-3458.629l-7.356,13.846v46.516h-23.797v-151.443h23.797v65.554h0.434l30.718-65.554h23.806
						l-33.104,67.498l33.104,83.945h-24.452L869.123-3458.629z"/>
					<path fill="#FFFFFF" d="M928.402-3513.365c0-24.232,12.763-38.078,36.131-38.078c23.364,0,36.123,13.846,36.123,38.078v78.75
						c0,24.232-12.759,38.078-36.123,38.078c-23.368,0-36.131-13.846-36.131-38.078V-3513.365z M952.197-3433.102
						c0,10.819,4.761,14.932,12.336,14.932c7.565,0,12.325-4.112,12.325-14.932v-81.78c0-10.814-4.76-14.926-12.325-14.926
						c-7.575,0-12.336,4.111-12.336,14.926V-3433.102z"/>
					<path fill="#FFFFFF" d="M1070.101-3398.268c-1.29-3.895-2.159-6.273-2.159-18.605v-23.801c0-14.061-4.764-19.252-15.578-19.252
						h-8.22v61.658h-23.798v-151.443h35.906c24.669,0,35.27,11.465,35.27,34.829v11.898c0,15.581-4.976,25.532-15.575,30.508v0.434
						c11.898,4.974,15.795,16.225,15.795,32.019v23.367c0,7.353,0.214,12.764,2.593,18.389H1070.101z M1044.144-3528.078v46.514
						h9.301c8.871,0,14.278-3.895,14.278-16.008v-14.928c0-10.82-3.675-15.578-12.113-15.578H1044.144z"/>
					<path fill="#FFFFFF" d="M1111.642-3549.711h23.798v151.443h-23.798V-3549.711z"/>
					<path fill="#FFFFFF" d="M1178.706-3507.957h-0.431v109.689h-21.42v-151.443h29.853l24.017,90.647h0.435v-90.647h21.198v151.443
						h-24.442L1178.706-3507.957z"/>
					<path fill="#FFFFFF" d="M1289.468-3426.176h0.434l17.96-123.535h21.847l-23.365,151.443h-35.48l-23.369-151.443h24.015
						L1289.468-3426.176z"/>
					<path fill="#FFFFFF" d="M1368.86-3485.889h32.674v21.634h-32.674v44.353h41.11v21.635h-64.906v-151.443h64.906v21.633h-41.11
						V-3485.889z"/>
					<path fill="#FFFFFF" d="M1478.769-3398.268c-1.303-3.895-2.16-6.273-2.16-18.605v-23.801c0-14.061-4.766-19.252-15.584-19.252
						h-8.225v61.658h-23.797v-151.443h35.917c24.666,0,35.269,11.465,35.269,34.829v11.898c0,15.581-4.98,25.532-15.58,30.508v0.434
						c11.898,4.974,15.795,16.225,15.795,32.019v23.367c0,7.353,0.217,12.764,2.6,18.389H1478.769z M1452.8-3528.078v46.514h9.311
						c8.868,0,14.278-3.895,14.278-16.008v-14.928c0-10.82-3.681-15.578-12.115-15.578H1452.8z"/>
				</g>
				<linearGradient id="SVGID_6_" gradientUnits="userSpaceOnUse" x1="715.5454" y1="-3317.71" x2="653.561" y2="-3562.8604">
					<stop  offset="0" style="stop-color:#5D9D47"/>
					<stop  offset="1" style="stop-color:#8EBC3F"/>
				</linearGradient>
				<path fill="url(#SVGID_6_)" d="M682.591-3574.397c-70.104,0-126.937,56.576-126.937,126.37
					c0,69.787,56.832,126.365,126.937,126.365c70.112,0,126.944-56.578,126.944-126.365
					C809.536-3517.821,752.704-3574.397,682.591-3574.397z M683.059-3370.523v-12.979c-0.82,0.029-1.634,0.058-2.45,0.058
					c-37.295,0-67.53-30.05-67.53-67.118c0-37.074,30.235-67.125,67.53-67.125c37.292,0,67.522,30.051,67.522,67.125
					c0,9.256-1.879,18.077-5.293,26.098l12.646,5.089C743.677-3390.905,715.734-3370.814,683.059-3370.523z"/>
			</g>
		</g>
	</g>
	<g>
		<g>
			<path fill="#FFFFFF" d="M2082.83-3348.226c-1.497-0.054-2.873-0.289-4.138-0.707c-1.26-0.416-2.351-1.016-3.266-1.788
				c-0.918-0.776-1.632-1.741-2.144-2.894c-0.511-1.151-0.78-2.487-0.808-4.014h2.905c0.195,2.303,0.966,3.961,2.309,4.971
				c1.353,1.014,3.061,1.518,5.141,1.518c0.831,0,1.644-0.102,2.435-0.309c0.794-0.211,1.482-0.521,2.081-0.939
				c0.596-0.414,1.081-0.945,1.456-1.599c0.372-0.653,0.563-1.423,0.563-2.311c0-1.024-0.232-1.873-0.686-2.538
				c-0.463-0.664-1.063-1.227-1.811-1.687c-0.745-0.457-1.604-0.844-2.561-1.163c-0.955-0.318-1.925-0.645-2.909-0.979
				c-0.989-0.333-1.955-0.689-2.916-1.082c-0.952-0.387-1.811-0.879-2.556-1.474c-0.752-0.597-1.358-1.339-1.811-2.228
				c-0.461-0.889-0.689-1.984-0.689-3.285c0-1.334,0.256-2.525,0.769-3.578c0.519-1.055,1.194-1.949,2.043-2.684
				c0.844-0.735,1.82-1.301,2.93-1.687c1.114-0.39,2.264-0.581,3.452-0.581c1.11,0,2.188,0.18,3.232,0.539
				c1.036,0.363,1.96,0.86,2.762,1.498c0.808,0.638,1.45,1.422,1.935,2.35c0.486,0.929,0.729,1.95,0.729,3.061h-2.917
				c-0.056-0.777-0.25-1.451-0.601-2.021c-0.346-0.568-0.788-1.04-1.328-1.413c-0.542-0.373-1.147-0.652-1.81-0.832
				c-0.668-0.18-1.335-0.271-2.002-0.271c-0.854,0-1.666,0.133-2.43,0.396c-0.767,0.262-1.433,0.63-1.996,1.102
				c-0.569,0.474-1.022,1.063-1.354,1.77c-0.33,0.707-0.498,1.491-0.498,2.352c0,0.942,0.224,1.721,0.667,2.329
				s1.026,1.13,1.745,1.561c0.717,0.43,1.539,0.796,2.453,1.101c0.914,0.309,1.855,0.611,2.835,0.917
				c0.966,0.304,1.918,0.651,2.847,1.04c0.928,0.387,1.767,0.887,2.514,1.498c1.917,1.553,2.872,3.547,2.872,5.989
				c0,1.331-0.271,2.507-0.815,3.517c-0.532,1.012-1.259,1.852-2.159,2.517c-0.902,0.663-1.913,1.169-3.038,1.519
				C2085.138-3348.399,2083.995-3348.226,2082.83-3348.226z"/>
			<path fill="#FFFFFF" d="M2178.309-3348.226c-2.078,0-4.086-0.4-6.026-1.206c-1.893-0.776-3.539-1.884-4.955-3.327
				c-1.442-1.414-2.551-3.066-3.329-4.953c-0.802-1.939-1.201-3.952-1.201-6.033c0-2.078,0.399-4.088,1.201-6.03
				c0.778-1.858,1.887-3.508,3.329-4.952c1.416-1.412,3.063-2.524,4.955-3.327c1.94-0.804,3.948-1.206,6.026-1.206
				c2.08,0,4.092,0.402,6.036,1.206c1.857,0.803,3.505,1.915,4.954,3.327c1.413,1.444,2.525,3.094,3.32,4.952
				c0.812,1.942,1.212,3.952,1.212,6.03c0,2.081-0.4,4.094-1.212,6.033c-0.795,1.887-1.907,3.539-3.32,4.953
				c-1.449,1.443-3.097,2.551-4.954,3.327C2182.401-3348.626,2180.389-3348.226,2178.309-3348.226z M2178.309-3376.351
				c-1.689,0-3.299,0.314-4.824,0.938c-1.523,0.622-2.881,1.544-4.075,2.765c-1.223,1.192-2.146,2.552-2.77,4.077
				c-0.62,1.528-0.934,3.138-0.934,4.825c0,1.693,0.313,3.302,0.934,4.828c0.624,1.525,1.547,2.885,2.77,4.076
				c1.194,1.223,2.552,2.142,4.075,2.768c1.525,0.625,3.135,0.934,4.824,0.934c1.688,0,3.304-0.309,4.826-0.934
				c1.531-0.626,2.893-1.545,4.084-2.768c1.212-1.191,2.136-2.551,2.762-4.076c0.623-1.526,0.937-3.135,0.937-4.828
				c0-1.688-0.313-3.297-0.937-4.825c-0.626-1.525-1.55-2.885-2.762-4.077c-1.191-1.221-2.553-2.143-4.084-2.765
				C2181.613-3376.037,2179.998-3376.351,2178.309-3376.351z"/>
			<path fill="#FFFFFF" d="M2267.26-3375.394v11.943h13.564v2.91h-13.564v11.357h-2.907v-29.121h19.383v2.91H2267.26z"/>
			<path fill="#FFFFFF" d="M2354.256-3375.394v-2.91h19.389v2.91h-8.242v26.211h-2.905v-26.211H2354.256z"/>
			<path fill="#FFFFFF" d="M2465.42-3349.183l-9.031-13.646l-9.021,13.646h-3.199v-29.121h2.907v24.294l9.313-14.103l9.326,14.103
				v-24.294h2.91v29.121H2465.42z"/>
			<path fill="#FFFFFF" d="M2548.01-3378.304h3.078l9.355,29.121h-3.071l-3.665-11.357h-8.319l-3.665,11.357h-3.076
				L2548.01-3378.304z M2546.304-3363.451h6.486l-3.241-10.112L2546.304-3363.451z"/>
			<path fill="#FFFFFF" d="M2647.354-3355.173c0-1.552-0.478-2.814-1.451-3.788c-1.057-0.968-2.523-1.498-4.408-1.579h-7.619v11.357
				h-2.903v-29.121h10.144c1.25,0,2.418,0.172,3.497,0.52c1.08,0.346,2.039,0.854,2.868,1.518c0.833,0.666,1.518,1.525,2.041,2.58
				c0.225,0.499,0.398,1.065,0.538,1.705c0.136,0.639,0.212,1.499,0.212,2.579c0,1.138-0.076,2.006-0.212,2.6
				c-0.14,0.595-0.313,1.144-0.538,1.646c-0.523,1.054-1.208,1.912-2.041,2.579c-0.137,0.112-0.269,0.217-0.39,0.31
				c-0.126,0.098-0.262,0.186-0.397,0.273c0.225,0.137,0.43,0.283,0.625,0.434c0.191,0.156,0.385,0.314,0.58,0.48
				c1.279,1.248,2.041,2.772,2.287,4.578c0.031,0.222,0.053,0.443,0.063,0.662c0.014,0.221,0.023,0.445,0.023,0.668v5.99h-2.918
				V-3355.173z M2645.655-3364.87c0.302-0.274,0.578-0.637,0.83-1.079c0.219-0.387,0.42-0.858,0.606-1.416
				c0.177-0.555,0.263-1.234,0.263-2.038c0-1.191-0.142-2.144-0.432-2.851c-0.294-0.706-0.717-1.281-1.268-1.729
				c-1.166-0.941-2.685-1.412-4.539-1.412h-7.24v11.943h7.24C2642.97-3363.451,2644.489-3363.921,2645.655-3364.87z"/>
			<path fill="#FFFFFF" d="M2723.711-3375.394v11.943h13.553v2.91h-13.553v8.447h16.469v2.91h-19.387v-29.121h19.387v2.91H2723.711z
				"/>
		</g>
		<g>
			<g>
				<path fill="#FFFFFF" d="M2105.616-3458.632l-7.356,13.846v46.516h-23.797v-151.443h23.797v65.554h0.434l30.718-65.554h23.806
					l-33.104,67.498l33.104,83.945h-24.452L2105.616-3458.632z"/>
				<path fill="#FFFFFF" d="M2164.895-3513.369c0-24.232,12.763-38.078,36.131-38.078c23.364,0,36.123,13.846,36.123,38.078v78.75
					c0,24.232-12.759,38.078-36.123,38.078c-23.368,0-36.131-13.846-36.131-38.078V-3513.369z M2188.69-3433.105
					c0,10.819,4.761,14.932,12.336,14.932c7.565,0,12.325-4.112,12.325-14.932v-81.78c0-10.814-4.76-14.926-12.325-14.926
					c-7.575,0-12.336,4.111-12.336,14.926V-3433.105z"/>
				<path fill="#FFFFFF" d="M2306.594-3398.271c-1.29-3.895-2.159-6.273-2.159-18.605v-23.801c0-14.061-4.764-19.252-15.578-19.252
					h-8.22v61.658h-23.798v-151.443h35.906c24.669,0,35.27,11.465,35.27,34.829v11.898c0,15.581-4.976,25.532-15.575,30.508v0.434
					c11.898,4.974,15.795,16.225,15.795,32.019v23.367c0,7.353,0.214,12.764,2.593,18.389H2306.594z M2280.637-3528.082v46.514
					h9.301c8.871,0,14.278-3.895,14.278-16.008v-14.928c0-10.82-3.675-15.578-12.113-15.578H2280.637z"/>
				<path fill="#FFFFFF" d="M2348.135-3549.714h23.798v151.443h-23.798V-3549.714z"/>
				<path fill="#FFFFFF" d="M2415.199-3507.96h-0.431v109.689h-21.42v-151.443h29.853l24.017,90.647h0.435v-90.647h21.198v151.443
					h-24.442L2415.199-3507.96z"/>
				<path fill="#FFFFFF" d="M2525.961-3426.179h0.434l17.96-123.535h21.847l-23.365,151.443h-35.48l-23.369-151.443h24.015
					L2525.961-3426.179z"/>
				<path fill="#FFFFFF" d="M2605.353-3485.892h32.674v21.634h-32.674v44.353h41.11v21.635h-64.906v-151.443h64.906v21.633h-41.11
					V-3485.892z"/>
				<path fill="#FFFFFF" d="M2715.262-3398.271c-1.303-3.895-2.16-6.273-2.16-18.605v-23.801c0-14.061-4.766-19.252-15.584-19.252
					h-8.225v61.658h-23.797v-151.443h35.917c24.666,0,35.269,11.465,35.269,34.829v11.898c0,15.581-4.98,25.532-15.58,30.508v0.434
					c11.898,4.974,15.795,16.225,15.795,32.019v23.367c0,7.353,0.217,12.764,2.6,18.389H2715.262z M2689.293-3528.082v46.514h9.311
					c8.868,0,14.278-3.895,14.278-16.008v-14.928c0-10.82-3.681-15.578-12.115-15.578H2689.293z"/>
			</g>
			<linearGradient id="SVGID_7_" gradientUnits="userSpaceOnUse" x1="1952.0386" y1="-3317.7119" x2="1890.054" y2="-3562.8633">
				<stop  offset="0" style="stop-color:#5D9D47"/>
				<stop  offset="1" style="stop-color:#8EBC3F"/>
			</linearGradient>
			<path fill="url(#SVGID_7_)" d="M1919.084-3574.401c-70.104,0-126.937,56.576-126.937,126.37
				c0,69.787,56.832,126.365,126.937,126.365c70.112,0,126.944-56.578,126.944-126.365
				C2046.029-3517.825,1989.197-3574.401,1919.084-3574.401z M1919.552-3370.527v-12.979c-0.82,0.029-1.634,0.058-2.45,0.058
				c-37.295,0-67.53-30.05-67.53-67.118c0-37.074,30.235-67.125,67.53-67.125c37.292,0,67.522,30.051,67.522,67.125
				c0,9.256-1.879,18.077-5.293,26.098l12.646,5.089C1980.17-3390.909,1952.227-3370.818,1919.552-3370.527z"/>
		</g>
	</g>
	<rect x="37.175" y="-1791.517" fill="none" width="285.083" height="192"/>
	<text transform="matrix(1 0 0 1 37.1748 -1782.6133)"><tspan x="0" y="0" fill="#FFFFFF" font-family="'Montserrat-Regular'" font-size="12">- Salvadoran Citizen </tspan><tspan x="0" y="14.4" fill="#FFFFFF" font-family="'Montserrat-Regular'" font-size="12">-GPA: 7.0 (Minimum)  or higher </tspan><tspan x="0" y="28.801" fill="#FFFFFF" font-family="'Montserrat-Regular'" font-size="12">-Command of HTML, CSS, JavaScript </tspan><tspan x="0" y="43.2" fill="#FFFFFF" font-family="'Montserrat-Regular'" font-size="12">-Knowledge of C#/.NET, React/ Redux, and </tspan><tspan x="0" y="57.601" fill="#FFFFFF" font-family="'Montserrat-Regular'" font-size="12">Node.js </tspan><tspan x="0" y="72.001" fill="#FFFFFF" font-family="'Montserrat-Regular'" font-size="12">-Understanding of API design (REST) and </tspan><tspan x="0" y="86.4" fill="#FFFFFF" font-family="'Montserrat-Regular'" font-size="12">software </tspan><tspan x="0" y="100.801" fill="#FFFFFF" font-family="'Montserrat-Regular'" font-size="12">design patterns (MS-MVC) </tspan><tspan x="0" y="115.2" fill="#FFFFFF" font-family="'Montserrat-Regular'" font-size="12">-Knowledge of relational and non relational </tspan><tspan x="0" y="129.601" fill="#FFFFFF" font-family="'Montserrat-Regular'" font-size="12">Databases </tspan><tspan x="0" y="144.001" fill="#FFFFFF" font-family="'Montserrat-Regular'" font-size="12">(MS SQL, Posgres) </tspan></text>
	<rect x="565.592" y="-1723.517" fill="none" width="302.576" height="316.713"/>
	<text transform="matrix(1 0 0 1 565.5933 -1707.1865)"><tspan x="0" y="0" fill="#FFFFFF" font-family="'MyriadPro-Semibold'" font-size="23">REQUIREMENTS: </tspan><tspan x="0" y="14.4" fill="#FFFFFF" font-family="'MyriadPro-Semibold'" font-size="12"> </tspan><tspan x="0" y="28.8" fill="#FFFFFF" font-family="'MyriadPro-Semibold'" font-size="12">- Salvadoran Citizen </tspan><tspan x="0" y="43.2" fill="#FFFFFF" font-family="'MyriadPro-Semibold'" font-size="12">-GPA: 7.0 (Minimum)  or higher </tspan><tspan x="0" y="57.601" fill="#FFFFFF" font-family="'MyriadPro-Semibold'" font-size="12">- For Junior Intern: Currently enrolled in 4th or 5th year of: </tspan><tspan x="0" y="72" fill="#FFFFFF" font-family="'MyriadPro-Semibold'" font-size="12">B.S. in Computer Sciences </tspan><tspan x="0" y="86.4" fill="#FFFFFF" font-family="'MyriadPro-Semibold'" font-size="12">-For Senior Intern: Currently enrolled in a Master´s </tspan><tspan x="0" y="100.8" fill="#FFFFFF" font-family="'MyriadPro-Semibold'" font-size="12">Program in Computer Sciences (applicants with a </tspan><tspan x="0" y="115.2" fill="#FFFFFF" font-family="'MyriadPro-Semibold'" font-size="12">Bachelors Degree in CS wanting to outgrow their </tspan><tspan x="0" y="129.601" fill="#FFFFFF" font-family="'MyriadPro-Semibold'" font-size="12">first opportunity are also welcome to apply). </tspan><tspan x="0" y="144" fill="#FFFFFF" font-family="'MyriadPro-Semibold'" font-size="12">-Command of HTML, CSS, JavaScript </tspan><tspan x="0" y="158.4" fill="#FFFFFF" font-family="'MyriadPro-Semibold'" font-size="12">-Knowledge of C#/.NET, React/ Redux, and Node.js </tspan><tspan x="0" y="172.8" fill="#FFFFFF" font-family="'MyriadPro-Semibold'" font-size="12">-Understanding of API design (REST) and software </tspan><tspan x="0" y="187.2" fill="#FFFFFF" font-family="'MyriadPro-Semibold'" font-size="12">design patterns (MS-MVC) </tspan><tspan x="0" y="201.601" fill="#FFFFFF" font-family="'MyriadPro-Semibold'" font-size="12">-Knowledge of relational and non relational Databases </tspan><tspan x="0" y="216" fill="#FFFFFF" font-family="'MyriadPro-Semibold'" font-size="12">(MS SQL, Posgres) </tspan><tspan x="0" y="230.4" fill="#FFFFFF" font-family="'MyriadPro-Semibold'" font-size="12"> </tspan><tspan x="0" y="244.8" fill="#FFFFFF" font-family="'MyriadPro-Semibold'" font-size="12">Other Skills </tspan><tspan x="0" y="259.2" fill="#FFFFFF" font-family="'MyriadPro-Semibold'" font-size="12">-Command of Git. </tspan><tspan x="0" y="273.601" fill="#FFFFFF" font-family="'MyriadPro-Semibold'" font-size="12">-Excellent research and learning skills </tspan><tspan x="0" y="288" fill="#FFFFFF" font-family="'MyriadPro-Semibold'" font-size="12">-Advanced level of English - TOEFL ITP score 550</tspan></text>
	<rect x="417.55" y="-1538.89" fill="none" width="296.084" height="119.796"/>
	<text transform="matrix(1 0 0 1 417.5503 -1529.9863)"><tspan x="0" y="0" fill="#FFFFFF" font-family="'Montserrat-Regular'" font-size="12">Other Skills </tspan><tspan x="0" y="14.4" fill="#FFFFFF" font-family="'Montserrat-Regular'" font-size="12">-Command of Git. </tspan><tspan x="0" y="28.801" fill="#FFFFFF" font-family="'Montserrat-Regular'" font-size="12">-Excellent research and learning skills </tspan><tspan x="0" y="43.2" fill="#FFFFFF" font-family="'Montserrat-Regular'" font-size="12">-Advanced level of English - TOEFL ITP score 550</tspan></text>
	<rect x="242.655" y="-1657.517" fill="none" width="285.083" height="116"/>
	<text transform="matrix(1 0 0 1 242.6538 -1648.6133)"><tspan x="0" y="0" fill="#FFFFFF" font-family="'Montserrat-Regular'" font-size="12">-For Senior Intern: Currently enrolled in a </tspan><tspan x="0" y="14.4" fill="#FFFFFF" font-family="'Montserrat-Regular'" font-size="12">Master´s </tspan><tspan x="0" y="28.801" fill="#FFFFFF" font-family="'Montserrat-Regular'" font-size="12">Program in Computer Sciences (applicants </tspan><tspan x="0" y="43.2" fill="#FFFFFF" font-family="'Montserrat-Regular'" font-size="12">with a </tspan><tspan x="0" y="57.601" fill="#FFFFFF" font-family="'Montserrat-Regular'" font-size="12">Bachelors Degree in CS wanting to outgrow </tspan><tspan x="0" y="72.001" fill="#FFFFFF" font-family="'Montserrat-Regular'" font-size="12">their </tspan><tspan x="0" y="86.4" fill="#FFFFFF" font-family="'Montserrat-Regular'" font-size="12">first opportunity are also welcome to apply).</tspan></text>
	<rect x="467.63" y="-1620.268" fill="none" width="302.576" height="41.502"/>
	<text transform="matrix(1 0 0 1 467.6304 -1611.3633)"><tspan x="0" y="0" fill="#FFFFFF" font-family="'Montserrat-Regular'" font-size="12">- For Junior Intern: Currently enrolled in 4th or 5th </tspan><tspan x="0" y="14.399" fill="#FFFFFF" font-family="'Montserrat-Regular'" font-size="12">year of: </tspan><tspan x="0" y="28.8" fill="#FFFFFF" font-family="'Montserrat-Regular'" font-size="12">B.S. in Computer Sciences</tspan></text>
	<circle fill="#59C8DC" cx="1472.97" cy="-2020.403" r="102.994"/>
	<circle fill="#59C8DC" cx="1468.36" cy="-1765.014" r="102.994"/>
	<circle fill="#59C8DC" cx="1482.23" cy="-1496.166" r="102.994"/>
	<circle fill="#59C8DC" cx="1472.97" cy="-1251.799" r="102.994"/>
	<path fill-rule="evenodd" clip-rule="evenodd" fill="#FFFFFF" d="M1464.964-1238.789c-12.276,9.135-24.553,18.268-37.122,27.619
		c-4.218-7.336-8.229-14.314-12.495-21.734c14.596-6.334,28.757-12.477,43.473-18.861c-14.74-6.391-28.906-12.533-43.478-18.854
		c4.226-7.35,8.245-14.338,12.5-21.736c12.546,9.334,24.816,18.463,38.045,28.305c-1.879-16.232-3.634-31.398-5.423-46.855
		c8.271,0,16.322,0,24.975,0c-1.764,15.338-3.521,30.615-5.389,46.857c13.024-9.693,25.303-18.834,38.023-28.303
		c4.215,7.314,8.274,14.361,12.524,21.734c-14.523,6.295-28.604,12.396-43.478,18.842c14.722,6.391,28.813,12.508,43.456,18.863
		c-4.195,7.311-8.24,14.357-12.487,21.756c-12.634-9.41-24.917-18.561-38.046-28.342c1.862,16.141,3.614,31.313,5.404,46.807
		c-8.384,0-16.519,0-24.976,0c1.783-15.352,3.537-30.461,5.292-45.57C1465.498-1238.438,1465.231-1238.613,1464.964-1238.789z"/>
	<g>
		<path d="M1405.934-1765.014c2.993,0.908,4.329,2.887,4.329,7.163v5.078c0,2.352,1.283,3.688,3.795,3.688h0.535v9.086h-3.955
			c-8.285,0-12.455-4.169-12.455-11.385v-6.734c0-1.604-0.963-2.353-2.299-2.353h-1.764v-9.087h1.764
			c1.336,0,2.299-0.748,2.299-2.353v-6.734c0-7.217,4.17-11.386,12.455-11.386h3.955v9.087h-0.535c-2.512,0-3.795,1.336-3.795,3.688
			v5.078C1410.263-1767.9,1408.927-1765.922,1405.934-1765.014z"/>
		<path d="M1450.136-1790.029v39.662h-11.492v-2.405c-1.764,1.978-4.383,2.939-8.018,2.939c-7.645,0-14.111-5.772-14.111-15.181
			c0-9.407,6.467-15.127,14.111-15.127c3.207,0,5.666,0.802,7.43,2.512v-12.4H1450.136z M1438.27-1765.014
			c0-3.795-2.085-5.719-4.757-5.719c-2.673,0-4.758,1.924-4.758,5.719s2.085,5.773,4.758,5.773
			C1436.185-1759.24,1438.27-1761.219,1438.27-1765.014z"/>
		<path d="M1478.089-1760.897l6.307,6.361c-2.887,3.1-7.002,4.703-12.775,4.703c-10.744,0-17.692-6.468-17.692-15.181
			c0-8.873,7.163-15.127,16.784-15.127c8.499,0,15.875,5.238,15.875,14.967l-19.991,3.849c0.962,1.817,2.779,2.565,5.399,2.565
			C1474.667-1758.76,1476.165-1759.454,1478.089-1760.897z M1465.794-1767.045l9.354-1.816c-0.642-1.818-2.192-3.048-4.384-3.048
			C1468.04-1771.909,1466.168-1770.359,1465.794-1767.045z"/>
		<path d="M1522.398-1779.606l-11.76,29.239h-12.508l-11.76-29.239h12.402l5.879,15.662l6.308-15.662H1522.398z"/>
		<path d="M1542.6-1769.557v9.087h-1.764c-1.337,0-2.298,0.748-2.298,2.353v6.734c0,7.216-4.17,11.385-12.455,11.385h-3.955v-9.086
			h0.533c2.513,0,3.796-1.337,3.796-3.688v-5.078c0-4.276,1.337-6.255,4.329-7.163c-2.992-0.908-4.329-2.887-4.329-7.162v-5.078
			c0-2.353-1.283-3.688-3.796-3.688h-0.533v-9.087h3.955c8.285,0,12.455,4.169,12.455,11.386v6.734c0,1.604,0.961,2.353,2.298,2.353
			H1542.6z"/>
	</g>
	<g>
		<path d="M1401.324-2017.403c2.994,0.908,4.33,2.886,4.33,7.162v5.078c0,2.352,1.283,3.688,3.795,3.688h0.535v9.087h-3.956
			c-8.286,0-12.454-4.17-12.454-11.386v-6.734c0-1.604-0.963-2.353-2.299-2.353h-1.764v-9.087h1.764
			c1.336,0,2.299-0.748,2.299-2.352v-6.735c0-7.217,4.168-11.386,12.454-11.386h3.956v9.087h-0.535
			c-2.512,0-3.795,1.337-3.795,3.689v5.077C1405.654-2020.29,1404.318-2018.313,1401.324-2017.403z"/>
		<path d="M1413.562-2040.175h18.441c12.508,0,21.113,7.109,21.113,18.709c0,11.599-8.605,18.708-21.113,18.708h-18.441V-2040.175z
			 M1431.468-2012.593c5.292,0,8.927-3.153,8.927-8.873s-3.635-8.873-8.927-8.873h-5.291v17.746H1431.468z"/>
		<path d="M1491.492-2005.217c-3.955,2.031-9.942,3.314-15.822,3.314c-12.936,0-19.617-4.864-19.617-11.652
			c0-3.742,2.084-6.896,5.88-8.553c-2.887-1.604-4.329-4.276-4.329-7.27c0-6.094,5.826-11.653,18.814-11.653
			c5.186,0,10.264,0.963,14.006,2.459l-3.422,9.194c-3.581-1.443-6.842-2.031-10.103-2.031c-4.597,0-6.575,1.122-6.575,2.833
			c0,1.39,0.855,2.299,3.475,2.299h10.959v9.301h-11.814c-2.886,0-4.168,1.016-4.168,2.565c0,1.71,2.031,2.887,7.375,2.887
			c3.689,0,8.34-1.069,11.654-2.833L1491.492-2005.217z"/>
		<path d="M1534.838-2040.175l-15.821,37.417h-12.402l-15.822-37.417h13.578l8.926,21.862l9.141-21.862H1534.838z"/>
		<path d="M1556.429-2021.947v9.087h-1.764c-1.336,0-2.299,0.748-2.299,2.353v6.734c0,7.216-4.169,11.386-12.454,11.386h-3.956
			v-9.087h0.535c2.512,0,3.795-1.337,3.795-3.688v-5.078c0-4.276,1.336-6.254,4.33-7.162c-2.994-0.909-4.33-2.887-4.33-7.163v-5.077
			c0-2.353-1.283-3.689-3.795-3.689h-0.535v-9.087h3.956c8.285,0,12.454,4.169,12.454,11.386v6.735c0,1.604,0.963,2.352,2.299,2.352
			H1556.429z"/>
	</g>
	<g>
		<g>
			<g>
				<path fill="#FFFFFF" d="M557.753,134.046h-7.623v25.563h7.623c7.623,0,12.858-4.542,12.858-12.781
					C570.612,138.589,565.376,134.046,557.753,134.046z"/>
			</g>
			<g>
				<g>
					<path fill="#FFFFFF" d="M617.534-0.001c-81.938,0-148.359,66.423-148.359,148.359c0,81.938,66.422,148.358,148.359,148.358
						s148.358-66.421,148.358-148.358C765.892,66.422,699.471-0.001,617.534-0.001z M526.804,129.733h-0.771
						c-3.618,0-5.467,1.926-5.467,5.314v7.313c0,6.159-1.924,9.009-6.237,10.317c4.313,1.309,6.237,4.157,6.237,10.317v7.314
						c0,3.388,1.849,5.313,5.467,5.313h0.771v13.09h-5.697c-11.936,0-17.94-6.008-17.94-16.401v-9.7
						c0-2.312-1.387-3.389-3.312-3.389h-2.54v-13.09h2.54c1.925,0,3.312-1.078,3.312-3.387v-9.703c0-10.395,6.005-16.4,17.94-16.4
						h5.697V129.733z M558.523,173.775h-26.564v-53.897h26.564c18.017,0,30.414,10.24,30.414,26.949
						C588.937,163.534,576.54,173.775,558.523,173.775z M621.421,175.008c-18.633,0-28.258-7.007-28.258-16.784
						c0-5.391,3.004-9.934,8.472-12.32c-4.158-2.311-6.237-6.16-6.237-10.472c0-8.778,8.393-16.786,27.103-16.786
						c7.468,0,14.783,1.387,20.174,3.542l-4.928,13.244c-5.158-2.079-9.856-2.926-14.553-2.926c-6.622,0-9.471,1.616-9.471,4.081
						c0,2.002,1.231,3.311,5.005,3.311h15.784v13.398h-17.017c-4.157,0-6.005,1.463-6.005,3.695c0,2.463,2.926,4.158,10.624,4.158
						c5.313,0,12.012-1.541,16.786-4.081l5.313,13.165C638.516,173.159,629.893,175.008,621.421,175.008z M683.862,173.775h-17.863
						l-22.791-53.897h19.557l12.859,31.492l13.166-31.492h17.864L683.862,173.775z M735.212,159.224
						c-1.925,0-3.311,1.077-3.311,3.389v9.7c0,10.394-6.005,16.401-17.939,16.401h-5.698v-13.09h0.77
						c3.619,0,5.466-1.926,5.466-5.313v-7.314c0-6.16,1.926-9.009,6.238-10.317c-4.313-1.309-6.238-4.158-6.238-10.317v-7.313
						c0-3.389-1.847-5.314-5.466-5.314h-0.77v-13.09h5.698c11.935,0,17.939,6.006,17.939,16.4v9.703
						c0,2.309,1.386,3.387,3.311,3.387h2.54v13.09H735.212z"/>
				</g>
			</g>
		</g>
	</g>
	<g>
		<path fill-rule="evenodd" clip-rule="evenodd" fill="#231F20" d="M1470.612-1435.594c-14.174,0-28.347,0.006-42.521-0.004
			c-4.664-0.004-6.451-1.828-6.451-6.541c-0.003-35.934-0.004-71.867,0-107.801c0-4.914,1.863-6.799,6.778-6.801
			c28.188-0.01,56.377-0.014,84.564-0.008c5.014,0.002,7.127,2.473,6.879,7.432c-0.227,4.52-0.08,9.059-0.125,13.59
			c-0.013,1.182,0.65,1.762,1.596,2.295c7.94,4.48,14.143,10.697,17.813,19.072c6.497,14.82,4.273,28.563-5.768,41.119
			c-3.062,3.828-6.776,6.963-11.05,9.32c-1.961,1.082-2.634,2.463-2.613,4.549c0.055,5.215,0.018,10.432,0.016,15.648
			c-0.001,0.896,0.013,1.791-0.016,2.688c-0.109,3.387-2.068,5.402-5.479,5.422c-9.168,0.049-18.335,0.025-27.503,0.029
			c-5.374,0.002-10.749,0-16.122,0C1470.612-1435.588,1470.612-1435.592,1470.612-1435.594z M1432.396-1496.129
			c0,15.705,0,31.41,0,47.117c0,2.496,0.12,2.633,2.555,2.637c6.693,0.01,13.387,0.01,20.08,0.01
			c17.181,0.002,34.362,0.006,51.543,0.002c2.131,0,2.372-0.246,2.38-2.361c0.011-2.584,0.016-5.166-0.014-7.748
			c-0.023-2.123-0.448-2.469-2.593-2.143c-2.1,0.32-4.229,0.35-6.307,0.107c-11.235-1.305-20.689-6.137-27.76-15.018
			c-9.419-11.83-12.094-24.92-6.309-39.242c6.028-14.93,22.291-27.436,41.269-25.137c1.164,0.141,1.676-0.383,1.687-1.502
			c0.013-1.264,0.036-2.529,0.03-3.795c-0.01-2.641-0.143-2.779-2.768-2.779c-23.611-0.004-47.223-0.004-70.833,0.002
			c-2.904,0-2.962,0.059-2.963,2.891C1432.39-1527.436,1432.392-1511.783,1432.396-1496.129z M1502.895-1527.377
			c-16.246-0.193-28.403,11.633-29.061,27.582c-0.705,17.104,11.324,30.709,29.339,30.512c16.208-0.176,28.623-11.379,28.799-28.832
			C1532.146-1515.209,1519.977-1527.342,1502.895-1527.377z"/>
		<path fill-rule="evenodd" clip-rule="evenodd" fill="#231F20" d="M1482.168-1502.986c1.558-0.018,2.857,0.545,3.958,1.658
			c2.593,2.619,5.202,5.223,7.82,7.818c1.438,1.426,1.608,1.428,3.045-0.006c6.747-6.734,13.493-13.467,20.216-20.225
			c1.211-1.219,2.533-1.928,4.314-1.936c2.124-0.008,3.671,0.834,4.67,2.65c0.995,1.813,0.939,3.656-0.183,5.396
			c-0.451,0.701-1.031,1.332-1.623,1.926c-8.108,8.127-16.226,16.246-24.349,24.357c-3.139,3.133-6.006,3.143-9.152,0.008
			c-4.178-4.162-8.36-8.32-12.477-12.545c-1.577-1.619-2.191-3.553-1.184-5.787
			C1478.159-1501.74,1479.946-1502.975,1482.168-1502.986z"/>
	</g>
	<path fill="#59C8DC" d="M1801.476-2021.466c0-5.72-3.635-8.873-8.926-8.873h-5.292v17.746h5.292
		C1797.841-2012.593,1801.476-2015.746,1801.476-2021.466z"/>
	<path fill="#59C8DC" d="M1834.051-1914.409c56.882,0,102.995-46.111,102.995-102.994c0-56.882-46.113-102.994-102.995-102.994
		s-102.994,46.112-102.994,102.994C1731.057-1960.521,1777.169-1914.409,1834.051-1914.409z M1897.039-2001.475h0.534
		c2.513,0,3.796-1.337,3.796-3.688v-5.078c0-4.276,1.336-6.254,4.33-7.162c-2.994-0.909-4.33-2.887-4.33-7.163v-5.077
		c0-2.353-1.283-3.689-3.796-3.689h-0.534v-9.087h3.955c8.285,0,12.455,4.169,12.455,11.386v6.735c0,1.604,0.962,2.352,2.299,2.352
		h1.764v9.087h-1.764c-1.337,0-2.299,0.748-2.299,2.353v6.734c0,7.216-4.17,11.386-12.455,11.386h-3.955V-2001.475z
		 M1865.452-2040.175l8.927,21.862l9.141-21.862h12.4l-15.821,37.417h-12.401l-15.822-37.417H1865.452z M1818.684-2029.377
		c0-6.094,5.827-11.653,18.815-11.653c5.185,0,10.264,0.963,14.005,2.459l-3.421,9.194c-3.582-1.443-6.842-2.031-10.104-2.031
		c-4.596,0-6.574,1.122-6.574,2.833c0,1.39,0.855,2.299,3.475,2.299h10.958v9.301h-11.813c-2.887,0-4.169,1.016-4.169,2.565
		c0,1.71,2.031,2.887,7.376,2.887c3.688,0,8.339-1.069,11.653-2.833l3.688,9.14c-3.956,2.031-9.943,3.314-15.822,3.314
		c-12.936,0-19.617-4.864-19.617-11.652c0-3.742,2.084-6.896,5.879-8.553C1820.126-2023.711,1818.684-2026.384,1818.684-2029.377z
		 M1774.644-2040.175h18.44c12.509,0,21.114,7.109,21.114,18.709c0,11.599-8.605,18.708-21.114,18.708h-18.44V-2040.175z
		 M1754.655-2003.773v-6.734c0-1.604-0.962-2.353-2.298-2.353h-1.765v-9.087h1.765c1.336,0,2.298-0.748,2.298-2.352v-6.735
		c0-7.217,4.169-11.386,12.454-11.386h3.956v9.087h-0.534c-2.513,0-3.795,1.337-3.795,3.689v5.077c0,4.276-1.337,6.254-4.33,7.163
		c2.993,0.908,4.33,2.886,4.33,7.162v5.078c0,2.352,1.282,3.688,3.795,3.688h0.534v9.087h-3.956
		C1758.824-1992.388,1754.655-1996.558,1754.655-2003.773z"/>
	<path fill="#59C8DC" d="M1829.441-1662.02c56.883,0,102.995-46.111,102.995-102.994c0-56.882-46.112-102.994-102.995-102.994
		c-56.882,0-102.994,46.112-102.994,102.994C1726.447-1708.131,1772.559-1662.02,1829.441-1662.02z M1883.209-1790.029h3.955
		c8.286,0,12.455,4.169,12.455,11.386v6.734c0,1.604,0.962,2.353,2.298,2.353h1.764v9.087h-1.764c-1.336,0-2.298,0.748-2.298,2.353
		v6.734c0,7.216-4.169,11.385-12.455,11.385h-3.955v-9.086h0.534c2.512,0,3.795-1.337,3.795-3.688v-5.078
		c0-4.276,1.337-6.255,4.33-7.163c-2.993-0.908-4.33-2.887-4.33-7.162v-5.078c0-2.353-1.283-3.688-3.795-3.688h-0.534V-1790.029z
		 M1859.854-1779.606l5.88,15.662l6.307-15.662h11.439l-11.76,29.239h-12.508l-11.76-29.239H1859.854z M1831.793-1780.141
		c8.499,0,15.876,5.238,15.876,14.967l-19.992,3.849c0.963,1.817,2.779,2.565,5.399,2.565c2.673,0,4.169-0.694,6.094-2.138
		l6.308,6.361c-2.887,3.1-7.002,4.703-12.775,4.703c-10.744,0-17.693-6.468-17.693-15.181
		C1815.009-1773.887,1822.172-1780.141,1831.793-1780.141z M1791.708-1780.141c3.207,0,5.666,0.802,7.43,2.512v-12.4h12.08v39.662
		h-11.492v-2.405c-1.764,1.978-4.383,2.939-8.018,2.939c-7.645,0-14.112-5.772-14.112-15.181
		C1777.596-1774.421,1784.064-1780.141,1791.708-1780.141z M1755.203-1769.557h1.764c1.336,0,2.299-0.748,2.299-2.353v-6.734
		c0-7.217,4.169-11.386,12.454-11.386h3.956v9.087h-0.535c-2.512,0-3.795,1.336-3.795,3.688v5.078c0,4.275-1.336,6.254-4.33,7.162
		c2.994,0.908,4.33,2.887,4.33,7.163v5.078c0,2.352,1.283,3.688,3.795,3.688h0.535v9.086h-3.956
		c-8.285,0-12.454-4.169-12.454-11.385v-6.734c0-1.604-0.963-2.353-2.299-2.353h-1.764V-1769.557z"/>
	<path fill="#59C8DC" d="M1794.594-1759.24c2.673,0,4.757-1.979,4.757-5.773s-2.084-5.719-4.757-5.719s-4.757,1.924-4.757,5.719
		S1791.921-1759.24,1794.594-1759.24z"/>
	<path fill="#59C8DC" d="M1831.847-1771.909c-2.727,0-4.598,1.55-4.971,4.864l9.354-1.816
		C1835.589-1770.68,1834.039-1771.909,1831.847-1771.909z"/>
	<g>
		<path fill="#FFFFFF" d="M1086.708,296.717c81.936,0,148.358-66.422,148.358-148.359c0-81.936-66.423-148.358-148.358-148.358
			c-81.938,0-148.359,66.423-148.359,148.358C938.348,230.295,1004.77,296.717,1086.708,296.717z M1164.157,112.324h5.697
			c11.935,0,17.941,6.005,17.941,16.4v9.701c0,2.311,1.386,3.389,3.312,3.389h2.54v13.089h-2.54c-1.926,0-3.312,1.077-3.312,3.389
			v9.7c0,10.395-6.007,16.399-17.941,16.399h-5.697v-13.088h0.77c3.62,0,5.468-1.926,5.468-5.313v-7.314
			c0-6.16,1.925-9.01,6.236-10.318c-4.312-1.308-6.236-4.158-6.236-10.316v-7.314c0-3.389-1.848-5.313-5.468-5.313h-0.77V112.324z
			 M1130.514,127.338l8.469,22.561l9.087-22.561h16.477l-16.939,42.117h-18.017l-16.939-42.117H1130.514z M1090.094,126.568
			c12.244,0,22.867,7.545,22.867,21.559l-28.795,5.544c1.384,2.618,4.004,3.695,7.776,3.695c3.85,0,6.007-1,8.777-3.079l9.085,9.163
			c-4.157,4.465-10.086,6.774-18.401,6.774c-15.477,0-25.484-9.316-25.484-21.867
			C1065.919,135.576,1076.236,126.568,1090.094,126.568z M1032.352,126.568c4.62,0,8.162,1.154,10.702,3.617v-17.861h17.402v57.131
			h-16.556v-3.465c-2.54,2.85-6.313,4.234-11.549,4.234c-11.01,0-20.326-8.314-20.326-21.867
			C1012.026,134.807,1021.342,126.568,1032.352,126.568z M979.767,141.814h2.542c1.925,0,3.31-1.078,3.31-3.389v-9.701
			c0-10.396,6.007-16.4,17.941-16.4h5.697v13.089h-0.77c-3.619,0-5.467,1.925-5.467,5.313v7.314c0,6.158-1.926,9.009-6.235,10.316
			c4.31,1.309,6.235,4.158,6.235,10.318v7.314c0,3.388,1.848,5.313,5.467,5.313h0.77v13.088h-5.697
			c-11.935,0-17.941-6.005-17.941-16.399v-9.7c0-2.312-1.385-3.389-3.31-3.389h-2.542V141.814z"/>
		<path fill="#FFFFFF" d="M1036.51,156.674c3.851,0,6.854-2.85,6.854-8.316c0-5.466-3.003-8.237-6.854-8.237
			c-3.849,0-6.852,2.771-6.852,8.237C1029.659,153.824,1032.662,156.674,1036.51,156.674z"/>
		<path fill="#FFFFFF" d="M1090.171,138.426c-3.926,0-6.621,2.232-7.161,7.006l13.477-2.616
			C1095.561,140.196,1093.329,138.426,1090.171,138.426z"/>
	</g>
	<path fill="#59C8DC" d="M1843.312-1599.16c-56.883,0-102.994,46.112-102.994,102.994c0,56.883,46.111,102.994,102.994,102.994
		s102.994-46.111,102.994-102.994C1946.306-1553.048,1900.195-1599.16,1843.312-1599.16z M1894.46-1473.24
		c-3.063,3.828-6.777,6.963-11.051,9.32c-1.961,1.082-2.633,2.463-2.613,4.549c0.055,5.215,0.018,10.432,0.016,15.648
		c0,0.896,0.014,1.791-0.016,2.688c-0.109,3.387-2.068,5.402-5.479,5.422c-9.168,0.049-18.334,0.025-27.502,0.029
		c-5.375,0.002-10.75,0-16.123,0c0-0.004,0-0.008,0-0.01c-14.174,0-28.347,0.006-42.52-0.004c-4.665-0.004-6.451-1.828-6.452-6.541
		c-0.003-35.934-0.003-71.867,0-107.801c0.001-4.914,1.864-6.799,6.778-6.801c28.188-0.01,56.377-0.014,84.564-0.008
		c5.014,0.002,7.127,2.473,6.879,7.432c-0.227,4.52-0.08,9.059-0.125,13.59c-0.012,1.182,0.65,1.762,1.596,2.295
		c7.941,4.48,14.143,10.697,17.814,19.072C1906.724-1499.539,1904.501-1485.797,1894.46-1473.24z"/>
	<path fill="#59C8DC" d="M1863.976-1527.377c-16.246-0.193-28.402,11.633-29.061,27.582c-0.705,17.104,11.324,30.709,29.34,30.512
		c16.207-0.176,28.623-11.379,28.799-28.832C1893.228-1515.209,1881.058-1527.342,1863.976-1527.377z M1887.273-1513.025
		c0.996,1.813,0.939,3.656-0.182,5.396c-0.451,0.701-1.031,1.332-1.623,1.926c-8.109,8.127-16.227,16.246-24.35,24.357
		c-3.139,3.133-6.006,3.143-9.152,0.008c-4.178-4.162-8.359-8.32-12.477-12.545c-1.576-1.619-2.191-3.553-1.184-5.787
		c0.934-2.07,2.721-3.305,4.943-3.316c1.559-0.018,2.857,0.545,3.959,1.658c2.592,2.619,5.201,5.223,7.82,7.818
		c1.438,1.426,1.607,1.428,3.045-0.006c6.746-6.734,13.492-13.467,20.215-20.225c1.211-1.219,2.533-1.928,4.314-1.936
		C1884.728-1515.684,1886.275-1514.842,1887.273-1513.025z"/>
	<path fill="#59C8DC" d="M1867.429-1458.615c-2.1,0.32-4.229,0.35-6.307,0.107c-11.236-1.305-20.689-6.137-27.76-15.018
		c-9.42-11.83-12.094-24.92-6.31-39.242c6.028-14.93,22.292-27.436,41.269-25.137c1.164,0.141,1.676-0.383,1.688-1.502
		c0.012-1.264,0.035-2.529,0.029-3.795c-0.01-2.641-0.143-2.779-2.768-2.779c-23.611-0.004-47.223-0.004-70.833,0.002
		c-2.903,0-2.962,0.059-2.962,2.891c-0.005,15.652-0.002,31.305,0.002,46.959c0,15.705,0,31.41,0,47.117
		c0,2.496,0.119,2.633,2.555,2.637c6.693,0.01,13.386,0.01,20.079,0.01c17.181,0.002,34.362,0.006,51.544,0.002
		c2.131,0,2.371-0.246,2.379-2.361c0.012-2.584,0.016-5.166-0.014-7.748C1869.998-1458.596,1869.574-1458.941,1867.429-1458.615z"/>
	<g>
		<path fill="#FFFFFF" d="M1555.881,0c-81.938,0-148.359,66.422-148.359,148.358c0,81.938,66.422,148.358,148.359,148.358
			c81.937,0,148.358-66.421,148.358-148.358C1704.24,66.422,1637.818,0,1555.881,0z M1629.558,181.382
			c-4.411,5.515-9.763,10.03-15.918,13.426c-2.825,1.559-3.793,3.548-3.765,6.552c0.079,7.512,0.025,15.027,0.022,22.541
			c0,1.292,0.02,2.58-0.022,3.871c-0.157,4.879-2.979,7.783-7.892,7.811c-13.206,0.07-26.409,0.037-39.615,0.043
			c-7.742,0.002-15.485,0-23.225,0c0-0.006,0-0.012,0-0.015c-20.417,0-40.832,0.009-61.248-0.006
			c-6.72-0.005-9.292-2.634-9.294-9.422c-0.004-51.761-0.004-103.522,0-155.282c0.002-7.078,2.686-9.794,9.765-9.797
			c40.604-0.014,81.208-0.02,121.812-0.011c7.222,0.003,10.266,3.562,9.908,10.704c-0.326,6.511-0.115,13.049-0.18,19.576
			c-0.017,1.702,0.937,2.537,2.299,3.306c11.438,6.454,20.371,15.409,25.66,27.474
			C1647.223,143.5,1644.022,163.295,1629.558,181.382z"/>
		<path fill="#FFFFFF" d="M1585.647,103.4c-23.402-0.278-40.913,16.756-41.86,39.73c-1.016,24.637,16.312,44.235,42.263,43.951
			c23.346-0.254,41.229-16.391,41.483-41.531C1627.783,120.928,1610.252,103.451,1585.647,103.4z M1619.205,124.073
			c1.436,2.61,1.354,5.267-0.262,7.773c-0.649,1.01-1.485,1.919-2.338,2.774c-11.681,11.706-23.373,23.401-35.074,35.086
			c-4.521,4.512-8.651,4.526-13.184,0.011c-6.018-5.995-12.041-11.985-17.972-18.07c-2.271-2.333-3.157-5.118-1.705-8.337
			c1.345-2.981,3.919-4.76,7.12-4.776c2.245-0.025,4.116,0.784,5.703,2.389c3.733,3.772,7.492,7.522,11.265,11.262
			c2.071,2.054,2.315,2.057,4.387-0.009c9.717-9.7,19.435-19.398,29.118-29.133c1.744-1.755,3.649-2.776,6.215-2.787
			C1615.539,120.244,1617.767,121.457,1619.205,124.073z"/>
		<path fill="#FFFFFF" d="M1590.621,202.449c-3.024,0.461-6.091,0.503-9.084,0.154c-16.186-1.879-29.803-8.84-39.987-21.633
			c-13.568-17.04-17.42-35.896-9.089-56.526c8.684-21.505,32.111-39.52,59.446-36.208c1.677,0.203,2.414-0.552,2.431-2.164
			c0.017-1.82,0.051-3.643,0.042-5.466c-0.014-3.804-0.205-4.003-3.986-4.003c-34.012-0.006-68.022-0.006-102.032,0.002
			c-4.182,0-4.267,0.084-4.267,4.164c-0.007,22.547-0.003,45.093,0.003,67.643c0,22.622,0,45.244,0,67.87
			c0,3.596,0.172,3.792,3.68,3.798c9.642,0.014,19.282,0.014,28.924,0.014c24.748,0.004,49.497,0.01,74.246,0.004
			c3.069,0,3.416-0.355,3.427-3.402c0.018-3.722,0.022-7.441-0.02-11.16C1594.321,202.477,1593.709,201.979,1590.621,202.449z"/>
	</g>
	<path fill="#FFFFFF" d="M148.358-0.001C66.423-0.001,0,66.422,0,148.357c0,81.938,66.423,148.359,148.358,148.359
		c81.938,0,148.36-66.422,148.36-148.359C296.718,66.422,230.296-0.001,148.358-0.001z M231.339,175.563
		c-6.043,10.531-11.869,20.682-17.986,31.339c-18.199-13.555-35.893-26.735-54.805-40.825c2.684,23.25,5.207,45.104,7.785,67.424
		c-12.076,0-23.794,0-35.976,0c2.568-22.113,5.095-43.879,7.623-65.643c-0.385-0.254-0.769-0.506-1.152-0.76
		c-17.684,13.158-35.367,26.313-53.473,39.784c-6.076-10.567-11.854-20.619-17.999-31.308c21.024-9.123,41.423-17.972,62.621-27.169
		c-21.233-9.205-41.639-18.054-62.628-27.157c6.087-10.587,11.877-20.653,18.006-31.311c18.071,13.445,35.747,26.596,54.802,40.771
		c-2.706-23.382-5.234-45.229-7.812-67.493c11.913,0,23.511,0,35.976,0c-2.541,22.094-5.072,44.101-7.764,67.496
		c18.762-13.963,36.447-27.13,54.771-40.769c6.072,10.536,11.92,20.687,18.041,31.307c-20.92,9.068-41.201,17.857-62.627,27.142
		C189.949,157.597,210.246,166.408,231.339,175.563z"/>
	<path fill="#FFFFFF" d="M1879.156-1292.352c-12.721,9.469-25,18.609-38.023,28.303c1.867-16.242,3.625-31.52,5.389-46.857
		c-8.652,0-16.705,0-24.975,0c1.789,15.457,3.543,30.623,5.422,46.855c-13.229-9.842-25.498-18.971-38.045-28.305
		c-4.254,7.398-8.273,14.387-12.5,21.736c14.572,6.32,28.738,12.463,43.479,18.854c-14.717,6.385-28.877,12.527-43.473,18.861
		c4.266,7.42,8.277,14.398,12.494,21.734c12.57-9.352,24.846-18.484,37.123-27.619c0.266,0.176,0.533,0.352,0.799,0.527
		c-1.754,15.109-3.508,30.219-5.291,45.57c8.457,0,16.592,0,24.975,0c-1.789-15.494-3.541-30.666-5.404-46.807
		c13.129,9.781,25.412,18.932,38.047,28.342c4.246-7.398,8.291-14.445,12.486-21.756c-14.643-6.355-28.734-12.473-43.455-18.863
		c14.873-6.445,28.953-12.547,43.477-18.842C1887.429-1277.99,1883.371-1285.037,1879.156-1292.352z"/>
	<path d="M1759.265-1758.117v6.734c0,7.216,4.169,11.385,12.454,11.385h3.956v-9.086h-0.535c-2.512,0-3.795-1.337-3.795-3.688
		v-5.078c0-4.276-1.336-6.255-4.33-7.163c2.994-0.908,4.33-2.887,4.33-7.162v-5.078c0-2.353,1.283-3.688,3.795-3.688h0.535v-9.087
		h-3.956c-8.285,0-12.454,4.169-12.454,11.386v6.734c0,1.604-0.963,2.353-2.299,2.353h-1.764v9.087h1.764
		C1758.302-1760.47,1759.265-1759.722,1759.265-1758.117z"/>
	<path d="M1791.708-1749.833c3.635,0,6.254-0.962,8.018-2.939v2.405h11.492v-39.662h-12.08v12.4c-1.764-1.71-4.223-2.512-7.43-2.512
		c-7.645,0-14.112,5.72-14.112,15.127C1777.596-1755.605,1784.064-1749.833,1791.708-1749.833z M1794.594-1770.732
		c2.673,0,4.757,1.924,4.757,5.719s-2.084,5.773-4.757,5.773s-4.757-1.979-4.757-5.773S1791.921-1770.732,1794.594-1770.732z"/>
	<path d="M1832.703-1749.833c5.773,0,9.889-1.604,12.775-4.703l-6.308-6.361c-1.925,1.443-3.421,2.138-6.094,2.138
		c-2.62,0-4.437-0.748-5.399-2.565l19.992-3.849c0-9.729-7.377-14.967-15.876-14.967c-9.621,0-16.784,6.254-16.784,15.127
		C1815.009-1756.301,1821.958-1749.833,1832.703-1749.833z M1831.847-1771.909c2.191,0,3.742,1.229,4.383,3.048l-9.354,1.816
		C1827.25-1770.359,1829.121-1771.909,1831.847-1771.909z"/>
	<polygon points="1871.72,-1750.367 1883.48,-1779.606 1872.041,-1779.606 1865.734,-1763.944 1859.854,-1779.606 
		1847.453,-1779.606 1859.212,-1750.367 	"/>
	<path d="M1887.539-1777.254v5.078c0,4.275,1.337,6.254,4.33,7.162c-2.993,0.908-4.33,2.887-4.33,7.163v5.078
		c0,2.352-1.283,3.688-3.795,3.688h-0.534v9.086h3.955c8.286,0,12.455-4.169,12.455-11.385v-6.734c0-1.604,0.962-2.353,2.298-2.353
		h1.764v-9.087h-1.764c-1.336,0-2.298-0.748-2.298-2.353v-6.734c0-7.217-4.169-11.386-12.455-11.386h-3.955v9.087h0.534
		C1886.255-1780.942,1887.539-1779.606,1887.539-1777.254z"/>
	<path d="M1771.065-1992.388v-9.087h-0.534c-2.513,0-3.795-1.337-3.795-3.688v-5.078c0-4.276-1.337-6.254-4.33-7.162
		c2.993-0.909,4.33-2.887,4.33-7.163v-5.077c0-2.353,1.282-3.689,3.795-3.689h0.534v-9.087h-3.956
		c-8.285,0-12.454,4.169-12.454,11.386v6.735c0,1.604-0.962,2.352-2.298,2.352h-1.765v9.087h1.765c1.336,0,2.298,0.748,2.298,2.353
		v6.734c0,7.216,4.169,11.386,12.454,11.386H1771.065z"/>
	<path d="M1814.199-2021.466c0-11.6-8.605-18.709-21.114-18.709h-18.44v37.417h18.44
		C1805.593-2002.758,1814.199-2009.867,1814.199-2021.466z M1787.258-2012.593v-17.746h5.292c5.291,0,8.926,3.153,8.926,8.873
		s-3.635,8.873-8.926,8.873H1787.258z"/>
	<path d="M1817.134-2013.555c0,6.788,6.682,11.652,19.617,11.652c5.879,0,11.866-1.283,15.822-3.314l-3.688-9.14
		c-3.314,1.764-7.965,2.833-11.653,2.833c-5.345,0-7.376-1.177-7.376-2.887c0-1.55,1.282-2.565,4.169-2.565h11.813v-9.301h-10.958
		c-2.619,0-3.475-0.909-3.475-2.299c0-1.711,1.979-2.833,6.574-2.833c3.262,0,6.521,0.588,10.104,2.031l3.421-9.194
		c-3.741-1.496-8.82-2.459-14.005-2.459c-12.988,0-18.815,5.56-18.815,11.653c0,2.993,1.442,5.666,4.329,7.27
		C1819.218-2020.45,1817.134-2017.297,1817.134-2013.555z"/>
	<polygon points="1880.098,-2002.758 1895.919,-2040.175 1883.519,-2040.175 1874.378,-2018.313 1865.452,-2040.175 
		1851.875,-2040.175 1867.697,-2002.758 	"/>
	<path fill="#231F20" d="M1882.414-1533.432c-0.945-0.533-1.607-1.113-1.596-2.295c0.045-4.531-0.102-9.07,0.125-13.59
		c0.248-4.959-1.865-7.43-6.879-7.432c-28.188-0.006-56.376-0.002-84.564,0.008c-4.914,0.002-6.777,1.887-6.778,6.801
		c-0.003,35.934-0.003,71.867,0,107.801c0.001,4.713,1.787,6.537,6.452,6.541c14.173,0.01,28.346,0.004,42.52,0.004
		c0,0.002,0,0.006,0,0.01c5.373,0,10.748,0.002,16.123,0c9.168-0.004,18.334,0.02,27.502-0.029c3.41-0.02,5.369-2.035,5.479-5.422
		c0.029-0.896,0.016-1.791,0.016-2.688c0.002-5.217,0.039-10.434-0.016-15.648c-0.02-2.086,0.652-3.467,2.613-4.549
		c4.273-2.357,7.988-5.492,11.051-9.32c10.041-12.557,12.264-26.299,5.768-41.119
		C1896.556-1522.734,1890.355-1528.951,1882.414-1533.432z M1867.656-1446.363c-17.182,0.004-34.363,0-51.544-0.002
		c-6.693,0-13.386,0-20.079-0.01c-2.436-0.004-2.555-0.141-2.555-2.637c0-15.707,0-31.412,0-47.117
		c-0.004-15.654-0.007-31.307-0.002-46.959c0-2.832,0.059-2.891,2.962-2.891c23.61-0.006,47.222-0.006,70.833-0.002
		c2.625,0,2.758,0.139,2.768,2.779c0.006,1.266-0.018,2.531-0.029,3.795c-0.012,1.119-0.523,1.643-1.688,1.502
		c-18.977-2.299-35.24,10.207-41.269,25.137c-5.784,14.322-3.11,27.412,6.31,39.242c7.07,8.881,16.523,13.713,27.76,15.018
		c2.078,0.242,4.207,0.213,6.307-0.107c2.145-0.326,2.568,0.02,2.592,2.143c0.029,2.582,0.025,5.164,0.014,7.748
		C1870.027-1446.609,1869.787-1446.363,1867.656-1446.363z M1864.255-1469.283c-18.016,0.197-30.045-13.408-29.34-30.512
		c0.658-15.949,12.814-27.775,29.061-27.582c17.082,0.035,29.252,12.168,29.078,29.262
		C1892.878-1480.662,1880.462-1469.459,1864.255-1469.283z"/>
	<path fill="#231F20" d="M1878.289-1513.74c-6.723,6.758-13.469,13.49-20.215,20.225c-1.438,1.434-1.607,1.432-3.045,0.006
		c-2.619-2.596-5.229-5.199-7.82-7.818c-1.102-1.113-2.4-1.676-3.959-1.658c-2.223,0.012-4.01,1.246-4.943,3.316
		c-1.008,2.234-0.393,4.168,1.184,5.787c4.117,4.225,8.299,8.383,12.477,12.545c3.146,3.135,6.014,3.125,9.152-0.008
		c8.123-8.111,16.24-16.23,24.35-24.357c0.592-0.594,1.172-1.225,1.623-1.926c1.121-1.74,1.178-3.584,0.182-5.396
		c-0.998-1.816-2.545-2.658-4.67-2.65C1880.822-1515.668,1879.5-1514.959,1878.289-1513.74z"/>
	<path fill="#003464" d="M-814.246-24.259c-95.334,0-172.617,77.283-172.617,172.617s77.283,172.617,172.617,172.617
		c95.333,0,172.617-77.283,172.617-172.617S-718.913-24.259-814.246-24.259z M-793.403,87.67c5.569-4.931,14.081-4.384,19.073,1.224
		c4.982,5.599,4.5,14.045-1.09,19.062c-5.622,5.044-14.171,4.565-19.197-1.076C-799.6,101.288-799.055,92.673-793.403,87.67z
		 M-835.822,100.85c19.276,0,34.903,15.627,34.903,34.902c0,19.276-15.626,34.902-34.903,34.902
		c-19.276,0-34.903-15.626-34.903-34.902C-870.725,116.477-855.098,100.85-835.822,100.85z M-922.728,242.232
		c13.993-31.979,47.628-54.515,86.905-54.515c39.277,0,72.913,22.536,86.906,54.515H-922.728z M-746.242,104.137
		c-0.195,3.028-1.958,5.197-4.671,5.923c-2.653,0.709-5.508-0.188-6.865-2.665c-0.758-1.386-1.056-3.208-1.008-4.816
		c0.243-8.291-2.291-15.551-7.954-21.574c-5.164-5.492-11.626-8.511-19.176-9.072c-2.666-0.197-4.644-1.399-5.722-3.852
		c-1.899-4.319,1.325-9.04,6.101-8.791c9.044,0.473,17.089,3.654,24.095,9.389c1.672,1.368,3.184,2.934,4.205,3.882
		C-749.035,82.061-745.483,92.374-746.242,104.137z M-726.285,104.674c-0.208,2.902-1.459,5.049-4.273,6.079
		c-2.43,0.89-5.057,0.187-7-1.981c-1.236-1.32-1.498-3.183-1.375-5.223c0.627-10.453-1.711-20.207-7.422-28.997
		c-8.844-13.61-21.464-21.046-37.638-22.525c-1.464-0.134-3.071-0.564-4.267-1.369c-2.425-1.63-3.132-4.538-2.151-7.183
		c0.938-2.526,3.372-4.266,6.179-4.076c2.896,0.195,5.808,0.496,8.656,1.047C-745.363,46.283-724.096,74.036-726.285,104.674z
		 M-705.902,105.151c-0.146,2.695-1.24,4.821-3.78,5.941c-2.384,1.051-4.682,0.705-6.693-0.95c-1.821-1.5-2.346-3.528-2.192-5.833
		c0.618-9.252-0.651-18.254-3.694-27.005c-8.969-25.785-32.678-43.807-59.946-45.533c-2.583-0.164-4.808-0.862-6.15-3.226
		c-1.219-2.146-1.208-4.362,0.074-6.487c1.329-2.203,3.371-3.12,5.897-2.994c7.875,0.392,15.521,1.934,22.94,4.6
		c12.889,4.634,23.893,12.077,34.468,23.738C-711.611,62.903-704.678,82.618-705.902,105.151z"/>
	<g>
		<path fill="#003464" d="M-336.754,133.148c-6.71-2.623-14.216,0.673-16.834,7.391c-2.611,6.695,0.707,14.227,7.413,16.832
			c6.701,2.602,14.242-0.714,16.839-7.402C-326.729,143.263-330.031,135.774-336.754,133.148z"/>
		<path fill="#003464" d="M-345.072-24.259c-95.334,0-172.617,77.283-172.617,172.617s77.283,172.617,172.617,172.617
			c95.333,0,172.617-77.283,172.617-172.617S-249.74-24.259-345.072-24.259z M-408.302,183.872
			c-5.631-0.563-11.233-0.472-16.743,1.05c-5.126,1.418-9.571,4.016-13.418,7.67c-3.264,3.098-5.874,6.703-8.192,10.53
			c-1.327,2.192-3.207,2.895-5.476,1.925c-2.047-0.875-2.859-2.935-2.216-5.298c0.182-0.671-0.043-1.44,0.024-2.155
			c0.749-7.921,2.697-15.557,4.838-21.128c4.682-11.918,10.229-21.04,17.519-29.04c6.585-7.229,14.162-13.158,23.32-16.861
			c0.713-0.29,1.442-0.547,2.172-0.795c2.995-1.014,6.093,1.593,5.584,4.713c-1.785,10.973-2.492,22.034-2.53,33.139
			c-0.014,3.729,0.057,7.469,0.36,11.182C-402.774,182.278-405.269,184.176-408.302,183.872z M-349.16,245.681
			c-3.986,4.146-8.221,8.019-12.902,11.379c-0.497,0.356-1.043,0.649-1.592,0.919c-1.385,0.678-2.492,0.244-2.602-1.285
			c-0.119-1.655,0.098-3.353,0.34-5.008c0.16-1.096,0.624-2.149,1-3.379c-1.33,0.094-1.943,0.756-2.481,1.51
			c-2.647,3.711-4.281,7.924-6.003,12.096c-1.589,3.85-3.059,7.775-5.721,11.063c-3.159,3.904-6.997,7.049-11.286,9.629
			c-0.654,0.395-1.567,0.354-2.361,0.517c0.027-0.798-0.095-1.635,0.107-2.384c0.725-2.69,0.522-5.395-0.021-8.028
			c-1.148-5.583-2.282-11.185-3.824-16.665c-1.593-5.659-1.555-11.074,0.802-16.48c0.492-1.127,0.697-2.381,1.033-3.576
			c-0.132-0.069-0.265-0.137-0.397-0.206c-0.786,0.966-1.571,1.934-2.358,2.899c-1.595,1.956-1.989,1.928-2.991-0.438
			c-1.792-4.231-2.463-8.727-3.124-13.241c-0.854-5.847,0.654-11.081,3.657-15.995c1.5-2.455,3.744-4.226,6.073-5.782
			c2.315-1.548,4.816-2.848,7.333-4.055c1.302-0.624,1.754-0.321,1.872,1.063c0.255,2.981,0.312,5.979,0.507,8.966
			c0.11,1.684,0.239,3.376,0.545,5.028c0.246,1.329,0.975,1.596,2.341,1.248c0.457-0.115,0.958-0.054,1.438-0.074
			c-0.026,0.475-0.04,0.951-0.079,1.425c-0.16,1.907-0.579,3.832-0.444,5.717c0.317,4.489,0.888,8.962,1.376,13.438
			c0.049,0.456,0.204,0.902,0.351,1.341c0.591,1.771,1.378,2.195,2.887,1.062c2.109-1.584,4.141-3.329,5.929-5.263
			c2.527-2.729,4.802-5.693,7.299-8.693c-0.325,2.172-0.647,4.21-0.926,6.255c-0.103,0.759-0.143,1.533-0.137,2.3
			c0.007,0.947,0.549,1.205,1.399,0.924c1.93-0.635,3.449-1.896,4.766-3.365c3.098-3.455,5.279-7.402,5.943-12.056
			c0.178-1.246,0.05-2.532,0.091-3.8c0.042-1.273-0.061-2.762,1.361-3.302c1.279-0.484,2.015,0.755,2.681,1.581
			c3.306,4.105,5.165,8.83,5.541,14.078C-341.208,234.426-344.163,240.482-349.16,245.681z M-278.606,226.906
			c-2.836,12.438-8.064,23.771-15.783,33.939c-0.199,0.261-0.487,0.455-0.733,0.68c-1.539,3.263-4.569,3.642-6.933,1.916
			c-1.227-0.896-1.683-2.219-1.391-3.682c0.901-4.497,1.487-9.015,1.249-13.614c-0.007-0.139,0.094-0.282,0.146-0.425
			c-0.495-2.412-0.851-4.862-1.512-7.228c-1.642-5.884-5.066-10.7-9.438-14.854c-1.865-1.772-3.904-3.369-5.909-4.988
			c-2.089-1.688-2.314-4.575-0.426-6.481c2.735-2.763,5.624-5.389,8.186-8.304c4.292-4.885,8.476-9.871,12.512-14.968
			c2.915-3.68,5.53-7.599,8.25-11.43c1.711-2.41,5.689-2.305,7.132,0.285c3.055,5.489,4.835,11.423,5.855,17.589
			C-275.649,205.941-276.225,216.464-278.606,226.906z M-273.404,111.524c-0.857,5.162-2.035,10.279-3.272,15.366
			c-2.072,8.531-5.162,16.713-8.821,24.686c-3.562,7.76-7.677,15.21-12.305,22.384c-4.728,7.329-9.891,14.345-15.629,20.897
			c-4.18,4.774-8.706,9.252-13.09,13.847c-0.874,0.917-1.849,1.738-2.705,2.667c-1.266,1.373-2.805,1.566-4.443,1.03
			c-1.903-0.621-3.764-1.373-5.631-2.101c-7.988-3.109-15.968-6.232-23.952-9.35c-9.529-3.722-19.047-7.477-28.599-11.14
			c-2.263-0.868-3.446-2.295-3.506-4.722c-0.144-5.885-0.475-11.77-0.462-17.653c0.018-7.864,0.643-15.7,1.701-23.497
			c1.339-9.874,3.407-19.581,6.324-29.121c2.763-9.031,6.255-17.761,10.568-26.146c4.953-9.628,10.952-18.57,18.004-26.806
			c7.363-8.6,15.672-16.151,24.905-22.673c10.194-7.2,21.166-12.97,32.831-17.413c2.09-0.797,4.182-1.592,6.301-2.297
			c2.293-0.762,3.786-0.185,4.944,1.95c5.186,9.554,9.422,19.507,12.543,29.931c2.697,9.008,4.504,18.184,5.348,27.547
			C-271.364,89.823-271.61,100.716-273.404,111.524z"/>
		<path fill="#003464" d="M-311.961,69.92c-12.167-4.81-25.871,1.154-30.705,13.371c-4.709,11.896,0.969,25.717,13.279,30.635
			c12.061,4.816,25.958-1.142,30.672-13.072C-293.828,88.485-299.702,74.767-311.961,69.92z"/>
	</g>
	<g>
		<path fill="#003464" d="M-1283.419-24.259c-95.334,0-172.617,77.283-172.617,172.617s77.283,172.617,172.617,172.617
			c95.333,0,172.617-77.283,172.617-172.617S-1188.086-24.259-1283.419-24.259z M-1283.423,283.232
			c-73.277,0-132.685-59.141-132.685-132.088c0-72.951,59.408-132.092,132.685-132.092c73.286,0,132.691,59.141,132.691,132.092
			C-1150.731,224.092-1210.137,283.232-1283.423,283.232z"/>
		<path fill="#003464" d="M-1214.913,148.494c0-38.751-31.601-70.166-70.582-70.166c-38.986,0-70.59,31.415-70.59,70.166
			c0,38.747,31.604,70.16,70.59,70.16c0.854,0,1.704-0.03,2.559-0.063v13.565c34.16-0.303,63.365-21.304,75.703-51.062
			l-13.213-5.321C-1216.88,167.393-1214.913,158.17-1214.913,148.494z"/>
	</g>
</g>
<g id="Capa_2">
	<g>
		<g>
			<g>
				<g>
					<path fill="#FFFFFF" d="M123.116-2656.91c-0.314-0.011-0.603-0.06-0.866-0.147c-0.265-0.088-0.492-0.212-0.685-0.375
						c-0.191-0.162-0.341-0.364-0.448-0.605s-0.164-0.521-0.17-0.84h0.609c0.041,0.482,0.202,0.829,0.483,1.04
						c0.282,0.212,0.641,0.319,1.076,0.319c0.173,0,0.344-0.021,0.509-0.066c0.166-0.043,0.312-0.109,0.436-0.196
						c0.125-0.087,0.228-0.198,0.306-0.335s0.118-0.298,0.118-0.484c0-0.214-0.049-0.391-0.145-0.53
						c-0.097-0.14-0.223-0.257-0.379-0.353c-0.156-0.097-0.336-0.177-0.535-0.244c-0.201-0.066-0.403-0.135-0.61-0.205
						c-0.206-0.069-0.409-0.145-0.61-0.226c-0.199-0.082-0.379-0.185-0.535-0.31s-0.283-0.28-0.379-0.467
						c-0.096-0.186-0.144-0.414-0.144-0.688c0-0.278,0.053-0.527,0.161-0.749c0.107-0.22,0.249-0.409,0.428-0.562
						c0.177-0.154,0.381-0.272,0.613-0.353c0.232-0.082,0.473-0.122,0.723-0.122c0.232,0,0.458,0.037,0.676,0.113
						s0.41,0.18,0.578,0.313c0.169,0.134,0.304,0.299,0.406,0.492c0.102,0.195,0.152,0.408,0.152,0.641h-0.61
						c-0.012-0.162-0.054-0.304-0.126-0.423c-0.072-0.118-0.166-0.218-0.279-0.296s-0.239-0.136-0.379-0.174
						c-0.139-0.039-0.279-0.057-0.418-0.057c-0.18,0-0.35,0.027-0.51,0.083c-0.16,0.055-0.299,0.132-0.417,0.23
						c-0.119,0.099-0.215,0.222-0.284,0.37c-0.068,0.148-0.104,0.313-0.104,0.492c0,0.197,0.046,0.359,0.139,0.488
						c0.094,0.127,0.215,0.236,0.365,0.326c0.151,0.09,0.322,0.167,0.514,0.23c0.192,0.064,0.39,0.129,0.594,0.191
						c0.203,0.064,0.401,0.137,0.597,0.219c0.194,0.082,0.37,0.186,0.526,0.313c0.401,0.325,0.601,0.743,0.601,1.253
						c0,0.279-0.057,0.525-0.17,0.736c-0.112,0.213-0.265,0.389-0.452,0.527c-0.188,0.14-0.4,0.246-0.637,0.318
						C123.599-2656.946,123.36-2656.91,123.116-2656.91z"/>
					<path fill="#FFFFFF" d="M143.106-2656.91c-0.436,0-0.856-0.083-1.263-0.251c-0.396-0.164-0.74-0.395-1.036-0.698
						c-0.304-0.296-0.534-0.642-0.698-1.036c-0.168-0.406-0.251-0.827-0.251-1.263s0.083-0.856,0.251-1.264
						c0.164-0.39,0.395-0.733,0.698-1.036c0.296-0.297,0.641-0.529,1.036-0.697c0.406-0.168,0.827-0.252,1.263-0.252
						s0.856,0.084,1.263,0.252c0.39,0.168,0.734,0.4,1.037,0.697c0.296,0.303,0.528,0.646,0.696,1.036
						c0.169,0.407,0.253,0.828,0.253,1.264s-0.084,0.856-0.253,1.263c-0.168,0.395-0.4,0.74-0.696,1.036
						c-0.303,0.304-0.647,0.534-1.037,0.698C143.962-2656.993,143.542-2656.91,143.106-2656.91z M143.106-2662.798
						c-0.354,0-0.691,0.064-1.011,0.197c-0.318,0.129-0.604,0.322-0.853,0.578c-0.257,0.249-0.449,0.533-0.58,0.854
						c-0.13,0.32-0.196,0.656-0.196,1.011c0,0.354,0.066,0.69,0.196,1.011c0.131,0.318,0.323,0.604,0.58,0.853
						c0.249,0.257,0.534,0.449,0.853,0.579c0.319,0.131,0.656,0.197,1.011,0.197c0.354,0,0.69-0.066,1.01-0.197
						c0.32-0.13,0.605-0.322,0.854-0.579c0.255-0.249,0.448-0.534,0.578-0.853c0.132-0.32,0.196-0.657,0.196-1.011
						c0-0.354-0.064-0.69-0.196-1.011c-0.13-0.32-0.323-0.604-0.578-0.854c-0.249-0.256-0.534-0.449-0.854-0.578
						C143.796-2662.733,143.459-2662.798,143.106-2662.798z"/>
					<path fill="#FFFFFF" d="M161.729-2662.599v2.502h2.84v0.608h-2.84v2.378h-0.609v-6.097h4.058v0.608H161.729z"/>
					<path fill="#FFFFFF" d="M179.943-2662.599v-0.608h4.059v0.608h-1.725v5.488h-0.609v-5.488H179.943z"/>
					<path fill="#FFFFFF" d="M203.217-2657.11l-1.891-2.856l-1.89,2.856h-0.67v-6.097h0.608v5.087l1.951-2.953l1.952,2.953v-5.087
						h0.608v6.097H203.217z"/>
					<path fill="#FFFFFF" d="M220.507-2663.207h0.645l1.96,6.097h-0.645l-0.767-2.378h-1.742l-0.767,2.378h-0.644L220.507-2663.207z
						 M220.151-2660.097h1.358l-0.68-2.117L220.151-2660.097z"/>
					<path fill="#FFFFFF" d="M241.307-2658.364c0-0.326-0.101-0.59-0.304-0.793c-0.221-0.203-0.528-0.314-0.924-0.331h-1.594v2.378
						h-0.609v-6.097H240c0.263,0,0.506,0.036,0.733,0.108c0.226,0.072,0.426,0.179,0.601,0.318c0.174,0.139,0.316,0.319,0.427,0.539
						c0.046,0.105,0.084,0.225,0.113,0.357c0.028,0.135,0.043,0.314,0.043,0.541c0,0.237-0.015,0.419-0.043,0.543
						c-0.029,0.125-0.067,0.24-0.113,0.346c-0.11,0.22-0.253,0.4-0.427,0.539c-0.029,0.023-0.057,0.046-0.083,0.064
						c-0.025,0.021-0.054,0.04-0.082,0.058c0.046,0.029,0.089,0.06,0.13,0.092s0.081,0.065,0.121,0.101
						c0.269,0.262,0.428,0.58,0.48,0.957c0.005,0.047,0.01,0.094,0.012,0.14c0.004,0.047,0.005,0.093,0.005,0.14v1.254h-0.61
						V-2658.364z M240.951-2660.394c0.064-0.059,0.122-0.133,0.174-0.227c0.047-0.082,0.089-0.18,0.127-0.297
						c0.038-0.115,0.056-0.258,0.056-0.426c0-0.25-0.029-0.449-0.091-0.598c-0.061-0.146-0.149-0.268-0.266-0.361
						c-0.243-0.197-0.561-0.297-0.95-0.297h-1.515v2.502H240C240.39-2660.097,240.708-2660.196,240.951-2660.394z"/>
					<path fill="#FFFFFF" d="M257.292-2662.599v2.502h2.839v0.608h-2.839v1.769h3.449v0.609h-4.06v-6.097h4.06v0.608H257.292z"/>
				</g>
				<g>
					<g>
						<path fill="#FFFFFF" d="M127.886-2680.024l-1.54,2.898v9.738h-4.982v-31.707h4.982v13.725h0.091l6.432-13.725h4.982
							l-6.93,14.132l6.93,17.575h-5.119L127.886-2680.024z"/>
						<path fill="#FFFFFF" d="M140.296-2691.485c0-5.073,2.672-7.973,7.565-7.973c4.892,0,7.563,2.899,7.563,7.973v16.488
							c0,5.073-2.672,7.973-7.563,7.973c-4.894,0-7.565-2.899-7.565-7.973V-2691.485z M145.279-2674.681
							c0,2.266,0.997,3.126,2.583,3.126c1.584,0,2.581-0.86,2.581-3.126v-17.121c0-2.266-0.997-3.127-2.581-3.127
							c-1.586,0-2.583,0.861-2.583,3.127V-2674.681z"/>
						<path fill="#FFFFFF" d="M169.964-2667.388c-0.271-0.815-0.453-1.313-0.453-3.895v-4.984c0-2.942-0.997-4.03-3.261-4.03h-1.722
							v12.909h-4.982v-31.707h7.519c5.164,0,7.384,2.4,7.384,7.293v2.49c0,3.262-1.041,5.346-3.261,6.389v0.09
							c2.491,1.041,3.306,3.396,3.306,6.703v4.893c0,1.539,0.046,2.672,0.544,3.85H169.964z M164.529-2694.565v9.738h1.948
							c1.857,0,2.989-0.814,2.989-3.352v-3.125c0-2.266-0.771-3.262-2.536-3.262H164.529z"/>
						<path fill="#FFFFFF" d="M178.661-2699.095h4.983v31.707h-4.983V-2699.095z"/>
						<path fill="#FFFFFF" d="M192.702-2690.353h-0.09v22.965h-4.485v-31.707h6.251l5.027,18.979h0.091v-18.979h4.439v31.707h-5.118
							L192.702-2690.353z"/>
						<path fill="#FFFFFF" d="M215.891-2673.231h0.091l3.76-25.863h4.574l-4.892,31.707h-7.429l-4.892-31.707h5.028
							L215.891-2673.231z"/>
						<path fill="#FFFFFF" d="M232.514-2685.731h6.84v4.528h-6.84v9.286h8.606v4.529h-13.589v-31.707h13.589v4.529h-8.606V-2685.731
							z"/>
						<path fill="#FFFFFF" d="M255.525-2667.388c-0.272-0.815-0.453-1.313-0.453-3.895v-4.984c0-2.942-0.997-4.03-3.262-4.03h-1.722
							v12.909h-4.982v-31.707h7.52c5.164,0,7.384,2.4,7.384,7.293v2.49c0,3.262-1.043,5.346-3.263,6.389v0.09
							c2.492,1.041,3.308,3.396,3.308,6.703v4.893c0,1.539,0.045,2.672,0.543,3.85H255.525z M250.088-2694.565v9.738h1.948
							c1.857,0,2.989-0.814,2.989-3.352v-3.125c0-2.266-0.77-3.262-2.536-3.262H250.088z"/>
					</g>
				</g>
			</g>
			<linearGradient id="SVGID_8_" gradientUnits="userSpaceOnUse" x1="206.6782" y1="-2705.8457" x2="176.8923" y2="-2823.6501">
				<stop  offset="0" style="stop-color:#5D9D47"/>
				<stop  offset="1" style="stop-color:#8EBC3F"/>
			</linearGradient>
			<path fill="url(#SVGID_8_)" d="M190.843-2829.192c-33.688,0-60.997,27.188-60.997,60.726c0,33.535,27.31,60.723,60.997,60.723
				c33.689,0,61-27.188,61-60.723C251.843-2802.005,224.533-2829.192,190.843-2829.192z M191.067-2731.224v-6.236
				c-0.393,0.014-0.784,0.028-1.177,0.028c-17.922,0-32.451-14.44-32.451-32.253c0-17.816,14.529-32.256,32.451-32.256
				c17.92,0,32.448,14.439,32.448,32.256c0,4.447-0.905,8.686-2.545,12.541l6.074,2.445
				C220.196-2741.019,206.771-2731.364,191.067-2731.224z"/>
		</g>
	</g>
</g>
</svg>
